<?xml version="1.0" encoding="UTF-8"?>
<svg width="32px" height="32px" viewBox="0 0 32 32" version="1.1" xmlns="http://www.w3.org/2000/svg" xmlns:xlink="http://www.w3.org/1999/xlink">
    <!-- Generator: sketchtool 40 (33762) - http://www.bohemiancoding.com/sketch -->
    <title>fa-iot-power-button</title>
    <desc>Created with sketchtool.</desc>
    <defs></defs>
    <g id="icons" stroke="none" stroke-width="1" fill="none" fill-rule="evenodd">
        <g transform="translate(-204.000000, -256.000000)" id="fa-iot-power-button" fill="#5E676F">
            <path d="M220,288 C228.836556,288 236,280.836556 236,272 C236,263.163444 228.836556,256 220,256 C211.163444,256 204,263.163444 204,272 C204,280.836556 211.163444,288 220,288 Z M220,286 C212.268014,286 206,279.731986 206,272 C206,264.268014 212.268014,258 220,258 C227.731986,258 234,264.268014 234,272 C234,279.731986 227.731986,286 220,286 Z M219,263.997545 C219,263.446616 219.443865,263 220,263 C220.552285,263 221,263.446311 221,263.997545 L221,271.002455 C221,271.553384 220.556135,272 220,272 C219.447715,272 219,271.553689 219,271.002455 L219,263.997545 Z M225.458933,265.5 C225,265.976987 225.173552,266.8351 225.458933,267.202943 C226.450599,268.481155 227,270.065977 227,271.74471 C227,275.764022 223.85328,279 220,279 C216.14672,279 213,275.764022 213,271.74471 C213,270.041549 213.565609,268.435219 214.58385,267.148339 C214.872565,266.783452 215,265.967053 214.5,265.5 C214,265.032947 213.015438,265.907337 213.015438,265.907337 C211.755367,267.499849 211,269.531565 211,271.74471 C211,276.856266 215.029437,281 220,281 C224.970563,281 229,276.856266 229,271.74471 C229,269.563701 228.26641,267.55889 227.039133,265.976987 C227.039133,265.976987 225.917866,265.023013 225.458933,265.5 Z"></path>
        </g>
    </g>
</svg>