<?xml version="1.0" encoding="UTF-8"?>
<svg width="32px" height="32px" viewBox="0 0 32 32" version="1.1" xmlns="http://www.w3.org/2000/svg" xmlns:xlink="http://www.w3.org/1999/xlink">
    <!-- Generator: sketchtool 40 (33762) - http://www.bohemiancoding.com/sketch -->
    <title>fa-iot-door-handle</title>
    <desc>Created with sketchtool.</desc>
    <defs></defs>
    <g id="icons" stroke="none" stroke-width="1" fill="none" fill-rule="evenodd">
        <g id="fa-iot-door-handle" fill="#5E676F">
            <path d="M24,9 L24,3.99743399 C24,1.79829425 22.2094838,0 20.00077,0 L7.99922997,0 C5.79246765,0 4,1.79276724 4,4.0042577 L4,27.9957423 C4,30.2109725 5.79051625,32 7.99922997,32 L20.00077,32 C22.2075324,32 24,30.2102927 24,28.0025769 L24,15 L26.9998938,15 C28.6607625,15 30,13.6583224 30,12 C30,10.3374956 28.6588665,9 26.9998938,9 L24,9 Z M22,15 L22,28.0025769 C22,29.1046964 21.1039899,30 20.00077,30 L7.99922997,30 C6.89406861,30 6,29.1053849 6,27.9957423 L6,4.0042577 C6,2.8975999 6.89677503,2 7.99922997,2 L20.00077,2 C21.1014907,2 22,2.89943766 22,3.99743399 L22,9 L19.1973068,9 C18.1598786,7.20659589 16.2208471,6 14,6 C10.6862915,6 8,8.6862915 8,12 C8,15.3137085 10.6862915,18 14,18 C16.2208471,18 18.1598786,16.7934041 19.1973068,15 L22,15 Z M18.0015871,15 C17.0787784,16.2291976 15.6129445,17 14,17 C11.2385763,17 9,14.7614237 9,12 C9,9.23857625 11.2385763,7 14,7 C15.6132937,7 17.0789905,7.77112943 18.0015967,9 L14.0001062,9 C12.3392375,9 11,10.3416776 11,12 C11,13.6625044 12.3411335,15 14.0001062,15 L18.0015871,15 Z M14,26 C12.3431458,26 11,24.6568542 11,23 C11,21.3431458 12.3431458,20 14,20 C15.6568542,20 17,21.3431458 17,23 C17,24.6568542 15.6568542,26 14,26 Z M14,25 C15.1045695,25 16,24.1045695 16,23 C16,21.8954305 15.1045695,21 14,21 C12.8954305,21 12,21.8954305 12,23 C12,24.1045695 12.8954305,25 14,25 Z M13,12 C13,11.445433 13.4446229,11 14.0001062,11 L26.9998938,11 C27.5555113,11 28,11.443283 28,12 C28,12.554567 27.5553771,13 26.9998938,13 L14.0001062,13 C13.4444887,13 13,12.556717 13,12 Z"></path>
        </g>
    </g>
</svg>