<?xml version="1.0" encoding="UTF-8"?>
<svg width="32px" height="32px" viewBox="0 0 32 32" version="1.1" xmlns="http://www.w3.org/2000/svg" xmlns:xlink="http://www.w3.org/1999/xlink">
    <!-- Generator: sketchtool 40 (33762) - http://www.bohemiancoding.com/sketch -->
    <title>fa-iot-socket-f</title>
    <desc>Created with sketchtool.</desc>
    <defs></defs>
    <g id="icons" stroke="none" stroke-width="1" fill="none" fill-rule="evenodd">
        <g transform="translate(-256.000000, -204.000000)" id="fa-iot-socket-f" fill="#5E676F">
            <path d="M256,210.000176 C256,206.68637 258.686978,204 262.000176,204 L281.999824,204 C285.31363,204 288,206.686978 288,210.000176 L288,229.999824 C288,233.31363 285.313022,236 281.999824,236 L262.000176,236 C258.68637,236 256,233.313022 256,229.999824 L256,210.000176 Z M258,210.000176 L258,229.999824 C258,232.208694 259.791181,234 262.000176,234 L281.999824,234 C284.208694,234 286,232.208819 286,229.999824 L286,210.000176 C286,207.791306 284.208819,206 281.999824,206 L262.000176,206 C259.791306,206 258,207.791181 258,210.000176 Z M260,213.001973 C260,210.239459 262.23631,208 265.001973,208 L278.998027,208 C281.760541,208 284,210.23631 284,213.001973 L284,226.998027 C284,229.760541 281.76369,232 278.998027,232 L265.001973,232 C262.239459,232 260,229.76369 260,226.998027 L260,213.001973 Z M261,213.001973 L261,226.998027 C261,229.21022 262.790559,231 265.001973,231 L278.998027,231 C281.21022,231 283,229.209441 283,226.998027 L283,213.001973 C283,210.78978 281.209441,209 278.998027,209 L265.001973,209 C262.78978,209 261,210.790559 261,213.001973 Z M272,229 C267.029437,229 263,224.970563 263,220 C263,215.029437 267.029437,211 272,211 C276.970563,211 281,215.029437 281,220 C281,224.970563 276.970563,229 272,229 Z M272,228 C276.418278,228 280,224.418278 280,220 C280,215.581722 276.418278,212 272,212 C267.581722,212 264,215.581722 264,220 C264,224.418278 267.581722,228 272,228 Z M269,222 C267.895431,222 267,221.104569 267,220 C267,218.895431 267.895431,218 269,218 C270.104569,218 271,218.895431 271,220 C271,221.104569 270.104569,222 269,222 Z M269,221 C269.552285,221 270,220.552285 270,220 C270,219.447715 269.552285,219 269,219 C268.447715,219 268,219.447715 268,220 C268,220.552285 268.447715,221 269,221 Z M275,222 C273.895431,222 273,221.104569 273,220 C273,218.895431 273.895431,218 275,218 C276.104569,218 277,218.895431 277,220 C277,221.104569 276.104569,222 275,222 Z M275,221 C275.552285,221 276,220.552285 276,220 C276,219.447715 275.552285,219 275,219 C274.447715,219 274,219.447715 274,220 C274,220.552285 274.447715,221 275,221 Z"></path>
        </g>
    </g>
</svg>