<?xml version="1.0" encoding="UTF-8"?>
<svg width="32px" height="32px" viewBox="0 0 32 32" version="1.1" xmlns="http://www.w3.org/2000/svg" xmlns:xlink="http://www.w3.org/1999/xlink">
    <!-- Generator: sketchtool 40 (33762) - http://www.bohemiancoding.com/sketch -->
    <title>fa-iot-plug</title>
    <desc>Created with sketchtool.</desc>
    <defs></defs>
    <g id="icons" stroke="none" stroke-width="1" fill="none" fill-rule="evenodd">
        <g transform="translate(-100.000000, -412.000000)" id="fa-iot-plug" fill="#5E676F">
            <path d="M111,435 C110.377972,433.091504 109.500962,432.119319 108.219714,431.120251 C107.84167,430.825467 107.446082,430.562931 106.93817,430.259236 C106.928966,430.253733 105.948173,429.681457 105.688216,429.517082 C104.901775,429.0198 104.408695,428.567326 104.101616,427.93921 L104,427.73136 L104,427.5 L104,422.009862 C104,420.349155 105.335764,419 106.991155,419 L110,419 L110,412.997545 C110,412.446616 110.443865,412 111,412 C111.552285,412 112,412.446311 112,412.997545 L112,419 L120,419 L120,412.997545 C120,412.446616 120.443865,412 121,412 C121.552285,412 122,412.446311 122,412.997545 L122,419 L125.008845,419 C126.665587,419 128,420.3423 128,422.009862 L128,427.5 L128,427.73136 L127.898384,427.93921 C127.613375,428.522184 127.156956,428.969542 126.455551,429.452713 C126.619123,429.340034 124.39256,430.744833 123.756287,431.260075 C122.494254,432.282047 121.629939,433.206673 121,435 L121,437 C121,437 121,438 119,438 L119,444 L113,444 L112.99703,438 C111,438 111,437 111,437 L111,435 Z M113,436 L113,435 L113,434.841149 L112.950775,434.690118 C112.202122,432.393115 111.037853,430.781566 109.449543,429.543064 C108.997404,429.190503 108.537287,428.885141 107.964545,428.542683 C107.927634,428.520613 106.981434,427.968521 106.757096,427.826668 C106.256644,427.510223 106.107002,427.218868 106,427 L106,422.009862 C106,421.449284 106.444824,421 106.991155,421 L125.008845,421 C125.55837,421 126,421.44424 126,422.009862 L126,427 C125.897757,427.209134 125.764454,427.500179 125.320972,427.805676 C125.167142,427.911644 124.9943,428.02323 124.749353,428.176078 C124.749208,428.176168 124.226782,428.500037 124.066364,428.601249 C123.450189,428.990011 122.97224,429.321466 122.497649,429.705781 C120.956957,430.953405 119.813811,432.512695 119.056515,434.668584 L119,434.829473 L119,435 L119,435.5 L119,436.000607 L113,436 Z M112,426 L120,426 L120,427 L112,427 L112,426 Z M113,428 L119,428 L119,429 L113,429 L113,428 Z M113,424 L119,424 L119,425 L113,425 L113,424 Z M115,438 L117,438 L117,442 L115,442 L115,438 Z"></path>
        </g>
    </g>
</svg>