<?xml version="1.0" encoding="UTF-8"?>
<svg width="32px" height="32px" viewBox="0 0 32 32" version="1.1" xmlns="http://www.w3.org/2000/svg" xmlns:xlink="http://www.w3.org/1999/xlink">
    <!-- Generator: sketchtool 40 (33762) - http://www.bohemiancoding.com/sketch -->
    <title>fa-iot-recycling</title>
    <desc>Created with sketchtool.</desc>
    <defs></defs>
    <g id="icons" stroke="none" stroke-width="1" fill="none" fill-rule="evenodd">
        <g id="fa-iot-recycling" fill="#5E676F">
            <path d="M18.1905699,28.9428534 L19.5048245,30.2357451 C19.9018015,30.6262694 19.9018015,31.2594344 19.5048245,31.6499587 C19.1078474,32.0404829 18.4642204,32.0404829 18.0672434,31.6499587 L15.0176734,28.6499587 C14.8191849,28.4546965 14.7199406,28.1987742 14.7199406,27.9428519 C14.7199406,27.6869296 14.8191849,27.4310072 15.0176734,27.2357451 L18.0672434,24.2357451 C18.4642204,23.8452208 19.1078474,23.8452208 19.5048245,24.2357451 C19.9018015,24.6262694 19.9018015,25.2594344 19.5048245,25.6499587 L18.1905668,26.9428534 L27.1824789,26.9428519 C29.7669183,26.9428519 30.6566499,25.431778 29.3769911,23.2102633 C29.000318,22.5563509 29.000318,22.5563509 27.8702988,20.5946138 C27.3568579,19.7032696 27.3568579,19.7032696 26.9140827,18.9346025 C26.6373003,18.4541025 26.8088823,17.8438511 27.2973218,17.5715678 C27.7857612,17.2992844 28.406096,17.4680774 28.6828784,17.9485774 C29.1256536,18.7172445 29.1256536,18.7172445 29.6390945,19.6085887 C30.7691137,21.5703257 30.7691137,21.5703257 31.1457867,22.2242381 C33.1920026,25.7765118 31.327638,28.9428519 27.1824791,28.9428519 L18.1905699,28.9428534 L18.1905699,28.9428534 Z M24.8431028,11.2826461 L25.3417328,9.45198202 C25.4870365,8.91851592 26.0444338,8.60193343 26.5867146,8.74487524 C27.1289953,8.88781705 27.4508088,9.43615401 27.3055051,9.96962011 L26.189285,14.0676963 C26.1166332,14.3344294 25.9409579,14.5469415 25.7156605,14.6749027 C25.4903632,14.8028638 25.2154437,14.846274 24.9443033,14.7748031 L20.7785132,13.6767269 C20.2362325,13.5337851 19.914419,12.9854481 20.0597227,12.451982 C20.2050264,11.9185159 20.7624237,11.6019334 21.3047044,11.7448752 L23.0353647,12.2010665 L18.9663359,5.13714692 C18.5413176,4.39930628 18.5413176,4.39930628 18.1162994,3.66146564 C16.8396387,1.44515583 15.1403714,1.44720344 13.8648902,3.66146564 L12.4126982,6.18250141 C11.8681262,7.12788982 11.8681262,7.12788982 11.4143162,7.9157135 C11.1375339,8.39621349 10.5171991,8.56500644 10.0287596,8.29272312 C9.54032016,8.02043979 9.36873819,7.41018834 9.64552054,6.92968836 C10.0993305,6.14186468 10.0993305,6.14186468 10.6439025,5.19647627 C11.7330465,3.30569944 11.7330465,3.30569944 12.0960945,2.6754405 C14.1496622,-0.889596374 17.8289734,-0.894029937 19.8850951,2.6754405 C20.3101133,3.41328114 20.3101133,3.41328114 20.7351316,4.15112178 L24.8431028,11.2826461 L24.8431028,11.2826461 L24.8431028,11.2826461 Z M5.68785955,13.8002711 L3.8876195,14.2748031 C3.34533877,14.4177449 2.78794146,14.1011624 2.64263777,13.5676963 C2.49733408,13.0342302 2.81914757,12.4858933 3.36142831,12.3429515 L7.52721838,11.2448752 C7.79835875,11.1734043 8.07327827,11.2168145 8.29857565,11.3447757 C8.52387303,11.4727368 8.69954827,11.685249 8.77220012,11.951982 L9.8884202,16.0500582 C10.0337239,16.5835243 9.7119104,17.1318613 9.16962966,17.2748031 C8.62734893,17.4177449 8.06995162,17.1011624 7.92464793,16.5676963 L7.4449643,14.806592 L4.23570177,20.3779392 C2.93049914,22.6437984 2.93049914,22.6437984 2.60419848,23.2102633 C1.32208931,25.4360317 2.21674199,26.9428519 4.81394603,26.9428519 L9.89145508,26.9428528 C10.4528654,26.9428529 10.9079783,27.3905683 10.9079782,27.942853 C10.9079781,28.4951378 10.452865,28.9428529 9.89145469,28.9428528 L4.81394584,28.9428519 C0.660103912,28.9428519 -1.21527039,25.7842499 0.835402784,22.2242381 C1.16170344,21.6577733 1.16170344,21.6577733 2.46690607,19.3919141 L5.68785955,13.8002711 L5.68785955,13.8002711 Z"></path>
        </g>
    </g>
</svg>