<?xml version="1.0" encoding="UTF-8"?>
<svg width="32px" height="32px" viewBox="0 0 32 32" version="1.1" xmlns="http://www.w3.org/2000/svg" xmlns:xlink="http://www.w3.org/1999/xlink">
    <!-- Generator: sketchtool 40 (33762) - http://www.bohemiancoding.com/sketch -->
    <title>fa-iot-washer</title>
    <desc>Created with sketchtool.</desc>
    <defs></defs>
    <g id="icons" stroke="none" stroke-width="1" fill="none" fill-rule="evenodd">
        <g id="fa-iot-washer" fill="#5E676F">
            <path d="M29.5422474,11.3086464 C27.8778152,4.7248092 21.9223648,0 15,0 C6.71572875,0 0,6.71572875 0,15 C0,23.2842712 6.71572875,30 15,30 C21.9162547,30 27.8753889,25.2821804 29.5422031,18.6913196 C30.9848445,18.0871415 32,16.6614042 32,15 C32,13.339435 30.9853786,11.9130206 29.5422474,11.3086464 L29.5422474,11.3086464 L29.5422474,11.3086464 Z M27.3885635,18.9534701 C25.697672,24.2665953 20.7270318,28 15,28 C7.82029825,28 2,22.1797017 2,15 C2,7.82029825 7.82029825,2 15,2 C20.7318261,2 25.6995921,5.73863357 27.3886547,11.046532 C26.6992689,11.1524867 26.0675335,11.4347788 25.5411185,11.8458825 C24.1852286,7.30790141 19.9789152,4 15,4 C8.92486775,4 4,8.92486775 4,15 C4,21.0751322 8.92486775,26 15,26 C19.9789052,26 24.1852117,22.6921119 25.5411103,18.1541449 C26.0673997,18.5651892 26.6990472,18.8475087 27.3885635,18.9534701 L27.3885635,18.9534701 L27.3885635,18.9534701 Z M24.732663,17.3066317 C23.6912573,21.7174738 19.7289662,25 15,25 C9.4771525,25 5,20.5228475 5,15 C5,9.4771525 9.4771525,5 15,5 C19.7289499,5 23.69123,8.28250361 24.7326523,12.6933228 C24.2712778,13.3452812 24,14.1411522 24,15 C24,15.8585527 24.2712228,16.6545136 24.732663,17.3066317 L24.732663,17.3066317 L24.732663,17.3066317 Z M26,15 C26,13.8967677 26.8974639,13 28,13 C29.1032323,13 30,13.8974639 30,15 C30,16.1032323 29.1025361,17 28,17 C26.8967677,17 26,16.1025361 26,15 L26,15 Z M15,22.5447247 C15,23.0447247 14.2619671,23.0225103 13.9257293,22.9794225 C10.3214673,22.5175477 7.46745417,19.6572016 7.01523409,16.0499283 C6.98381871,15.7993338 6.95268975,15 7.45268973,15 C7.95268972,15 8.03600925,16.1280442 8.03600925,16.1280442 C8.50185782,19.1265527 10.8708617,21.4955566 13.8693702,21.9614051 C13.8693702,21.9614051 15,22.0447247 15,22.5447247 L15,22.5447247 Z"></path>
        </g>
    </g>
</svg>