<?xml version="1.0" encoding="UTF-8"?>
<svg width="32px" height="32px" viewBox="0 0 32 32" version="1.1" xmlns="http://www.w3.org/2000/svg" xmlns:xlink="http://www.w3.org/1999/xlink">
    <!-- Generator: sketchtool 40 (33762) - http://www.bohemiancoding.com/sketch -->
    <title>fa-iot-dome-camera</title>
    <desc>Created with sketchtool.</desc>
    <defs></defs>
    <g id="icons" stroke="none" stroke-width="1" fill="none" fill-rule="evenodd">
        <g transform="translate(-152.000000, -152.000000)" id="fa-iot-dome-camera" fill="#5E676F">
            <path d="M158,173 L158,167.007496 C158,161.479876 162.476449,157 168,157 C173.525302,157 178,161.475708 178,167.007496 L178,173 L158,173 L158,173 L158,173 Z M179,174 L179.999981,174 C181.103225,174 182,174.897465 182,176 C182,177.102917 181.102051,178 179.999981,178 L156.000019,178 C154.896775,178 154,177.102535 154,176 C154,174.897083 154.897949,174 156.000019,174 L157,174 L179,174 L179,174 Z M152,176 C152,178.20676 153.791861,180 156.000019,180 L179.999981,180 C182.206189,180 184,178.207918 184,176 C184,173.79324 182.208139,172 179.999981,172 L180,167.007496 C180,160.371239 174.629973,155 168,155 C161.371537,155 156,160.375649 156,167.007496 L156.000019,172 C153.793811,172 152,173.792082 152,176 L152,176 Z M174.5,171 C173.671573,171 173,170.328427 173,169.5 C173,168.671573 173.671573,168 174.5,168 C175.328427,168 176,168.671573 176,169.5 C176,170.328427 175.328427,171 174.5,171 L174.5,171 Z M174.5,170 C174.223858,170 174,169.776142 174,169.5 C174,169.223858 174.223858,169 174.5,169 C174.776142,169 175,169.223858 175,169.5 C175,169.776142 174.776142,170 174.5,170 L174.5,170 Z M168,171 C165.238576,171 163,168.761424 163,166 C163,163.238576 165.238576,161 168,161 C170.761424,161 173,163.238576 173,166 C173,168.761424 170.761424,171 168,171 L168,171 Z M168,170 C170.209139,170 172,168.209139 172,166 C172,163.790861 170.209139,162 168,162 C165.790861,162 164,163.790861 164,166 C164,168.209139 165.790861,170 168,170 L168,170 Z M168,168 C166.895431,168 166,167.104569 166,166 C166,164.895431 166.895431,164 168,164 C169.104569,164 170,164.895431 170,166 C170,167.104569 169.104569,168 168,168 L168,168 Z M168,167 C168.552285,167 169,166.552285 169,166 C169,165.447715 168.552285,165 168,165 C167.447715,165 167,165.447715 167,166 C167,166.552285 167.447715,167 168,167 L168,167 Z"></path>
        </g>
    </g>
</svg>