<?xml version="1.0" encoding="UTF-8"?>
<svg width="1792px" height="1792px" viewBox="0 0 1792 1792" version="1.1" xmlns="http://www.w3.org/2000/svg" xmlns:xlink="http://www.w3.org/1999/xlink">
    <!-- Generator: sketchtool 40 (33762) - http://www.bohemiancoding.com/sketch -->
    <title>fa-iot-recycling</title>
    <desc>Created with sketchtool.</desc>
    <defs></defs>
    <g id="icons" stroke="none" stroke-width="1" fill="none" fill-rule="evenodd">
        <g id="fa-iot-recycling" fill="#5E676F">
            <path d="M1020.77242,1624.14188 L1094.52243,1696.69311 C1116.79899,1718.60756 1116.79899,1754.13791 1094.52243,1776.05237 C1072.24588,1797.96682 1036.12844,1797.96682 1013.85189,1776.05237 L842.723831,1607.70595 C831.585553,1596.74872 826.016415,1582.38752 826.016415,1568.02632 C826.016415,1553.66512 831.585553,1539.30392 842.723831,1528.34669 L1013.85189,1360.00027 C1036.12844,1338.08582 1072.24588,1338.08582 1094.52243,1360.00027 C1116.79899,1381.91473 1116.79899,1417.44508 1094.52243,1439.35954 L1020.77224,1511.91094 L1525.35764,1511.91085 C1670.38467,1511.91085 1720.31238,1427.11622 1648.50372,1302.45488 C1627.36653,1265.76028 1627.36653,1265.76028 1563.95497,1155.67647 C1535.14299,1105.65827 1535.14299,1105.65827 1510.29645,1062.52416 C1494.76468,1035.56067 1504.39308,1001.31613 1531.80209,986.036819 C1559.2111,970.757511 1594.02149,980.229408 1609.55326,1007.19289 C1634.3998,1050.32701 1634.3998,1050.32701 1663.21178,1100.34521 C1726.62334,1210.42901 1726.62334,1210.42901 1747.76052,1247.12361 C1862.58489,1446.46113 1757.96519,1624.14179 1525.35765,1624.14179 L1020.77242,1624.14188 L1020.77242,1624.14188 Z M1394.08244,633.131012 L1422.0633,530.402432 C1430.21708,500.46673 1461.4957,482.701554 1491.92604,490.722802 C1522.35638,498.744049 1540.41509,529.514236 1532.26131,559.449938 L1469.62409,789.415419 C1465.5472,804.38327 1455.6891,816.30849 1443.04643,823.48909 C1430.40376,830.669691 1414.97652,833.105673 1399.76135,829.09505 L1165.99608,767.475985 C1135.56574,759.454738 1117.50702,728.684551 1125.66081,698.748848 C1133.81459,668.813146 1165.0932,651.04797 1195.52354,659.069218 L1292.64036,684.668603 C1203.88679,530.590538 1184.96606,497.743744 1064.30489,288.273424 C1040.45479,246.869148 1040.45479,246.869148 1016.60469,205.464873 C944.964273,81.0956014 849.609085,81.2105043 778.034855,205.464873 L696.544418,346.933985 C665.985505,399.984902 665.985505,399.984902 640.519743,444.193999 C624.987971,471.157483 590.177589,480.629379 562.768579,465.350072 C535.359569,450.070764 525.731165,415.826216 541.262938,388.862733 C566.728699,344.653635 566.728699,344.653635 597.287613,291.602718 C658.40544,185.500884 658.40544,185.500884 678.778049,150.133606 C794.014975,-49.9201204 1000.48126,-50.1689119 1115.8615,150.133606 C1139.7116,191.537882 1139.7116,191.537882 1163.5617,232.942158 L1394.08244,633.131012 L1394.08244,633.131012 L1394.08244,633.131012 Z M319.176923,774.408726 L218.155603,801.037314 C187.725264,809.058561 156.446651,791.293385 148.292866,761.357683 C140.139081,731.421981 158.197797,700.651794 188.628136,692.630546 L422.393412,631.011482 C437.608582,627.000858 453.03582,629.43684 465.678489,636.617441 C478.321158,643.798042 488.179258,655.723261 492.25615,670.691112 L554.893367,900.656593 C563.047152,930.592295 544.988436,961.362483 514.558097,969.38373 C484.127757,977.404977 452.849144,959.639801 444.695359,929.704099 L417.777686,830.878896 L237.688404,1143.51768 C164.446342,1270.66744 164.446342,1270.66744 146.135827,1302.45488 C74.1896657,1427.35493 124.393523,1511.91085 270.136854,1511.91085 L555.06367,1511.9109 C586.567476,1511.91091 612.106352,1537.03467 612.106346,1568.02639 C612.10634,1599.0181 586.567455,1624.14185 555.063649,1624.14185 L270.136843,1624.14179 C37.0420426,1624.14179 -68.1954713,1446.89535 46.8790216,1247.12361 C65.189537,1215.33617 65.189537,1215.33617 138.431599,1088.18641 L319.176923,774.408726 L319.176923,774.408726 Z"></path>
        </g>
    </g>
</svg>