<?xml version="1.0" encoding="UTF-8"?>
<svg width="32px" height="32px" viewBox="0 0 32 32" version="1.1" xmlns="http://www.w3.org/2000/svg" xmlns:xlink="http://www.w3.org/1999/xlink">
    <!-- Generator: sketchtool 40 (33762) - http://www.bohemiancoding.com/sketch -->
    <title>fa-iot-tv</title>
    <desc>Created with sketchtool.</desc>
    <defs></defs>
    <g id="icons" stroke="none" stroke-width="1" fill="none" fill-rule="evenodd">
        <g id="fa-iot-tv" fill="#5E676F">
            <path d="M22.2592476,26 C22.7310354,26.3457279 22.9798417,26.9999998 22.9798417,26.9999998 L18.5,26.9999998 L9.0201583,26.9999998 C9.0201583,26.9999998 9.26896457,26.3457279 9.74075244,26 L22.2592476,26 L22.2592476,26 L22.2592476,26 Z M24.7186422,25.9999995 C25.3190107,27.4267177 24.974539,29 23.5312361,29 L18,28.9999999 L8.46876392,29 C7.02546098,29 6.68098927,27.4267177 7.28135775,25.9999995 L2.99610022,26 C1.34139976,26 0,24.6544098 0,22.991212 L0,8.00878799 C0,6.34708027 1.33425951,5 2.99610022,5 L29.0038998,5 C30.6586002,5 32,6.34559019 32,8.00878799 L32,22.991212 C32,24.6529197 30.6657405,26 29.0038998,26 L24.718639,26 L24.7186422,25.9999995 L24.7186422,25.9999995 Z M2,8.00878799 L2,22.991212 C2,23.5510607 2.44719913,24 2.99610022,24 L29.0038998,24 C29.5560669,24 30,23.5534518 30,22.991212 L30,8.00878799 C30,7.44893928 29.5528009,7 29.0038998,7 L2.99610022,7 C2.44393314,7 2,7.44654819 2,8.00878799 L2,8.00878799 Z M3,9.99188419 C3,8.89179693 3.89497885,8 4.99700466,8 L27.0029953,8 C28.1059106,8 29,8.89339733 29,9.99188419 L29,21.0081158 C29,22.1082031 28.1050211,23 27.0029953,23 L4.99700466,23 C3.89408944,23 3,22.1066027 3,21.0081158 L3,9.99188419 L3,9.99188419 Z M4,9.99188419 L4,21.0081158 C4,21.5544196 4.44647802,22 4.99700466,22 L27.0029953,22 C27.5536861,22 28,21.5549674 28,21.0081158 L28,9.99188419 C28,9.44558037 27.553522,9 27.0029953,9 L4.99700466,9 C4.44631387,9 4,9.44503258 4,9.99188419 L4,9.99188419 Z"></path>
        </g>
    </g>
</svg>