<?xml version="1.0" encoding="UTF-8"?>
<svg width="33px" height="33px" viewBox="0 0 33 33" version="1.1" xmlns="http://www.w3.org/2000/svg" xmlns:xlink="http://www.w3.org/1999/xlink">
    <!-- Generator: sketchtool 40 (33762) - http://www.bohemiancoding.com/sketch -->
    <title>fa-iot-key</title>
    <desc>Created with sketchtool.</desc>
    <defs></defs>
    <g id="icons" stroke="none" stroke-width="1" fill="none" fill-rule="evenodd">
        <g transform="translate(-255.000000, -48.000000)" id="fa-iot-key" fill="#5E676F">
            <path d="M278.4055,49.0008616 C277.83153,48.4268922 276.812676,48.0046669 276.005751,48.004133 L271.989964,48.001476 C271.2077,48.0009584 270.193881,48.3705005 269.589688,48.8751161 L265.059018,52.6590874 C264.341792,53.258108 263.978323,54.3786893 264.203677,55.2825049 L264.939444,58.2333968 C265.389316,60.0376672 264.666864,62.7028151 263.366511,64.0366606 L256.272123,71.313778 L255.987191,71.6060486 L255.988165,72.0142239 L255.995307,75.0070831 L255.996292,75.4198984 L256.288197,75.7118037 L260.288196,79.7118033 L260.580102,80.0037087 L260.992917,80.0046937 L263.985776,80.0118351 L264.40798,80.0128425 L264.703156,79.710969 L271.807266,72.4456746 C273.126298,71.0967148 275.809781,70.2218607 277.677362,70.5356569 L279.786783,70.8900879 C280.616322,71.0294695 281.692785,70.735566 282.341068,70.1941267 L286.871738,66.4101559 C287.521454,65.8675194 287.999079,64.8491781 287.998524,64.010036 L287.995866,59.9942485 C287.995328,59.1802059 287.577873,58.1732354 286.999138,57.5944999 L278.4055,49.0008616 Z M257.993623,74.29927 L257.988159,72.0094517 L264.79859,65.43278 C266.582427,63.6029979 267.497667,60.226647 266.880032,57.7495363 L266.144265,54.7986444 C266.103996,54.6371406 266.212996,54.3010924 266.341069,54.1941272 L270.871738,50.4101558 C271.116957,50.2053514 271.676846,50.0012693 271.988641,50.0014756 L276.004428,50.0041325 C276.281495,50.0043159 276.792147,50.2159365 276.991286,50.4150752 L285.584924,59.0087134 C285.788895,59.2126846 285.995679,59.7114812 285.995867,59.9955719 L285.998524,64.0113594 C285.998686,64.2562096 285.784858,64.7121122 285.589688,64.875116 L281.059018,68.6590868 C280.857889,68.8270673 280.370516,68.9601333 280.118183,68.9177356 L278.008762,68.5633046 C275.49542,68.1410057 272.154032,69.2303464 270.377279,71.0474125 L263.990549,78.0118408 L261.70073,78.0063769 L261.70073,78.0063769 L270.353553,69.3535534 L269.646447,68.6464466 L260.642942,77.6499516 L258.350048,75.3570584 L267.353553,66.3535534 L266.646447,65.6464466 L257.993623,74.29927 L257.993623,74.29927 Z M274.363961,55.4852814 C275.14501,54.7042328 276.405064,54.6979567 277.196574,55.4894668 L279.309523,57.6024163 C280.092883,58.3857764 280.100202,59.6485349 279.313708,60.4350288 C278.53266,61.2160774 277.272606,61.2223535 276.481096,60.4308434 L274.368146,58.3178939 C273.584786,57.5345338 273.577467,56.2717753 274.363961,55.4852814 Z M275.071068,56.1923882 C274.677871,56.585585 274.67964,57.2151735 275.075253,57.6107871 L277.188203,59.7237367 C277.586212,60.1217458 278.213098,60.1214256 278.606602,59.7279221 C278.999799,59.3347252 278.99803,58.7051367 278.602416,58.3095231 L276.489467,56.1965736 C276.091458,55.7985644 275.464571,55.7988846 275.071068,56.1923882 Z"></path>
        </g>
    </g>
</svg>