<?xml version="1.0" encoding="UTF-8"?>
<svg width="1792px" height="1792px" viewBox="0 0 1792 1792" version="1.1" xmlns="http://www.w3.org/2000/svg" xmlns:xlink="http://www.w3.org/1999/xlink">
    <!-- Generator: sketchtool 40 (33762) - http://www.bohemiancoding.com/sketch -->
    <title>fa-iot-doorbell</title>
    <desc>Created with sketchtool.</desc>
    <defs></defs>
    <g id="icons" stroke="none" stroke-width="1" fill="none" fill-rule="evenodd">
        <g id="fa-iot-doorbell" fill="#5E676F">
            <path d="M224.461888,224.700811 C224.461888,100.60198 324.588347,0 448.365596,0 L1347.32951,0 C1470.98811,0 1571.23322,100.392123 1571.23322,224.700811 L1571.23322,1570.99429 C1571.23322,1695.09312 1471.10676,1795.6951 1347.32951,1795.6951 L448.365596,1795.6951 C324.706993,1795.6951 224.461888,1695.30298 224.461888,1570.99429 L224.461888,224.700811 Z M336.692832,224.700811 L336.692832,1570.99429 C336.692832,1633.32001 386.69135,1683.46416 448.365596,1683.46416 L1347.32951,1683.46416 C1408.98365,1683.46416 1459.00227,1633.24909 1459.00227,1570.99429 L1459.00227,224.700811 C1459.00227,162.375089 1409.00375,112.230944 1347.32951,112.230944 L448.365596,112.230944 C386.711456,112.230944 336.692832,162.446015 336.692832,224.700811 Z M897.847552,953.963024 C711.897235,953.963024 561.15472,803.220508 561.15472,617.270192 C561.15472,431.319875 711.897235,280.57736 897.847552,280.57736 C1083.79787,280.57736 1234.54038,431.319875 1234.54038,617.270192 C1234.54038,803.220508 1083.79787,953.963024 897.847552,953.963024 Z M897.847552,897.847552 C1052.80615,897.847552 1178.42491,772.228789 1178.42491,617.270192 C1178.42491,462.311595 1052.80615,336.692832 897.847552,336.692832 C742.888955,336.692832 617.270192,462.311595 617.270192,617.270192 C617.270192,772.228789 742.888955,897.847552 897.847552,897.847552 Z M729.501136,1150.36718 C729.501136,1134.87132 742.060083,1122.30944 757.556227,1122.30944 L1038.13888,1122.30944 C1053.63328,1122.30944 1066.19397,1134.86791 1066.19397,1150.36718 C1066.19397,1165.86304 1053.63502,1178.42491 1038.13888,1178.42491 L757.556227,1178.42491 C742.061828,1178.42491 729.501136,1165.86644 729.501136,1150.36718 Z M617.270192,1262.59812 C617.270192,1247.10226 629.827451,1234.54038 645.325996,1234.54038 L1150.36911,1234.54038 C1165.8639,1234.54038 1178.42491,1247.09885 1178.42491,1262.59812 C1178.42491,1278.09398 1165.86765,1290.65586 1150.36911,1290.65586 L645.325996,1290.65586 C629.831203,1290.65586 617.270192,1278.09739 617.270192,1262.59812 Z M617.270192,1374.82906 C617.270192,1359.3332 629.827451,1346.77133 645.325996,1346.77133 L1150.36911,1346.77133 C1165.8639,1346.77133 1178.42491,1359.3298 1178.42491,1374.82906 C1178.42491,1390.32492 1165.86765,1402.8868 1150.36911,1402.8868 L645.325996,1402.8868 C629.831203,1402.8868 617.270192,1390.32833 617.270192,1374.82906 Z M729.501136,1487.06001 C729.501136,1471.56415 742.060083,1459.00227 757.556227,1459.00227 L1038.13888,1459.00227 C1053.63328,1459.00227 1066.19397,1471.56074 1066.19397,1487.06001 C1066.19397,1502.55587 1053.63502,1515.11774 1038.13888,1515.11774 L757.556227,1515.11774 C742.061828,1515.11774 729.501136,1502.55927 729.501136,1487.06001 Z M729.501136,617.270192 C729.501136,673.385664 785.616604,673.385659 785.616605,617.270192 C785.616606,561.154724 841.73208,505.039248 897.847552,505.039248 C953.963024,505.039248 953.963024,448.923775 897.847552,448.923776 C813.674344,448.923775 729.501136,533.096984 729.501136,617.270192 Z"></path>
        </g>
    </g>
</svg>