<?xml version="1.0" encoding="UTF-8"?>
<svg width="32px" height="32px" viewBox="0 0 32 32" version="1.1" xmlns="http://www.w3.org/2000/svg" xmlns:xlink="http://www.w3.org/1999/xlink">
    <!-- Generator: sketchtool 40 (33762) - http://www.bohemiancoding.com/sketch -->
    <title>fa-iot-drop</title>
    <desc>Created with sketchtool.</desc>
    <defs></defs>
    <g id="icons" stroke="none" stroke-width="1" fill="none" fill-rule="evenodd">
        <g id="fa-iot-drop" fill="#5E676F">
            <path d="M4,19.8218926 C4,13.5591132 9.31149107,10.7825625 15.0029824,1.50962338 C15.5,0.821892594 16.5,0.821892594 17.0240493,1.56037588 C22.7239959,10.8641354 28,13.5677355 28,19.8218926 C28,26.4493096 22.627417,31.8218926 16,31.8218926 C9.372583,31.8218926 4,26.4493096 4,19.8218926 Z M14.9662304,4.83492323 C12.6849824,7.76992408 7.55258291,14.9708615 7.43611882,15.1598952 C6.44520133,16.7682604 6,18.1654906 6,19.8218926 C6,25.3447401 10.4771525,29.8218926 16,29.8218926 C21.5228475,29.8218926 26,25.3447401 26,19.8218926 C26,18.1657026 25.5574243,16.7775864 24.5697394,15.1792468 C24.4844847,15.0412819 19.3264043,7.79270957 17.0502563,4.84024881 C16.4935872,4.11817649 15.5249676,4.11606479 14.9662304,4.83492323 Z M16,27.3666173 C16,27.8666172 15.2619671,27.8444029 14.9257293,27.8013151 C11.3214673,27.3394403 8.46745417,24.4790942 8.01523409,20.8718209 C7.98381871,20.6212264 7.95268975,19.8218926 8.45268973,19.8218926 C8.95268972,19.8218926 9.03600925,20.9499368 9.03600925,20.9499368 C9.50185782,23.9484453 11.8708617,26.3174492 14.8693702,26.7832977 C14.8693702,26.7832977 16,26.8666173 16,27.3666173 Z"></path>
        </g>
    </g>
</svg>