<?xml version="1.0" encoding="UTF-8"?>
<svg width="1792px" height="1792px" viewBox="0 0 1792 1792" version="1.1" xmlns="http://www.w3.org/2000/svg" xmlns:xlink="http://www.w3.org/1999/xlink">
    <!-- Generator: sketchtool 40 (33762) - http://www.bohemiancoding.com/sketch -->
    <title>fa-iot-lock-b</title>
    <desc>Created with sketchtool.</desc>
    <defs></defs>
    <g id="icons" stroke="none" stroke-width="1" fill="none" fill-rule="evenodd">
        <g id="fa-iot-lock-b" fill="#5E676F">
            <path d="M280.57736,1066.52273 L280.57736,1346.77133 C280.57736,1594.40264 481.65394,1795.6951 729.384437,1795.6951 L954.079723,1795.6951 C1201.86599,1795.6951 1402.8868,1594.65989 1402.8868,1346.77133 L1402.8868,1066.52273 C1402.8868,973.39266 1327.72158,897.847552 1234.81595,897.847552 L448.648209,897.847552 C355.732375,897.847552 280.57736,973.424187 280.57736,1066.52273 Z M392.808304,1066.52273 C392.808304,1035.26751 417.856798,1010.0785 448.648209,1010.0785 L1234.81595,1010.0785 C1265.61113,1010.0785 1290.65586,1035.2498 1290.65586,1066.52273 L1290.65586,1346.77133 C1290.65586,1532.67825 1139.88075,1683.46416 954.079723,1683.46416 L729.384437,1683.46416 C543.664354,1683.46416 392.808304,1532.44614 392.808304,1346.77133 L392.808304,1066.52273 Z M561.15472,392.64343 C561.15472,237.922315 687.005286,112.230944 841.73208,112.230944 C996.662461,112.230944 1122.30944,237.840258 1122.30944,392.64343 L1122.30944,561.15472 C1122.30944,561.15472 1122.30944,617.270192 1178.42491,617.270192 C1234.54038,617.270192 1234.54038,561.15472 1234.54038,561.15472 L1234.54038,392.64343 C1234.54038,175.849286 1058.63837,0 841.73208,0 C625.053626,0 448.923776,175.907054 448.923776,392.64343 L448.923776,897.847552 L561.15472,897.847552 L561.15472,392.64343 Z M841.73208,1515.11774 C748.756922,1515.11774 673.385664,1439.74649 673.385664,1346.77133 C673.385664,1253.79617 748.756922,1178.42491 841.73208,1178.42491 C934.707238,1178.42491 1010.0785,1253.79617 1010.0785,1346.77133 C1010.0785,1439.74649 934.707238,1515.11774 841.73208,1515.11774 Z M841.73208,1459.00227 C903.715519,1459.00227 953.963024,1408.75477 953.963024,1346.77133 C953.963024,1284.78789 903.715519,1234.54038 841.73208,1234.54038 C779.748641,1234.54038 729.501136,1284.78789 729.501136,1346.77133 C729.501136,1408.75477 779.748641,1459.00227 841.73208,1459.00227 Z"></path>
        </g>
    </g>
</svg>