<?xml version="1.0" encoding="UTF-8"?>
<svg width="1792px" height="1792px" viewBox="0 0 1792 1792" version="1.1" xmlns="http://www.w3.org/2000/svg" xmlns:xlink="http://www.w3.org/1999/xlink">
    <!-- Generator: sketchtool 40 (33762) - http://www.bohemiancoding.com/sketch -->
    <title>fa-iot-air-cond-out</title>
    <desc>Created with sketchtool.</desc>
    <defs></defs>
    <g id="icons" stroke="none" stroke-width="1" fill="none" fill-rule="evenodd">
        <g id="fa-iot-air-cond-out" fill="#5E676F">
            <path d="M1739.57963,1070.98358 L1739.57963,724.71152 L1739.57963,724.71152 C1772.27229,713.156323 1795.6951,681.977471 1795.6951,645.327928 C1795.6951,608.678385 1772.27229,577.499533 1739.57963,565.944336 L1739.57963,392.311962 C1739.57963,299.523634 1664.39064,224.461888 1571.60989,224.461888 L167.969738,224.461888 C75.5153572,224.461888 0,299.706437 0,392.311962 L0,1403.38314 C0,1496.17147 75.1889939,1571.23322 167.969738,1571.23322 L1571.60989,1571.23322 C1664.06427,1571.23322 1739.57963,1495.98867 1739.57963,1403.38314 L1739.57963,1229.75077 C1772.27229,1218.19557 1795.6951,1187.01672 1795.6951,1150.36718 C1795.6951,1113.71763 1772.27229,1082.53878 1739.57963,1070.98358 L1739.57963,1070.98358 Z M455.881692,1290.65586 C404.557068,1262.17586 359.401026,1223.92883 322.923725,1178.42491 L224.461888,1178.42491 L224.461888,1122.30944 L284.519896,1122.30944 C264.42609,1087.57324 248.852949,1049.89477 238.604949,1010.0785 L224.461888,1010.0785 L224.461888,953.963024 L227.935085,953.963024 L227.935085,953.963024 C225.642744,935.579918 224.461888,916.851637 224.461888,897.847552 C224.461888,878.843467 225.642744,860.115185 227.935085,841.73208 L224.461888,841.73208 L224.461888,785.616608 L238.604949,785.616608 C248.852949,745.800336 264.42609,708.121863 284.519896,673.385664 L284.519896,673.385664 L224.461888,673.385664 L224.461888,617.270192 L322.923725,617.270192 C359.401026,571.766277 404.557068,533.519243 455.881692,505.039248 L224.461888,505.039248 L224.461888,448.923776 L1122.30944,448.923776 L1122.30944,505.039248 L890.889636,505.039248 L890.889636,505.039248 C942.21426,533.519243 987.370302,571.766277 1023.8476,617.270192 L1122.30944,617.270192 L1122.30944,673.385664 L1062.25143,673.385664 C1082.34524,708.121863 1097.91838,745.800336 1108.16638,785.616608 L1108.16638,785.616608 L1122.30944,785.616608 L1122.30944,841.73208 L1118.83624,841.73208 C1121.12858,860.115185 1122.30944,878.843467 1122.30944,897.847552 C1122.30944,916.851637 1121.12858,935.579918 1118.83624,953.963024 L1122.30944,953.963024 L1122.30944,1010.0785 L1108.16638,1010.0785 C1097.91838,1049.89477 1082.34524,1087.57324 1062.25143,1122.30944 L1062.25143,1122.30944 L1122.30944,1122.30944 L1122.30944,1178.42491 L1023.8476,1178.42491 C987.370302,1223.92883 942.21426,1262.17586 890.889636,1290.65586 L1122.30944,1290.65586 L1122.30944,1346.77133 L224.461888,1346.77133 L224.461888,1290.65586 L455.881692,1290.65586 L455.881692,1290.65586 Z M995.786487,1122.30944 C1019.42842,1088.41529 1037.86206,1050.61827 1049.92729,1010.0785 L1049.92729,1010.0785 L296.844039,1010.0785 C308.909266,1050.61827 327.342908,1088.41529 350.984841,1122.30944 L284.519896,1122.30944 L995.786487,1122.30944 L995.786487,1122.30944 Z M948.294392,1178.42491 C877.446527,1247.85025 780.414988,1290.65586 673.385664,1290.65586 C566.356339,1290.65586 469.324801,1247.85025 398.476935,1178.42491 L322.923725,1178.42491 L948.294392,1178.42491 L948.294392,1178.42491 Z M1062.21601,953.963024 C1064.83755,935.635543 1066.19397,916.899952 1066.19397,897.847552 C1066.19397,878.795152 1064.83755,860.05956 1062.21601,841.73208 L1062.21601,841.73208 L284.555322,841.73208 C281.933781,860.05956 280.57736,878.795152 280.57736,897.847552 C280.57736,916.899952 281.933781,935.635543 284.555322,953.963024 L1062.21601,953.963024 L1062.21601,953.963024 L1062.21601,953.963024 Z M1049.92729,785.616608 C1037.86206,745.076833 1019.42842,707.27981 995.786487,673.385664 L995.786487,673.385664 L350.984841,673.385664 C327.342908,707.27981 308.909266,745.076833 296.844039,785.616608 L1049.92729,785.616608 L1049.92729,785.616608 L1049.92729,785.616608 Z M948.294392,617.270192 C877.446527,547.844858 780.414988,505.039248 673.385664,505.039248 C566.356339,505.039248 469.324801,547.844858 398.476935,617.270192 L948.294392,617.270192 L948.294392,617.270192 Z M112.230944,392.311962 C112.230944,361.780314 137.408717,336.692832 167.969738,336.692832 L1571.60989,336.692832 C1602.44971,336.692832 1627.34869,361.549668 1627.34869,392.311962 L1627.34869,1403.38314 C1627.34869,1433.91479 1602.17091,1459.00227 1571.60989,1459.00227 L167.969738,1459.00227 C137.129918,1459.00227 112.230944,1434.14544 112.230944,1403.38314 L112.230944,392.311962 L112.230944,392.311962 Z M1178.42491,560.699297 C1178.42491,498.967381 1228.83123,448.923776 1290.53875,448.923776 L1403.00391,448.923776 C1464.92267,448.923776 1515.11774,499.057189 1515.11774,560.699297 L1515.11774,1178.88033 C1515.11774,1240.61225 1464.71142,1290.65586 1403.00391,1290.65586 L1290.53875,1290.65586 C1228.61999,1290.65586 1178.42491,1240.52244 1178.42491,1178.88033 L1178.42491,560.699297 L1178.42491,560.699297 Z M1234.54038,560.699297 L1234.54038,1178.88033 C1234.54038,1209.5307 1259.61185,1234.54038 1290.53875,1234.54038 L1403.00391,1234.54038 C1433.84684,1234.54038 1459.00227,1209.49346 1459.00227,1178.88033 L1459.00227,560.699297 C1459.00227,530.048928 1433.93081,505.039248 1403.00391,505.039248 L1290.53875,505.039248 C1259.69582,505.039248 1234.54038,530.086176 1234.54038,560.699297 L1234.54038,560.699297 Z"></path>
        </g>
    </g>
</svg>