<?xml version="1.0" encoding="UTF-8"?>
<svg width="32px" height="32px" viewBox="0 0 32 32" version="1.1" xmlns="http://www.w3.org/2000/svg" xmlns:xlink="http://www.w3.org/1999/xlink">
    <!-- Generator: sketchtool 40 (33762) - http://www.bohemiancoding.com/sketch -->
    <title>fa-iot-lock-b</title>
    <desc>Created with sketchtool.</desc>
    <defs></defs>
    <g id="icons" stroke="none" stroke-width="1" fill="none" fill-rule="evenodd">
        <g id="fa-iot-lock-b" fill="#5E676F">
            <path d="M5,19.0058587 L5,24 C5,28.4128883 8.58326452,32 12.9979204,32 L17.0020796,32 C21.4177293,32 25,28.4174727 25,24 L25,19.0058587 C25,17.3462438 23.6605259,16 22.0049107,16 L7.99508929,16 C6.33929222,16 5,17.3468057 5,19.0058587 Z M7,19.0058587 C7,18.4488783 7.44637411,18 7.99508929,18 L22.0049107,18 C22.553693,18 23,18.4485626 23,19.0058587 L23,24 C23,27.3129353 20.3131277,30 17.0020796,30 L12.9979204,30 C9.68831474,30 7,27.3087989 7,24 L7,19.0058587 Z M10,6.99706188 C10,4.23987016 12.2427071,2 15,2 C17.7609209,2 20,4.23840787 20,6.99706188 L20,10 C20,10 20,11 21,11 C22,11 22,10 22,10 L22,6.99706188 C22,3.13370412 18.8653562,0 15,0 C11.1387039,0 8,3.13473357 8,6.99706188 L8,16 L10,16 L10,6.99706188 Z M15,27 C13.3431458,27 12,25.6568542 12,24 C12,22.3431458 13.3431458,21 15,21 C16.6568542,21 18,22.3431458 18,24 C18,25.6568542 16.6568542,27 15,27 Z M15,26 C16.1045695,26 17,25.1045695 17,24 C17,22.8954305 16.1045695,22 15,22 C13.8954305,22 13,22.8954305 13,24 C13,25.1045695 13.8954305,26 15,26 Z"></path>
        </g>
    </g>
</svg>