<?xml version="1.0" encoding="UTF-8"?>
<svg width="1792px" height="1792px" viewBox="0 0 1792 1792" version="1.1" xmlns="http://www.w3.org/2000/svg" xmlns:xlink="http://www.w3.org/1999/xlink">
    <!-- Generator: sketchtool 40 (33762) - http://www.bohemiancoding.com/sketch -->
    <title>fa-iot-plug</title>
    <desc>Created with sketchtool.</desc>
    <defs></defs>
    <g id="icons" stroke="none" stroke-width="1" fill="none" fill-rule="evenodd">
        <g id="fa-iot-plug" fill="#5E676F">
            <path d="M617.270192,1290.65586 C582.364785,1183.55972 533.150991,1129.00508 461.253125,1072.94192 C440.038996,1056.39997 417.840405,1041.66763 389.338676,1024.62565 C388.822209,1024.31684 333.784545,992.203304 319.196953,982.9793 C275.065411,955.074109 247.395985,929.683342 230.164098,894.4363 L224.461888,882.772689 L224.461888,869.789816 L224.461888,561.708151 C224.461888,468.516781 299.418943,392.808304 392.311962,392.808304 L561.15472,392.808304 L561.15472,55.9776887 C561.15472,25.0620649 586.062404,0 617.270192,0 C648.261911,0 673.385664,25.0449748 673.385664,55.9776887 L673.385664,392.808304 L1122.30944,392.808304 L1122.30944,55.9776887 C1122.30944,25.0620649 1147.21712,0 1178.42491,0 C1209.41663,0 1234.54038,25.0449748 1234.54038,55.9776887 L1234.54038,392.808304 L1403.38314,392.808304 C1496.35199,392.808304 1571.23322,468.132105 1571.23322,561.708151 L1571.23322,869.789816 L1571.23322,882.772689 L1565.53101,894.4363 C1549.53758,927.15013 1523.9254,952.253885 1484.56576,979.367221 C1493.74468,973.044219 1368.80002,1051.87515 1333.09527,1080.7882 C1262.27566,1138.13662 1213.77422,1190.02249 1178.42491,1290.65586 L1178.42491,1402.8868 C1178.42491,1402.8868 1178.42491,1459.00227 1066.19397,1459.00227 L1066.19397,1795.6951 L729.501136,1795.6951 L729.334481,1459.00227 C617.270192,1459.00227 617.270192,1402.8868 617.270192,1402.8868 L617.270192,1290.65586 Z M729.501136,1346.77133 L729.501136,1290.65586 L729.501136,1281.74187 L726.738849,1273.26667 C684.727842,1144.36926 619.394315,1053.93644 530.26558,984.437313 C504.893546,964.653187 479.073872,947.517677 446.934184,928.300464 C444.862932,927.062006 391.766452,896.081113 379.177631,888.120969 C351.094532,870.363505 342.697296,854.013939 336.692832,841.73208 L336.692832,561.708151 C336.692832,530.251007 361.654359,505.039248 392.311962,505.039248 L1403.38314,505.039248 C1434.22002,505.039248 1459.00227,529.967975 1459.00227,561.708151 L1459.00227,841.73208 C1453.26485,853.467706 1445.78448,869.799857 1420.89829,886.942993 C1412.26604,892.889416 1402.56695,899.151135 1388.82161,907.72825 C1388.81349,907.733318 1359.49733,925.907369 1350.49538,931.586943 C1315.91841,953.402476 1289.09809,972.002239 1262.46617,993.568272 C1176.00955,1063.57926 1111.86135,1151.07954 1069.36535,1272.05828 L1066.19397,1281.08666 L1066.19397,1290.65586 L1066.19397,1318.71359 L1066.19397,1346.80541 L729.501136,1346.77133 Z M673.385664,785.616608 L1122.30944,785.616608 L1122.30944,841.73208 L673.385664,841.73208 L673.385664,785.616608 Z M729.501136,897.847552 L1066.19397,897.847552 L1066.19397,953.963024 L729.501136,953.963024 L729.501136,897.847552 Z M729.501136,673.385664 L1066.19397,673.385664 L1066.19397,729.501136 L729.501136,729.501136 L729.501136,673.385664 Z M841.73208,1459.00227 L953.963024,1459.00227 L953.963024,1683.46416 L841.73208,1683.46416 L841.73208,1459.00227 Z"></path>
        </g>
    </g>
</svg>