<?xml version="1.0" encoding="UTF-8"?>
<svg width="32px" height="32px" viewBox="0 0 32 32" version="1.1" xmlns="http://www.w3.org/2000/svg" xmlns:xlink="http://www.w3.org/1999/xlink">
    <!-- Generator: sketchtool 40 (33762) - http://www.bohemiancoding.com/sketch -->
    <title>fa-iot-weather</title>
    <desc>Created with sketchtool.</desc>
    <defs></defs>
    <g id="icons" stroke="none" stroke-width="1" fill="none" fill-rule="evenodd">
        <g transform="translate(-152.000000, -360.000000)" id="fa-iot-weather" fill="#5E676F">
            <path d="M175.795385,379.081439 C175.532268,379.027905 175.266134,379 175,379 C175,378.307446 174.911998,377.635446 174.746566,376.994572 C177.669709,376.86561 180,374.454939 180,371.5 C180,368.462434 177.537566,366 174.5,366 C171.545061,366 169.13439,368.330291 169.005428,371.253434 C168.364554,371.088002 167.692554,371 167,371 C166.688529,371 166.379664,371.018466 166.074675,371.054402 C166.149681,370.877865 166.28842,370.727811 166.522446,370.532205 C166.438716,370.60219 166.889404,370.233183 167.013754,370.1216 C167.435264,369.743363 167.739165,369.341867 167.966252,368.793633 C168.252229,368.103223 168.282697,367.602996 168.196557,366.763981 C168.143569,366.24788 168.144816,366.081076 168.219002,365.883348 C168.267295,365.754633 168.351847,365.627338 168.489592,365.489592 C168.627338,365.351847 168.754633,365.267295 168.883348,365.219002 C169.081076,365.144816 169.24788,365.143569 169.763981,365.196557 C170.602996,365.282697 171.103223,365.252229 171.793633,364.966252 C172.341867,364.739165 172.743363,364.435264 173.1216,364.013754 C173.233183,363.889404 173.60219,363.438716 173.532205,363.522446 C173.867665,363.121097 174.069151,363 174.5,363 C174.930849,363 175.132335,363.121097 175.467795,363.522446 C175.39781,363.438716 175.766817,363.889404 175.8784,364.013754 C176.256637,364.435264 176.658133,364.739165 177.206367,364.966252 C177.896777,365.252229 178.397004,365.282697 179.236019,365.196557 C179.75212,365.143569 179.918924,365.144816 180.116652,365.219002 C180.245367,365.267295 180.372662,365.351847 180.510408,365.489592 C180.648153,365.627338 180.732705,365.754633 180.780998,365.883348 C180.855184,366.081076 180.856431,366.24788 180.803443,366.763981 C180.717303,367.602996 180.747771,368.103223 181.033748,368.793633 C181.260835,369.341867 181.564736,369.743363 181.986246,370.1216 C182.110596,370.233183 182.561284,370.60219 182.477554,370.532205 C182.878903,370.867665 183,371.069151 183,371.5 C183,371.930849 182.878903,372.132335 182.477554,372.467795 C182.561284,372.39781 182.110596,372.766817 181.986246,372.8784 C181.564736,373.256637 181.260835,373.658133 181.033748,374.206367 C180.747771,374.896777 180.717303,375.397004 180.803443,376.236019 C180.856431,376.75212 180.855184,376.918924 180.780998,377.116652 C180.732705,377.245367 180.648153,377.372662 180.510408,377.510408 C180.372662,377.648153 180.245367,377.732705 180.116652,377.780998 C179.918924,377.855184 179.75212,377.856431 179.236019,377.803443 C178.397004,377.717303 177.896777,377.747771 177.206367,378.033748 C176.606987,378.28202 176.221321,378.587849 175.795385,379.081439 Z M176.838602,379.433484 C178.595171,380.269138 180,382.222977 180,384.5 C180,387.537566 177.537566,390 174.5,390 L159,390 C155.134007,390 152,386.865993 152,383 C152,379.134007 156,376 159.5,376 C160.464251,373.66578 162.548902,371.889011 165.010214,371.253746 C165.06489,370.625966 165.340877,370.216488 165.881132,369.764927 C165.814865,369.820315 166.241331,369.471141 166.345884,369.377321 C166.662874,369.092874 166.87719,368.809734 167.042372,368.410949 C167.250979,367.907327 167.272467,367.55455 167.201786,366.866113 C167.132754,366.193733 167.13475,365.92648 167.282733,365.532064 C167.382949,365.264961 167.547011,365.01796 167.782486,364.782486 C168.01796,364.547011 168.264961,364.382949 168.532064,364.282733 C168.92648,364.13475 169.193733,364.132754 169.866113,364.201786 C170.55455,364.272467 170.907327,364.250979 171.410949,364.042372 C171.809734,363.87719 172.092874,363.662874 172.377321,363.345884 C172.471141,363.241331 172.820315,362.814865 172.764927,362.881132 C173.272954,362.27332 173.727715,362 174.5,362 C175.272285,362 175.727046,362.27332 176.235073,362.881132 C176.179685,362.814865 176.528859,363.241331 176.622679,363.345884 C176.907126,363.662874 177.190266,363.87719 177.589051,364.042372 C178.092673,364.250979 178.44545,364.272467 179.133887,364.201786 C179.806267,364.132754 180.07352,364.13475 180.467936,364.282733 C180.735039,364.382949 180.98204,364.547011 181.217514,364.782486 C181.452989,365.01796 181.617051,365.264961 181.717267,365.532064 C181.86525,365.92648 181.867246,366.193733 181.798214,366.866113 C181.727533,367.55455 181.749021,367.907327 181.957628,368.410949 C182.12281,368.809734 182.337126,369.092874 182.654116,369.377321 C182.758669,369.471141 183.185135,369.820315 183.118868,369.764927 C183.72668,370.272954 184,370.727715 184,371.5 C184,372.272285 183.72668,372.727046 183.118868,373.235073 C183.185135,373.179685 182.758669,373.528859 182.654116,373.622679 C182.337126,373.907126 182.12281,374.190266 181.957628,374.589051 C181.749021,375.092673 181.727533,375.44545 181.798214,376.133887 C181.867246,376.806267 181.86525,377.07352 181.717267,377.467936 C181.617051,377.735039 181.452989,377.98204 181.217514,378.217514 C180.98204,378.452989 180.735039,378.617051 180.467936,378.717267 C180.07352,378.86525 179.806267,378.867246 179.133887,378.798214 C178.44545,378.727533 178.092673,378.749021 177.589051,378.957628 C177.285305,379.083444 177.060282,379.226616 176.838602,379.433484 Z M174.5,376.209884 C173.690982,374.036076 171.963924,372.309018 169.790116,371.5 L170,371.5 C170,369.014719 172.014719,367 174.5,367 C176.985281,367 179,369.014719 179,371.5 C179,373.985281 176.985281,376 174.5,376 L174.5,376.209884 Z M161.216179,377.39729 C161.928719,374.819291 164.285017,373 167,373 C170.313708,373 173,375.686292 173,379 C173,379.300171 172.978037,379.597239 172.934622,379.889722 C172.837308,380.545331 173.393127,381.112509 174.05057,381.028477 C174.198585,381.009558 174.348567,381 174.5,381 C176.432997,381 178,382.567003 178,384.5 C178,386.432997 176.432997,388 174.5,388 L159,388 C156.238576,388 154,385.761424 154,383 C154,380.238576 156.238576,378 159,378 C159.354801,378 159.7042,378.036797 160.044617,378.109078 C160.561913,378.218916 161.075297,377.907007 161.216179,377.39729 Z"></path>
        </g>
    </g>
</svg>