<?xml version="1.0" encoding="UTF-8"?>
<svg width="1792px" height="1792px" viewBox="0 0 1792 1792" version="1.1" xmlns="http://www.w3.org/2000/svg" xmlns:xlink="http://www.w3.org/1999/xlink">
    <!-- Generator: sketchtool 40 (33762) - http://www.bohemiancoding.com/sketch -->
    <title>fa-iot-bulb</title>
    <desc>Created with sketchtool.</desc>
    <defs></defs>
    <g id="icons" stroke="none" stroke-width="1" fill="none" fill-rule="evenodd">
        <g id="fa-iot-bulb" fill="#5E676F">
            <path d="M451.669874,1177.75079 C312.313559,1054.37929 224.461888,874.141904 224.461888,673.385664 C224.461888,301.485031 525.946919,0 897.847552,0 C1269.74818,0 1571.23322,301.485031 1571.23322,673.385664 C1571.23322,871.764904 1485.4496,1050.10831 1348.95354,1173.34469 C1283.44021,1232.49384 1256.62385,1476.64228 1191.19345,1629.02285 C1137.38251,1754.34288 1058.77227,1798.03061 899.683361,1794.284 C744.456763,1790.62834 658.028455,1751.49801 604.323629,1632.19851 C536.061161,1480.56077 518.160262,1236.61442 451.669874,1177.75079 L451.669874,1177.75079 Z M336.692832,673.385664 C336.692832,363.46847 587.930358,112.230944 897.847552,112.230944 C1207.76475,112.230944 1459.00227,363.46847 1459.00227,673.385664 C1459.00227,752.170592 1442.7145,828.26984 1412.34654,897.847552 L383.349959,897.847552 C352.987648,828.279721 336.692832,752.179142 336.692832,673.385664 L336.692832,673.385664 Z M586.194238,1178.42491 C570.191569,1142.34863 551.729239,1116.44057 526.063216,1093.71856 C480.252008,1053.16211 441.765382,1005.942 411.708213,953.963024 L411.708213,953.963024 L1383.98655,953.963024 C1354.83887,1004.36556 1317.75867,1050.30323 1273.74362,1090.04252 C1248.02339,1113.26419 1229.19287,1140.34122 1212.33708,1178.42491 L586.194238,1178.42491 L586.194238,1178.42491 L586.194238,1178.42491 Z M622.983037,1290.65586 C626.927004,1305.57442 630.966346,1321.5685 635.184855,1338.76143 C636.559191,1344.36267 650.719879,1403.15385 656.803693,1427.77461 L656.803693,1427.77461 L1172.10094,1298.41633 C1172.82761,1295.79858 1173.55048,1293.21195 1174.26995,1290.65586 L622.983037,1290.65586 L622.983037,1290.65586 L622.983037,1290.65586 Z M705.649531,1583.85895 C693.710454,1556.90484 682.728669,1524.40611 670.987956,1482.07048 L670.987956,1482.07048 L1155.57695,1360.42108 C1149.44159,1384.06158 1140.8329,1417.32821 1137.85638,1428.58844 C1133.03711,1446.81984 1128.48398,1463.47952 1124.10403,1478.81171 L705.64949,1583.85896 L705.649531,1583.85895 L705.649531,1583.85895 Z M736.468477,1633.97891 C767.408003,1667.80938 813.649155,1679.99579 902.325717,1682.08416 C1018.47549,1684.81954 1053.61282,1664.98301 1088.06745,1584.74177 C1093.67783,1571.67577 1099.1122,1557.48345 1104.59894,1541.56483 L736.468477,1633.97891 L736.468477,1633.97891 L736.468477,1633.97891 Z M476.981511,676.040503 C448.923776,676.040503 450.170344,634.62544 452.588236,615.757298 C478.506559,413.502431 639.01623,253.348138 841.440075,227.971595 C855.502301,226.208706 900.357297,224.46189 900.357297,252.519625 C900.357297,280.57736 837.056565,285.252875 837.056565,285.252875 C668.793846,311.394187 535.856075,444.331958 509.714763,612.594677 C509.714763,612.594677 505.039246,676.040503 476.981511,676.040503 L476.981511,676.040503 Z"></path>
        </g>
    </g>
</svg>