<?xml version="1.0" encoding="UTF-8"?>
<svg width="32px" height="32px" viewBox="0 0 32 32" version="1.1" xmlns="http://www.w3.org/2000/svg" xmlns:xlink="http://www.w3.org/1999/xlink">
    <!-- Generator: sketchtool 40 (33762) - http://www.bohemiancoding.com/sketch -->
    <title>fa-iot-drop</title>
    <desc>Created with sketchtool.</desc>
    <defs></defs>
    <g id="icons" stroke="none" stroke-width="1" fill="none" fill-rule="evenodd">
        <g transform="translate(-100.000000, -48.000000)" id="fa-iot-drop" fill="#5E676F">
            <path d="M104,68 C104,61.7372206 109.311491,58.9606699 115.002982,49.6877308 C115.5,49 116.5,49 117.024049,49.7384833 C122.723996,59.0422428 128,61.7458429 128,68 C128,74.627417 122.627417,80 116,80 C109.372583,80 104,74.627417 104,68 Z M114.96623,53.0130306 C112.684982,55.9480315 107.552583,63.1489689 107.436119,63.3380026 C106.445201,64.9463678 106,66.343598 106,68 C106,73.5228475 110.477153,78 116,78 C121.522847,78 126,73.5228475 126,68 C126,66.34381 125.557424,64.9556938 124.569739,63.3573542 C124.484485,63.2193893 119.326404,55.970817 117.050256,53.0183562 C116.493587,52.2962839 115.524968,52.2941722 114.96623,53.0130306 Z M116,75.5447247 C116,76.0447247 115.261967,76.0225103 114.925729,75.9794225 C111.321467,75.5175477 108.467454,72.6572016 108.015234,69.0499283 C107.983819,68.7993338 107.95269,68 108.45269,68 C108.95269,68 109.036009,69.1280442 109.036009,69.1280442 C109.501858,72.1265527 111.870862,74.4955566 114.86937,74.9614051 C114.86937,74.9614051 116,75.0447247 116,75.5447247 Z"></path>
        </g>
    </g>
</svg>