<?xml version="1.0" encoding="UTF-8"?>
<svg width="1792px" height="1792px" viewBox="0 0 1792 1792" version="1.1" xmlns="http://www.w3.org/2000/svg" xmlns:xlink="http://www.w3.org/1999/xlink">
    <!-- Generator: sketchtool 40 (33762) - http://www.bohemiancoding.com/sketch -->
    <title>fa-iot-door-handle</title>
    <desc>Created with sketchtool.</desc>
    <defs></defs>
    <g id="icons" stroke="none" stroke-width="1" fill="none" fill-rule="evenodd">
        <g id="fa-iot-door-handle" fill="#5E676F">
            <path d="M1346.77133,505.039248 L1346.77133,224.317895 C1346.77133,100.91213 1246.29566,0 1122.35265,0 L448.880565,0 C325.047056,0 224.461888,100.60198 224.461888,224.700811 L224.461888,1570.99429 C224.461888,1695.30298 324.937552,1795.6951 448.880565,1795.6951 L1122.35265,1795.6951 C1246.18616,1795.6951 1346.77133,1695.26483 1346.77133,1571.37782 L1346.77133,841.73208 L1515.11179,841.73208 C1608.31221,841.73208 1683.46416,766.443206 1683.46416,673.385664 C1683.46416,580.093444 1608.20582,505.039248 1515.11179,505.039248 L1346.77133,505.039248 Z M1234.54038,841.73208 L1234.54038,1571.37782 C1234.54038,1633.22378 1184.26035,1683.46416 1122.35265,1683.46416 L448.880565,1683.46416 C386.863914,1683.46416 336.692832,1633.26241 336.692832,1570.99429 L336.692832,224.700811 C336.692832,162.600186 387.015786,112.230944 448.880565,112.230944 L1122.35265,112.230944 C1184.12011,112.230944 1234.54038,162.703313 1234.54038,224.317895 L1234.54038,505.039248 L1077.26594,505.039248 C1019.05016,404.40153 910.240489,336.692832 785.616608,336.692832 C599.666291,336.692832 448.923776,487.435347 448.923776,673.385664 C448.923776,859.33598 599.666291,1010.0785 785.616608,1010.0785 C910.240489,1010.0785 1019.05016,942.369798 1077.26593,841.73208 L1234.54038,841.73208 Z M1010.16756,841.73208 C958.383713,910.709086 876.127748,953.963024 785.616608,953.963024 C630.658011,953.963024 505.039248,828.344261 505.039248,673.385664 C505.039248,518.427067 630.658011,392.808304 785.616608,392.808304 C876.147334,392.808304 958.395592,436.080584 1010.16808,505.039219 L785.622566,505.039248 C692.422139,505.039248 617.270192,580.328122 617.270192,673.385664 C617.270192,766.677884 692.528534,841.73208 785.622566,841.73208 L1010.16756,841.73208 Z M785.616608,1459.00227 C692.64145,1459.00227 617.270192,1383.63101 617.270192,1290.65586 C617.270192,1197.6807 692.64145,1122.30944 785.616608,1122.30944 C878.591766,1122.30944 953.963024,1197.6807 953.963024,1290.65586 C953.963024,1383.63101 878.591766,1459.00227 785.616608,1459.00227 Z M785.616608,1402.8868 C847.600047,1402.8868 897.847552,1352.63929 897.847552,1290.65586 C897.847552,1228.67242 847.600047,1178.42491 785.616608,1178.42491 C723.633169,1178.42491 673.385664,1228.67242 673.385664,1290.65586 C673.385664,1352.63929 723.633169,1402.8868 785.616608,1402.8868 Z M729.501136,673.385664 C729.501136,642.265873 754.451357,617.270192 785.622566,617.270192 L1515.11179,617.270192 C1546.29052,617.270192 1571.23322,642.145228 1571.23322,673.385664 C1571.23322,704.505455 1546.28299,729.501136 1515.11179,729.501136 L785.622566,729.501136 C754.443832,729.501136 729.501136,704.6261 729.501136,673.385664 Z"></path>
        </g>
    </g>
</svg>