<?xml version="1.0" encoding="UTF-8"?>
<svg width="1792px" height="1792px" viewBox="0 0 1792 1792" version="1.1" xmlns="http://www.w3.org/2000/svg" xmlns:xlink="http://www.w3.org/1999/xlink">
    <!-- Generator: sketchtool 40 (33762) - http://www.bohemiancoding.com/sketch -->
    <title>fa-iot-power</title>
    <desc>Created with sketchtool.</desc>
    <defs></defs>
    <g id="icons" stroke="none" stroke-width="1" fill="none" fill-rule="evenodd">
        <g id="fa-iot-power" fill="#5E676F">
            <path d="M897.847552,1795.6951 C1393.71506,1795.6951 1795.6951,1393.71506 1795.6951,897.847552 C1795.6951,401.980041 1393.71506,0 897.847552,0 C401.980041,0 0,401.980041 0,897.847552 C0,1393.71506 401.980041,1795.6951 897.847552,1795.6951 L897.847552,1795.6951 Z M897.847552,1683.46416 C463.96348,1683.46416 112.230944,1331.73162 112.230944,897.847552 C112.230944,463.96348 463.96348,112.230944 897.847552,112.230944 C1331.73162,112.230944 1683.46416,463.96348 1683.46416,897.847552 C1683.46416,1331.73162 1331.73162,1683.46416 897.847552,1683.46416 L897.847552,1683.46416 Z M687.837601,993.875673 L683.872004,993.875673 C621.645504,993.875673 597.50756,950.9772 629.683968,898.059252 L924.814304,412.682138 C992.051962,302.101773 1013.58425,311.973358 972.91194,434.724485 L882.432172,707.797085 C862.899369,766.748094 897.526714,813.945332 959.532548,813.945332 L1133.4078,813.945332 L1132.66938,814.668266 L1136.63498,814.668266 C1198.86148,814.668266 1222.99942,857.566739 1190.82302,910.484687 L908.199982,1375.29205 C834.12714,1497.11369 810.372141,1486.1601 855.299508,1350.56699 L938.074812,1100.74685 C957.607616,1041.79585 922.98027,994.598607 860.974437,994.598607 L687.099183,994.598607 L687.837601,993.875673 L687.837601,993.875673 Z"></path>
        </g>
    </g>
</svg>