<?xml version="1.0" encoding="UTF-8"?>
<svg width="1792px" height="1792px" viewBox="0 0 1792 1792" version="1.1" xmlns="http://www.w3.org/2000/svg" xmlns:xlink="http://www.w3.org/1999/xlink">
    <!-- Generator: sketchtool 40 (33762) - http://www.bohemiancoding.com/sketch -->
    <title>fa-iot-temperature</title>
    <desc>Created with sketchtool.</desc>
    <defs></defs>
    <g id="icons" stroke="none" stroke-width="1" fill="none" fill-rule="evenodd">
        <g id="fa-iot-temperature" fill="#5E676F">
            <path d="M561.15472,660.980257 C392.235406,771.118156 280.57736,961.731967 280.57736,1178.42491 C280.57736,1519.33383 556.938638,1795.6951 897.847552,1795.6951 C1238.75647,1795.6951 1515.11774,1519.33383 1515.11774,1178.42491 C1515.11774,961.731967 1403.4597,771.118156 1234.54038,660.980257 L1234.54038,336.618529 C1234.54038,150.498217 1083.79787,0 897.847552,0 C712.275607,0 561.15472,150.709249 561.15472,336.618529 L561.15472,660.980257 L561.15472,660.980257 L561.15472,660.980257 Z M1122.30944,725.882791 C1288.6041,808.524192 1402.8868,980.128475 1402.8868,1178.42491 C1402.8868,1457.35039 1176.77303,1683.46416 897.847552,1683.46416 C618.922077,1683.46416 392.808304,1457.35039 392.808304,1178.42491 C392.808304,980.128475 507.091,808.524192 673.385664,725.882791 L673.385664,336.618529 C673.385664,212.84829 774.103341,112.230944 897.847552,112.230944 C1021.90378,112.230944 1122.30944,212.570973 1122.30944,336.618529 L1122.30944,725.882791 L1122.30944,725.882791 L1122.30944,725.882791 Z M785.616608,773.825551 C623.359341,822.115675 505.039248,972.423856 505.039248,1150.36718 C505.039248,1367.30921 680.905516,1543.17548 897.847552,1543.17548 C1114.78959,1543.17548 1290.65586,1367.30921 1290.65586,1150.36718 C1290.65586,972.423856 1172.33576,822.115675 1010.0785,773.825551 L1010.0785,337.021593 C1010.0785,274.80084 959.830991,224.461888 897.847552,224.461888 C835.431976,224.461888 785.616608,274.856585 785.616608,337.021593 L785.616608,773.825551 L785.616608,773.825551 L785.616608,773.825551 Z M953.963024,818.329596 C1113.20265,845.044943 1234.54038,983.536086 1234.54038,1150.36718 C1234.54038,1336.31749 1083.79787,1487.06001 897.847552,1487.06001 C711.897235,1487.06001 561.15472,1336.31749 561.15472,1150.36718 C561.15472,983.536086 682.492456,845.044943 841.73208,818.329596 L841.73208,337.021593 C841.73208,305.628238 866.643358,280.57736 897.847552,280.57736 C928.825982,280.57736 953.963024,305.779413 953.963024,337.021593 L953.963024,818.329596 L953.963024,818.329596 L953.963024,818.329596 Z M953.963024,1346.77133 C953.963024,1374.82906 897.847552,1374.82906 897.847552,1374.82906 C773.880674,1374.82906 673.385664,1274.33405 673.385664,1150.36718 C673.385664,1150.36718 673.385664,1094.2517 701.4434,1094.2517 C729.501136,1094.2517 729.501136,1129.47983 729.501136,1150.36718 C729.501136,1206.48265 813.674344,1318.71359 897.847552,1318.71359 C937.566079,1318.71359 953.963024,1318.71359 953.963024,1346.77133 L953.963024,1346.77133 Z"></path>
        </g>
    </g>
</svg>