<?xml version="1.0" encoding="UTF-8"?>
<svg width="32px" height="32px" viewBox="0 0 32 32" version="1.1" xmlns="http://www.w3.org/2000/svg" xmlns:xlink="http://www.w3.org/1999/xlink">
    <!-- Generator: sketchtool 40 (33762) - http://www.bohemiancoding.com/sketch -->
    <title>fa-iot-recycling</title>
    <desc>Created with sketchtool.</desc>
    <defs></defs>
    <g id="icons" stroke="none" stroke-width="1" fill="none" fill-rule="evenodd">
        <g transform="translate(-48.000000, -308.000000)" id="fa-iot-recycling" fill="#5E676F">
            <path d="M66.2098982,337.000002 L67.5241528,338.292893 C67.9211298,338.683418 67.9211298,339.316582 67.5241528,339.707107 C67.1271757,340.097631 66.4835487,340.097631 66.0865717,339.707107 L63.0370017,336.707107 C62.8385132,336.511845 62.7392689,336.255922 62.7392689,336 C62.7392689,335.744078 62.8385132,335.488155 63.0370017,335.292893 L66.0865717,332.292893 C66.4835487,331.902369 67.1271757,331.902369 67.5241528,332.292893 C67.9211298,332.683418 67.9211298,333.316582 67.5241528,333.707107 L66.2098951,335.000002 L75.2018072,335 C77.7862466,335 78.6759782,333.488926 77.3963194,331.267411 C77.0196463,330.613499 77.0196463,330.613499 75.8896271,328.651762 C75.3761862,327.760418 75.3761862,327.760418 74.933411,326.991751 C74.6566286,326.511251 74.8282106,325.900999 75.3166501,325.628716 C75.8050895,325.356433 76.4254243,325.525226 76.7022067,326.005726 C77.1449819,326.774393 77.1449819,326.774393 77.6584228,327.665737 C78.788442,329.627474 78.788442,329.627474 79.1651151,330.281386 C81.2113309,333.83366 79.3469663,337 75.2018074,337 L66.2098982,337.000002 L66.2098982,337.000002 Z M72.8624311,319.339794 L73.3610611,317.50913 C73.5063648,316.975664 74.0637621,316.659082 74.6060429,316.802023 C75.1483236,316.944965 75.4701371,317.493302 75.3248334,318.026768 L74.2086133,322.124844 C74.1359615,322.391578 73.9602862,322.60409 73.7349888,322.732051 C73.5096915,322.860012 73.234772,322.903422 72.9636316,322.831951 L68.7978415,321.733875 C68.2555608,321.590933 67.9337473,321.042596 68.079051,320.50913 C68.2243547,319.975664 68.781752,319.659082 69.3240327,319.802023 L71.054693,320.258215 L66.9856642,313.194295 C66.5606459,312.456454 66.5606459,312.456454 66.1356277,311.718614 C64.858967,309.502304 63.1596997,309.504352 61.8842185,311.718614 L60.4320265,314.23965 C59.8874545,315.185038 59.8874545,315.185038 59.4336445,315.972862 C59.1568622,316.453362 58.5365274,316.622155 58.0480879,316.349871 C57.5596485,316.077588 57.3880665,315.467336 57.6648488,314.986836 C58.1186588,314.199013 58.1186588,314.199013 58.6632308,313.253624 C59.7523748,311.362848 59.7523748,311.362848 60.1154228,310.732589 C62.1689905,307.167552 65.8483017,307.163118 67.9044234,310.732589 C68.3294416,311.470429 68.3294416,311.470429 68.7544599,312.20827 L72.8624311,319.339794 L72.8624311,319.339794 L72.8624311,319.339794 Z M53.7071879,321.857419 L51.9069478,322.331951 C51.3646671,322.474893 50.8072698,322.158311 50.6619661,321.624844 C50.5166624,321.091378 50.8384759,320.543041 51.3807566,320.4001 L55.5465467,319.302023 C55.8176871,319.230552 56.0926066,319.273963 56.3179039,319.401924 C56.5432013,319.529885 56.7188766,319.742397 56.7915284,320.00913 L57.9077485,324.107206 C58.0530522,324.640672 57.7312387,325.189009 57.188958,325.331951 C56.6466772,325.474893 56.0892799,325.158311 55.9439762,324.624844 L55.4642926,322.86374 L52.2550301,328.435087 C50.9498274,330.700947 50.9498274,330.700947 50.6235268,331.267411 C49.3414176,333.49318 50.2360703,335 52.8332743,335 L57.9107834,335.000001 C58.4721937,335.000001 58.9273066,335.447716 58.9273065,336.000001 C58.9273064,336.552286 58.4721933,337.000001 57.910783,337.000001 L52.8332741,337 C48.6794322,337 46.8040579,333.841398 48.8547311,330.281386 C49.1810317,329.714921 49.1810317,329.714921 50.4862344,327.449062 L53.7071879,321.857419 L53.7071879,321.857419 Z"></path>
        </g>
    </g>
</svg>