<?xml version="1.0" encoding="UTF-8"?>
<svg width="32px" height="32px" viewBox="0 0 32 32" version="1.1" xmlns="http://www.w3.org/2000/svg" xmlns:xlink="http://www.w3.org/1999/xlink">
    <!-- Generator: sketchtool 40 (33762) - http://www.bohemiancoding.com/sketch -->
    <title>fa-iot-smartphone</title>
    <desc>Created with sketchtool.</desc>
    <defs></defs>
    <g id="icons" stroke="none" stroke-width="1" fill="none" fill-rule="evenodd">
        <g transform="translate(-256.000000, -152.000000)" id="fa-iot-smartphone" fill="#5E676F">
            <path d="M268,164.794202 L268,170.001899 C268,171.113294 268.716206,172 269.599692,172 L274.400308,172 C275.290053,172 276,171.10542 276,170.001899 L276,164.794202 L276.257179,164.937079 C276.49857,165.071185 276.802972,164.984213 276.937079,164.742821 C277.071185,164.50143 276.984213,164.197028 276.742821,164.062921 L272.242821,161.562921 L272,161.428021 L271.757179,161.562921 L267.257179,164.062921 C267.015787,164.197028 266.928815,164.50143 267.062921,164.742821 C267.197028,164.984213 267.50143,165.071185 267.742821,164.937079 L268,164.794202 L268,164.794202 Z M275,164.238646 L275,170.001899 C275,170.599058 274.679871,171 274.400308,171 L269.599692,171 C269.320594,171 269,170.600651 269,170.001899 L269,164.238646 L272.242821,162.437079 L271.757179,162.437079 L275,164.238646 L275,164.238646 Z M281,178 L281,180.002577 C281,181.059882 279.965054,182 278.600847,182 L265.399153,182 C264.032675,182 263,181.060631 263,179.995742 L263,178 L281,178 L281,178 L281,178 Z M281,177 L281,155.997434 C281,154.944174 279.962481,154 278.600847,154 L265.399153,154 C264.035623,154 263,154.942341 263,156.004258 L263,177 L281,177 L281,177 L281,177 Z M283,180.002577 C283,182.210293 281.028286,184 278.600847,184 L265.399153,184 C262.969568,184 261,182.210972 261,179.995742 L261,156.004258 C261,153.792767 262.971714,152 265.399153,152 L278.600847,152 C281.030432,152 283,153.798294 283,155.997434 L283,180.002577 L283,180.002577 Z M272,181 C271.447715,181 271,180.552285 271,180 C271,179.447715 271.447715,179 272,179 C272.552285,179 273,179.447715 273,180 C273,180.552285 272.552285,181 272,181 L272,181 Z"></path>
        </g>
    </g>
</svg>