<?xml version="1.0" encoding="UTF-8"?>
<svg width="1792px" height="1792px" viewBox="0 0 1792 1792" version="1.1" xmlns="http://www.w3.org/2000/svg" xmlns:xlink="http://www.w3.org/1999/xlink">
    <!-- Generator: sketchtool 40 (33762) - http://www.bohemiancoding.com/sketch -->
    <title>fa-iot-dome-camera</title>
    <desc>Created with sketchtool.</desc>
    <defs></defs>
    <g id="icons" stroke="none" stroke-width="1" fill="none" fill-rule="evenodd">
        <g id="fa-iot-dome-camera" fill="#5E676F">
            <path d="M336.692832,1178.42491 L336.692832,842.152726 C336.692832,531.9677 587.890904,280.57736 897.847552,280.57736 C1207.90251,280.57736 1459.00227,531.733822 1459.00227,842.152726 L1459.00227,1178.42491 L336.692832,1178.42491 L336.692832,1178.42491 L336.692832,1178.42491 Z M1515.11774,1234.54038 L1571.23214,1234.54038 C1633.14121,1234.54038 1683.46416,1284.90207 1683.46416,1346.77133 C1683.46416,1408.66201 1633.07531,1459.00227 1571.23214,1459.00227 L224.462962,1459.00227 C162.553891,1459.00227 112.230944,1408.64058 112.230944,1346.77133 C112.230944,1284.88064 162.619791,1234.54038 224.462962,1234.54038 L280.57736,1234.54038 L1515.11774,1234.54038 L1515.11774,1234.54038 Z M0,1346.77133 C0,1470.6047 100.551109,1571.23322 224.462962,1571.23322 L1571.23214,1571.23322 C1695.03453,1571.23322 1795.6951,1470.6697 1795.6951,1346.77133 C1795.6951,1222.93796 1695.14399,1122.30944 1571.23214,1122.30944 L1571.23322,842.152726 C1571.23322,469.756054 1269.89162,168.346416 897.847552,168.346416 C525.888235,168.346416 224.461888,470.003476 224.461888,842.152726 L224.462962,1122.30944 C100.660576,1122.30944 0,1222.87295 0,1346.77133 L0,1346.77133 Z M1262.59812,1066.19397 C1216.11054,1066.19397 1178.42491,1028.50834 1178.42491,982.02076 C1178.42491,935.533181 1216.11054,897.847552 1262.59812,897.847552 C1309.0857,897.847552 1346.77133,935.533181 1346.77133,982.02076 C1346.77133,1028.50834 1309.0857,1066.19397 1262.59812,1066.19397 L1262.59812,1066.19397 Z M1262.59812,1010.0785 C1247.10226,1010.0785 1234.54038,997.516619 1234.54038,982.02076 C1234.54038,966.5249 1247.10226,953.963024 1262.59812,953.963024 C1278.09398,953.963024 1290.65586,966.5249 1290.65586,982.02076 C1290.65586,997.516619 1278.09398,1010.0785 1262.59812,1010.0785 L1262.59812,1010.0785 Z M897.847552,1066.19397 C742.888955,1066.19397 617.270192,940.575205 617.270192,785.616608 C617.270192,630.658011 742.888955,505.039248 897.847552,505.039248 C1052.80615,505.039248 1178.42491,630.658011 1178.42491,785.616608 C1178.42491,940.575205 1052.80615,1066.19397 897.847552,1066.19397 L897.847552,1066.19397 Z M897.847552,1010.0785 C1021.81443,1010.0785 1122.30944,909.583485 1122.30944,785.616608 C1122.30944,661.64973 1021.81443,561.15472 897.847552,561.15472 C773.880674,561.15472 673.385664,661.64973 673.385664,785.616608 C673.385664,909.583485 773.880674,1010.0785 897.847552,1010.0785 L897.847552,1010.0785 Z M897.847552,897.847552 C835.864113,897.847552 785.616608,847.600047 785.616608,785.616608 C785.616608,723.633169 835.864113,673.385664 897.847552,673.385664 C959.830991,673.385664 1010.0785,723.633169 1010.0785,785.616608 C1010.0785,847.600047 959.830991,897.847552 897.847552,897.847552 L897.847552,897.847552 Z M897.847552,841.73208 C928.839271,841.73208 953.963024,816.608327 953.963024,785.616608 C953.963024,754.624888 928.839271,729.501136 897.847552,729.501136 C866.855832,729.501136 841.73208,754.624888 841.73208,785.616608 C841.73208,816.608327 866.855832,841.73208 897.847552,841.73208 L897.847552,841.73208 Z"></path>
        </g>
    </g>
</svg>