<?xml version="1.0" encoding="UTF-8"?>
<svg width="1792px" height="1792px" viewBox="0 0 1792 1792" version="1.1" xmlns="http://www.w3.org/2000/svg" xmlns:xlink="http://www.w3.org/1999/xlink">
    <!-- Generator: sketchtool 40 (33762) - http://www.bohemiancoding.com/sketch -->
    <title>fa-iot-houseplant</title>
    <desc>Created with sketchtool.</desc>
    <defs></defs>
    <g id="icons" stroke="none" stroke-width="1" fill="none" fill-rule="evenodd">
        <g id="fa-iot-houseplant" fill="#5E676F">
            <path d="M568.277609,1430.41244 C576.269624,1498.56708 590.031666,1569.58385 610.270165,1643.5498 C350.315718,1538.54654 199.494829,1356.89125 133.619911,1116.10324 C85.5898788,940.542394 87.1280012,750.278031 118.997898,571.161353 C119.724701,567.076539 121.198763,559.095837 121.198763,559.095837 C121.198763,559.095837 130.246709,562.324332 163.270959,576.697341 C257.757114,617.820162 352.236246,669.562534 439.966903,732.404819 C514.886822,786.070653 577.545436,842.792185 628.850326,902.893618 L628.850326,902.893618 C584.172483,1020.79795 558.423103,1152.03889 559.775097,1297.62322 L304.00526,828.296573 C296.591601,814.692827 279.563385,809.680092 265.971675,817.100318 C252.379966,824.520543 247.371667,841.56384 254.785327,855.167586 L568.277609,1430.41244 L568.277609,1430.41244 Z M730.4382,1650.56219 C615.842165,1117.02945 621.329398,837.381838 1206.29438,377.974724 C1324.10322,285.452571 1456.64628,225.195182 1586.468,170.364753 C1631.84253,151.200741 1644.27419,146.896081 1644.27419,146.896081 C1644.27419,146.896081 1646.29952,157.537017 1647.29813,162.983436 C1691.0866,401.805674 1693.19995,655.491491 1627.20783,889.572613 C1522.64799,1260.4576 1262.3291,1526.12267 795.015938,1650.55541 L1425.05104,547.017519 C1432.73233,533.563345 1428.06214,516.424146 1414.61987,508.736047 C1401.17761,501.047948 1384.05357,505.722275 1376.37228,519.176449 L730.4382,1650.56219 L730.4382,1650.56219 L730.4382,1650.56219 Z M755.954748,1795.6951 C2185.63311,1430.94454 1724.93796,0 1724.93796,0 C1724.93796,0 954.760771,208.903777 671.856021,813.674344 C447.592748,505.039248 48.0597321,448.923776 48.0597321,448.923776 C-225.19707,1711.5219 755.954748,1795.6951 755.954748,1795.6951 Z"></path>
        </g>
    </g>
</svg>