<?xml version="1.0" encoding="UTF-8"?>
<svg width="32px" height="32px" viewBox="0 0 32 32" version="1.1" xmlns="http://www.w3.org/2000/svg" xmlns:xlink="http://www.w3.org/1999/xlink">
    <!-- Generator: sketchtool 40 (33762) - http://www.bohemiancoding.com/sketch -->
    <title>fa-iot-ring</title>
    <desc>Created with sketchtool.</desc>
    <defs></defs>
    <g id="icons" stroke="none" stroke-width="1" fill="none" fill-rule="evenodd">
        <g transform="translate(-100.000000, -100.000000)" id="fa-iot-ring" fill="#5E676F">
            <path d="M119.708042,129.503671 C118.527037,129.827229 117.283695,130 116,130 C114.716305,130 113.472962,129.827229 112.291957,129.503671 C112.10008,129.031145 112,128.523408 112,128 C112,125.790861 113.790861,124 116,124 C118.209139,124 120,125.790861 120,128 C120,128.523393 119.899929,129.03112 119.708042,129.503671 Z M120.872014,129.128973 C126.202046,127.150293 130,122.018676 130,116 C130,108.268014 123.731986,102 116,102 C108.268014,102 102,108.268014 102,116 C102,122.018676 105.797954,127.150293 111.127986,129.128973 C111.044251,128.766163 111,128.388249 111,128 C111,125.238576 113.238576,123 116,123 C118.761424,123 121,125.238576 121,128 C121,128.388249 120.955749,128.766163 120.872014,129.128973 Z M116,132 C107.163444,132 100,124.836556 100,116 C100,107.163444 107.163444,100 116,100 C124.836556,100 132,107.163444 132,116 C132,124.836556 124.836556,132 116,132 Z M116,107 C120.970563,107 125,111.029437 125,116 C125,116 125,117 126,117 C127,117 127,116 127,116 C127,109.924868 122.075132,105 116,105 C109.924868,105 105,109.924868 105,116 C105,116 105,117 106,117 C107,117 107,116 107,116 C107,111.029437 111.029437,107 116,107 Z M116,128 C115.447715,128 115,127.552285 115,127 C115,126.447715 115.447715,126 116,126 C116.552285,126 117,126.447715 117,127 C117,127.552285 116.552285,128 116,128 Z M116,121 C113.238576,121 111,118.761424 111,116 C111,113.238576 113.238576,111 116,111 C118.761424,111 121,113.238576 121,116 C121,118.761424 118.761424,121 116,121 Z M116,120 C118.209139,120 120,118.209139 120,116 C120,113.790861 118.209139,112 116,112 C113.790861,112 112,113.790861 112,116 C112,118.209139 113.790861,120 116,120 Z M116,118 C114.895431,118 114,117.104569 114,116 C114,114.895431 114.895431,114 116,114 C117.104569,114 118,114.895431 118,116 C118,117.104569 117.104569,118 116,118 Z M116,117 C116.552285,117 117,116.552285 117,116 C117,115.447715 116.552285,115 116,115 C115.447715,115 115,115.447715 115,116 C115,116.552285 115.447715,117 116,117 Z"></path>
        </g>
    </g>
</svg>