<?xml version="1.0" encoding="UTF-8"?>
<svg width="32px" height="32px" viewBox="0 0 32 32" version="1.1" xmlns="http://www.w3.org/2000/svg" xmlns:xlink="http://www.w3.org/1999/xlink">
    <!-- Generator: sketchtool 40 (33762) - http://www.bohemiancoding.com/sketch -->
    <title>fa-iot-lock-a</title>
    <desc>Created with sketchtool.</desc>
    <defs></defs>
    <g id="icons" stroke="none" stroke-width="1" fill="none" fill-rule="evenodd">
        <g transform="translate(-204.000000, -360.000000)" id="fa-iot-lock-a" fill="#5E676F">
            <path d="M210,379.005859 L210,384 C210,388.412888 213.583265,392 217.99792,392 L222.00208,392 C226.417729,392 230,388.417473 230,384 L230,379.005859 C230,377.346244 228.660526,376 227.004911,376 L212.995089,376 C211.339292,376 210,377.346806 210,379.005859 L210,379.005859 Z M212,379.005859 C212,378.448878 212.446374,378 212.995089,378 L227.004911,378 C227.553693,378 228,378.448563 228,379.005859 L228,384 C228,387.312935 225.313128,390 222.00208,390 L217.99792,390 C214.688315,390 212,387.308799 212,384 L212,379.005859 L212,379.005859 Z M215,376 L215,366.997062 C215,364.23987 217.242707,362 220,362 C222.760921,362 225,364.238408 225,366.997062 L225,376 L227,376 L227,366.997062 C227,363.133704 223.865356,360 220,360 C216.138704,360 213,363.134734 213,366.997062 L213,376 L215,376 L215,376 Z M220,387 C218.343146,387 217,385.656854 217,384 C217,382.343146 218.343146,381 220,381 C221.656854,381 223,382.343146 223,384 C223,385.656854 221.656854,387 220,387 L220,387 Z M220,386 C221.104569,386 222,385.104569 222,384 C222,382.895431 221.104569,382 220,382 C218.895431,382 218,382.895431 218,384 C218,385.104569 218.895431,386 220,386 L220,386 Z"></path>
        </g>
    </g>
</svg>