<?xml version="1.0" encoding="UTF-8"?>
<svg width="33px" height="32px" viewBox="0 0 33 32" version="1.1" xmlns="http://www.w3.org/2000/svg" xmlns:xlink="http://www.w3.org/1999/xlink">
    <!-- Generator: sketchtool 40 (33762) - http://www.bohemiancoding.com/sketch -->
    <title>fa-iot-ventilation</title>
    <desc>Created with sketchtool.</desc>
    <defs></defs>
    <g id="icons" stroke="none" stroke-width="1" fill="none" fill-rule="evenodd">
        <g transform="translate(-151.000000, -100.000000)" id="fa-iot-ventilation" fill="#5E676F">
            <path d="M171.988163,110.264629 C172.370429,109.668899 172.939685,108.841181 173.83205,107.5547 C176.461953,103.609846 174.456483,100 169,100 C162.73695,100 158.909635,105.649276 162.165156,111.922513 L162.165156,111.922513 C161.571568,111.540439 160.749792,110.975151 159.483632,110.096882 C155.538778,107.466979 151.928932,109.472449 151.928932,114.928932 C151.928932,121.236909 157.659546,125.074081 163.986539,121.692623 C163.60421,122.291398 163.029199,123.127758 162.115288,124.4453 C159.485386,128.390154 161.490856,132 166.947339,132 C173.213665,132 177.041707,126.344812 173.777068,120.067642 C174.369622,120.449587 175.188564,121.012979 176.4453,121.884712 C180.390154,124.514614 184,122.509144 184,117.052661 C184,110.759899 178.296996,106.926037 171.988163,110.264629 L171.988163,110.264629 Z M171.581238,112.866395 C177.101174,108.923583 182,111.805245 182,117.052661 C182,120.929511 180.155301,121.954344 177.5547,120.220611 C175.029696,118.458904 174.095289,117.835966 173.149168,117.457518 C172.880206,117.349933 172.611863,117.26453 172.338111,117.200432 C172.443628,116.818273 172.5,116.41572 172.5,116 C172.5,114.673388 171.581238,112.866395 171.581238,112.866395 Z M169.404857,110.850832 C169.783305,109.904711 170.406243,108.970304 172.16795,106.4453 C173.901683,103.844699 172.87685,102 169,102 C163.752584,102 160.870922,106.898826 164.813733,112.418762 C164.813733,112.418762 166.70423,111.5 168,111.5 C168.397807,111.5 168.783557,111.551619 169.150919,111.648524 C169.214656,111.3794 169.299023,111.115416 169.404857,110.850832 Z M162.779764,114.524076 C161.833643,114.145627 160.899236,113.522689 158.374232,111.760982 C155.773632,110.027249 153.928932,111.052082 153.928932,114.928932 C153.928932,120.176348 158.827758,123.05801 164.347694,119.115199 C164.347694,119.115199 163.5,117.302519 163.5,116 C163.5,115.583504 163.556583,115.180223 163.662481,114.797426 C163.363811,114.731772 163.072154,114.641031 162.779764,114.524076 Z M166.542482,121.149168 C166.164034,122.095289 165.541096,123.029696 163.779389,125.5547 C162.045656,128.155301 163.070489,130 166.947339,130 C172.194755,130 175.076417,125.101174 171.133605,119.581238 C171.133605,119.581238 169.302519,120.5 168,120.5 C167.58428,120.5 167.181727,120.443628 166.799568,120.338111 C166.73547,120.611863 166.650067,120.880206 166.542482,121.149168 Z M168,119.5 C166.067003,119.5 164.5,117.932997 164.5,116 C164.5,114.067003 166.067003,112.5 168,112.5 C169.932997,112.5 171.5,114.067003 171.5,116 C171.5,117.932997 169.932997,119.5 168,119.5 Z"></path>
        </g>
    </g>
</svg>