<?xml version="1.0" encoding="UTF-8"?>
<svg width="32px" height="32px" viewBox="0 0 32 32" version="1.1" xmlns="http://www.w3.org/2000/svg" xmlns:xlink="http://www.w3.org/1999/xlink">
    <!-- Generator: sketchtool 40 (33762) - http://www.bohemiancoding.com/sketch -->
    <title>fa-iot-pet</title>
    <desc>Created with sketchtool.</desc>
    <defs></defs>
    <g id="icons" stroke="none" stroke-width="1" fill="none" fill-rule="evenodd">
        <g id="fa-iot-pet" fill="#5E676F">
            <path d="M16.0007763,11.642572 C12.0109961,11.642572 6,17.7318226 6,22.642572 C6,25.9043388 7.00997974,27.7634496 8.82499033,28.4087867 C9.45069657,28.6312601 9.96942636,28.6720102 10.7660826,28.6480367 C10.924372,28.6432734 10.9522461,28.642572 11,28.642572 C11.4187719,28.642572 11.8389778,28.5057608 12.4190582,28.2380314 C12.6131218,28.1484636 12.8163217,28.0482305 13.1055904,27.9011447 C12.8987015,28.0063424 13.648312,27.62395 13.8222136,27.5369992 C14.4043657,27.2459232 14.849734,27.0465045 15.2703201,26.8980624 C15.5931545,26.7841208 15.8839516,26.7078828 16.1443897,26.6700887 L15.857617,26.6701544 C16.1181269,26.707837 16.4088284,26.7836433 16.7314328,26.89683 C17.1521874,27.0444529 17.5976549,27.2427357 18.1799071,27.5321392 C18.3538186,27.6185804 19.1034435,27.9987175 18.8965444,27.894137 C19.1857873,28.0403395 19.3889636,28.1399679 19.5829892,28.2289883 C20.1625059,28.494875 20.5822825,28.6307377 21,28.6307377 C21.0477539,28.6307377 21.075628,28.6314391 21.2339174,28.6362024 C22.0305736,28.6601759 22.5493034,28.6194257 23.1750097,28.3969524 C24.9900203,27.7516153 26,25.8925045 26,22.6307377 C26,17.7207158 19.9918528,11.642572 16.0007763,11.642572 Z M16.0007763,13.642572 C18.8820645,13.642572 24,18.8201329 24,22.6307377 C24,25.120971 23.4209523,26.1868477 22.5049903,26.512523 C22.1774054,26.6289977 21.8581109,26.6540806 21.2940753,26.6371074 C21.1086462,26.6315273 21.077265,26.6307377 21,26.6307377 C20.8592255,26.6307377 20.8669217,26.6342688 19.0700929,25.7411704 C18.4202022,25.4181478 17.907419,25.189902 17.3935672,25.0096156 C16.9565409,24.8562837 16.543301,24.7485231 16.1439359,24.6907552 L16.0005449,24.6700137 L15.8571633,24.6908209 C15.4568362,24.7489154 15.0426702,24.8574969 14.6046799,25.0120817 C14.0906595,25.1935007 13.5777771,25.4231495 12.9277864,25.7481448 C11.1333608,26.6453577 11.1393963,26.642572 11,26.642572 C10.922735,26.642572 10.8913538,26.6433616 10.7059247,26.6489417 C10.1418891,26.665915 9.82259459,26.640832 9.49500967,26.5243573 C8.57904769,26.198682 8,25.1328053 8,22.642572 C8,18.8306429 13.1213977,13.642572 16.0007763,13.642572 Z M11.0562214,9.98802654 C13.2244287,9.40705712 14.1321138,5.54319125 13.4656178,3.05579429 C12.8764843,0.857118024 10.6165179,-0.447674168 8.41784164,0.141459362 C6.21916537,0.730592892 4.91437318,2.99055926 5.50350671,5.18923553 C6.17000271,7.67663249 8.88801397,10.568996 11.0562214,9.98802654 L11.0562214,9.98802654 Z M10.5385833,8.05617488 C9.76216211,8.26421631 7.85387333,6.23351657 7.43535836,4.67159744 C7.13210845,3.53985338 7.80373567,2.37656092 8.93547973,2.07331101 C10.0672238,1.77006111 11.2305162,2.44168832 11.5337662,3.57343238 C11.9522811,5.13535151 11.3150044,7.84813346 10.5385833,8.05617488 L10.5385833,8.05617488 Z M6.01279285,16.0154411 C7.68962517,15.0477964 7.58758727,11.7659909 6.5122274,9.90432666 C5.54860652,8.2361051 3.41441294,7.66453018 1.74537262,8.62767835 C0.0763322982,9.59082652 -0.495523148,11.7239732 0.46809773,13.3921947 C1.5434576,15.2538589 4.33596053,16.9830858 6.01279285,16.0154411 Z M4.91988375,14.2833903 C4.49171541,14.5305934 2.70572919,13.4240982 2.10995943,12.3921947 C1.69909601,11.6805584 1.94292062,10.7705926 2.65455693,10.3597292 C3.36619325,9.94886574 4.27615907,10.1926903 4.68702249,10.9043267 C5.28279225,11.9362302 5.34805209,14.0361872 4.91988375,14.2833903 Z M19.9437786,9.98802654 C22.111986,10.568996 24.8299973,7.67663249 25.4964933,5.18923553 C26.0856268,2.99055926 24.7808346,0.730592892 22.5821584,0.141459362 C20.3834821,-0.447674168 18.1235157,0.857118024 17.5343822,3.05579429 C16.8678862,5.54319125 17.7755713,9.40705712 19.9437786,9.98802654 Z M20.4614167,8.05617488 C19.6849956,7.84813346 19.0477189,5.13535151 19.4662338,3.57343238 C19.7694838,2.44168832 20.9327762,1.77006111 22.0645203,2.07331101 C23.1962643,2.37656092 23.8678915,3.53985338 23.5646416,4.67159744 C23.1461267,6.23351657 21.2378379,8.26421631 20.4614167,8.05617488 Z M25.984045,16.0053709 C27.6566508,16.971629 30.4408914,15.2456386 31.5131744,13.3872768 C32.4741785,11.7217713 31.903876,9.59209775 30.2393681,8.63051773 C28.5748603,7.66893772 26.4464623,8.23958203 25.4854583,9.90508747 C24.4131752,11.7634493 24.3114392,15.0391127 25.984045,16.0053709 Z M27.0924876,14.27332 C26.6667207,14.0275034 26.7317897,11.9336886 27.3256528,10.9050875 C27.7349481,10.1961673 28.6414408,9.95327327 29.350361,10.3625685 C30.0592812,10.7718638 30.3021752,11.6783566 29.89288,12.3872768 C29.2990168,13.4158778 27.5182545,14.5191367 27.0924876,14.27332 Z"></path>
        </g>
    </g>
</svg>