<?xml version="1.0" encoding="UTF-8"?>
<svg width="32px" height="32px" viewBox="0 0 32 32" version="1.1" xmlns="http://www.w3.org/2000/svg" xmlns:xlink="http://www.w3.org/1999/xlink">
    <!-- Generator: sketchtool 40 (33762) - http://www.bohemiancoding.com/sketch -->
    <title>fa-iot-washer</title>
    <desc>Created with sketchtool.</desc>
    <defs></defs>
    <g id="icons" stroke="none" stroke-width="1" fill="none" fill-rule="evenodd">
        <g transform="translate(-255.000000, -100.000000)" id="fa-iot-washer" fill="#5E676F">
            <path d="M285.542247,112.308646 C283.877815,105.724809 277.922365,101 271,101 C262.715729,101 256,107.715729 256,116 C256,124.284271 262.715729,131 271,131 C277.916255,131 283.875389,126.28218 285.542203,119.69132 C286.984845,119.087141 288,117.661404 288,116 C288,114.339435 286.985379,112.913021 285.542247,112.308646 L285.542247,112.308646 L285.542247,112.308646 Z M283.388564,119.95347 C281.697672,125.266595 276.727032,129 271,129 C263.820298,129 258,123.179702 258,116 C258,108.820298 263.820298,103 271,103 C276.731826,103 281.699592,106.738634 283.388655,112.046532 C282.699269,112.152487 282.067534,112.434779 281.541119,112.845882 C280.185229,108.307901 275.978915,105 271,105 C264.924868,105 260,109.924868 260,116 C260,122.075132 264.924868,127 271,127 C275.978905,127 280.185212,123.692112 281.54111,119.154145 C282.0674,119.565189 282.699047,119.847509 283.388564,119.95347 L283.388564,119.95347 L283.388564,119.95347 Z M280.732663,118.306632 C279.691257,122.717474 275.728966,126 271,126 C265.477153,126 261,121.522847 261,116 C261,110.477153 265.477153,106 271,106 C275.72895,106 279.69123,109.282504 280.732652,113.693323 C280.271278,114.345281 280,115.141152 280,116 C280,116.858553 280.271223,117.654514 280.732663,118.306632 L280.732663,118.306632 L280.732663,118.306632 Z M282,116 C282,114.896768 282.897464,114 284,114 C285.103232,114 286,114.897464 286,116 C286,117.103232 285.102536,118 284,118 C282.896768,118 282,117.102536 282,116 L282,116 Z M271,123.544725 C271,124.044725 270.261967,124.02251 269.925729,123.979423 C266.321467,123.517548 263.467454,120.657202 263.015234,117.049928 C262.983819,116.799334 262.95269,116 263.45269,116 C263.95269,116 264.036009,117.128044 264.036009,117.128044 C264.501858,120.126553 266.870862,122.495557 269.86937,122.961405 C269.86937,122.961405 271,123.044725 271,123.544725 L271,123.544725 Z"></path>
        </g>
    </g>
</svg>