<?xml version="1.0" encoding="UTF-8"?>
<svg width="32px" height="32px" viewBox="0 0 32 32" version="1.1" xmlns="http://www.w3.org/2000/svg" xmlns:xlink="http://www.w3.org/1999/xlink">
    <!-- Generator: sketchtool 40 (33762) - http://www.bohemiancoding.com/sketch -->
    <title>fa-iot-thermostat</title>
    <desc>Created with sketchtool.</desc>
    <defs></defs>
    <g id="icons" stroke="none" stroke-width="1" fill="none" fill-rule="evenodd">
        <g id="fa-iot-thermostat" fill="#5E676F">
            <path d="M16,32 C24.836556,32 32,24.836556 32,16 C32,7.163444 24.836556,0 16,0 C7.163444,0 0,7.163444 0,16 C0,24.836556 7.163444,32 16,32 L16,32 Z M16,30 C8.2680135,30 2,23.7319865 2,16 C2,8.2680135 8.2680135,2 16,2 C23.7319865,2 30,8.2680135 30,16 C30,23.7319865 23.7319865,30 16,30 L16,30 Z M16,28 C9.372583,28 4,22.627417 4,16 C4,9.372583 9.372583,4 16,4 C22.627417,4 28,9.372583 28,16 C28,22.627417 22.627417,28 16,28 L16,28 Z M16,27 C22.0751322,27 27,22.0751322 27,16 C27,9.92486775 22.0751322,5 16,5 C9.92486775,5 5,9.92486775 5,16 C5,22.0751322 9.92486775,27 16,27 L16,27 Z M13.8786797,18.1213203 C15.0502525,19.2928932 16.9497475,19.2928932 18.1213203,18.1213203 C19.2928932,16.9497475 23.7781746,9.63603897 23.0710678,8.92893219 C22.363961,8.22182541 15.0502525,12.7071068 13.8786797,13.8786797 C12.7071068,15.0502525 12.7071068,16.9497475 13.8786797,18.1213203 L13.8786797,18.1213203 Z M15.2928932,16.7071068 C15.6834175,17.0976311 16.3165825,17.0976311 16.7071068,16.7071068 C17.0976311,16.3165825 17.0976311,15.6834175 16.7071068,15.2928932 C16.3165825,14.9023689 15.6834175,14.9023689 15.2928932,15.2928932 C14.9023689,15.6834175 14.9023689,16.3165825 15.2928932,16.7071068 L15.2928932,16.7071068 Z"></path>
        </g>
    </g>
</svg>