<?xml version="1.0" encoding="UTF-8"?>
<svg width="32px" height="32px" viewBox="0 0 32 32" version="1.1" xmlns="http://www.w3.org/2000/svg" xmlns:xlink="http://www.w3.org/1999/xlink">
    <!-- Generator: sketchtool 40 (33762) - http://www.bohemiancoding.com/sketch -->
    <title>fa-iot-power</title>
    <desc>Created with sketchtool.</desc>
    <defs></defs>
    <g id="icons" stroke="none" stroke-width="1" fill="none" fill-rule="evenodd">
        <g transform="translate(-48.000000, -100.000000)" id="fa-iot-power" fill="#5E676F">
            <path d="M64,132 C72.836556,132 80,124.836556 80,116 C80,107.163444 72.836556,100 64,100 C55.163444,100 48,107.163444 48,116 C48,124.836556 55.163444,132 64,132 L64,132 Z M64,130 C56.2680135,130 50,123.731986 50,116 C50,108.268014 56.2680135,102 64,102 C71.7319865,102 78,108.268014 78,116 C78,123.731986 71.7319865,130 64,130 L64,130 Z M60.2575393,117.711259 L60.1868707,117.711259 C59.0779698,117.711259 58.6478221,116.946791 59.2212184,116.003773 L64.4805582,107.35416 C65.67876,105.383574 66.0624739,105.559489 65.3376772,107.746963 L63.7252918,112.613225 C63.3772095,113.663756 63.9942825,114.504829 65.0992511,114.504829 L68.1977772,114.504829 L68.1846183,114.517712 L68.2552868,114.517712 C69.3641878,114.517712 69.7943355,115.28218 69.2209392,116.225199 L64.1844844,124.508251 C62.864477,126.679161 62.4411534,126.483963 63.241777,124.06764 L64.7168658,119.615746 C65.0649481,118.565216 64.447875,117.724142 63.3429064,117.724142 L60.2443804,117.724142 L60.2575393,117.711259 L60.2575393,117.711259 Z"></path>
        </g>
    </g>
</svg>