<?xml version="1.0" encoding="UTF-8"?>
<svg width="1792px" height="1792px" viewBox="0 0 1792 1792" version="1.1" xmlns="http://www.w3.org/2000/svg" xmlns:xlink="http://www.w3.org/1999/xlink">
    <!-- Generator: sketchtool 40 (33762) - http://www.bohemiancoding.com/sketch -->
    <title>fa-iot-ip-camera</title>
    <desc>Created with sketchtool.</desc>
    <defs></defs>
    <g id="icons" stroke="none" stroke-width="1" fill="none" fill-rule="evenodd">
        <g id="fa-iot-ip-camera" fill="#5E676F">
            <path d="M224.461888,448.746387 C224.461888,324.877479 324.588347,224.461888 448.365596,224.461888 L1347.32951,224.461888 C1470.98811,224.461888 1571.23322,325.139793 1571.23322,448.746387 L1571.23322,1571.4106 C1571.23322,1695.27951 1471.10676,1795.6951 1347.32951,1795.6951 L448.365596,1795.6951 C324.706993,1795.6951 224.461888,1695.0172 224.461888,1571.4106 L224.461888,448.746387 L224.461888,448.746387 Z M336.692832,448.746387 L336.692832,1571.4106 C336.692832,1633.18725 386.843868,1683.46416 448.365596,1683.46416 L1347.32951,1683.46416 C1409.03039,1683.46416 1459.00227,1633.38897 1459.00227,1571.4106 L1459.00227,448.746387 C1459.00227,386.969743 1408.85124,336.692832 1347.32951,336.692832 L448.365596,336.692832 C386.664711,336.692832 336.692832,386.768027 336.692832,448.746387 L336.692832,448.746387 Z M897.847552,1178.42491 C742.888955,1178.42491 617.270192,1052.80615 617.270192,897.847552 C617.270192,742.888955 742.888955,617.270192 897.847552,617.270192 C1052.80615,617.270192 1178.42491,742.888955 1178.42491,897.847552 C1178.42491,1052.80615 1052.80615,1178.42491 897.847552,1178.42491 L897.847552,1178.42491 Z M897.847552,1122.30944 C1021.81443,1122.30944 1122.30944,1021.81443 1122.30944,897.847552 C1122.30944,773.880674 1021.81443,673.385664 897.847552,673.385664 C773.880674,673.385664 673.385664,773.880674 673.385664,897.847552 C673.385664,1021.81443 773.880674,1122.30944 897.847552,1122.30944 L897.847552,1122.30944 Z M897.847552,1010.0785 C835.864113,1010.0785 785.616608,959.830991 785.616608,897.847552 C785.616608,835.864113 835.864113,785.616608 897.847552,785.616608 C959.830991,785.616608 1010.0785,835.864113 1010.0785,897.847552 C1010.0785,959.830991 959.830991,1010.0785 897.847552,1010.0785 L897.847552,1010.0785 Z M897.847552,953.963024 C928.839271,953.963024 953.963024,928.839271 953.963024,897.847552 C953.963024,866.855832 928.839271,841.73208 897.847552,841.73208 C866.855832,841.73208 841.73208,866.855832 841.73208,897.847552 C841.73208,928.839271 866.855832,953.963024 897.847552,953.963024 L897.847552,953.963024 Z M1683.46416,336.692832 C1683.46416,336.692832 1683.46416,392.808304 1739.57963,392.808304 C1795.6951,392.808304 1795.6951,336.692832 1795.6951,336.692832 L1795.6951,223.903708 C1795.6951,100.12646 1680.93443,0 1539.36996,0 L256.325142,0 C115.060463,0 0,100.245105 0,223.903708 L0,336.692832 C0,336.692832 0,392.808304 56.115472,392.808304 C112.230944,392.808304 112.230944,336.692832 112.230944,336.692832 L112.230944,223.903708 C112.230944,165.970902 173.802191,112.230944 256.325142,112.230944 L1539.36996,112.230944 C1622.12688,112.230944 1683.46416,165.79033 1683.46416,223.903708 L1683.46416,336.692832 L1683.46416,336.692832 Z M1262.59812,617.270192 C1216.11054,617.270192 1178.42491,579.584563 1178.42491,533.096984 C1178.42491,486.609405 1216.11054,448.923776 1262.59812,448.923776 C1309.0857,448.923776 1346.77133,486.609405 1346.77133,533.096984 C1346.77133,579.584563 1309.0857,617.270192 1262.59812,617.270192 L1262.59812,617.270192 Z M561.15472,1487.06001 C561.15472,1440.32893 599.292291,1402.8868 645.869415,1402.8868 L1149.82569,1402.8868 C1196.35425,1402.8868 1234.54038,1440.76791 1234.54038,1487.06001 C1234.54038,1533.79108 1196.40281,1571.23322 1149.82569,1571.23322 L645.869415,1571.23322 C599.340857,1571.23322 561.15472,1533.35211 561.15472,1487.06001 L561.15472,1487.06001 Z M617.270192,1487.06001 C617.270192,1502.10268 630.0745,1515.11774 645.869415,1515.11774 L1149.82569,1515.11774 C1165.65007,1515.11774 1178.42491,1502.55587 1178.42491,1487.06001 C1178.42491,1472.01733 1165.6206,1459.00227 1149.82569,1459.00227 L645.869415,1459.00227 C630.045036,1459.00227 617.270192,1471.56415 617.270192,1487.06001 L617.270192,1487.06001 Z M1262.59812,561.15472 C1278.09398,561.15472 1290.65586,548.592844 1290.65586,533.096984 C1290.65586,517.601124 1278.09398,505.039248 1262.59812,505.039248 C1247.10226,505.039248 1234.54038,517.601124 1234.54038,533.096984 C1234.54038,548.592844 1247.10226,561.15472 1262.59812,561.15472 L1262.59812,561.15472 Z"></path>
        </g>
    </g>
</svg>