<?xml version="1.0" encoding="UTF-8"?>
<svg width="1792px" height="1792px" viewBox="0 0 1792 1792" version="1.1" xmlns="http://www.w3.org/2000/svg" xmlns:xlink="http://www.w3.org/1999/xlink">
    <!-- Generator: sketchtool 40 (33762) - http://www.bohemiancoding.com/sketch -->
    <title>fa-iot-router</title>
    <desc>Created with sketchtool.</desc>
    <defs></defs>
    <g id="icons" stroke="none" stroke-width="1" fill="none" fill-rule="evenodd">
        <g id="fa-iot-router" fill="#5E676F">
            <path d="M657.127663,953.963024 C663.344738,939.700544 666.171304,923.506173 664.7406,906.33773 L621.958047,392.947094 C619.401462,362.268073 592.146439,336.692832 561.15472,336.692832 C529.946932,336.692832 502.940424,361.878723 500.351393,392.947094 L457.56884,906.33773 C456.136487,923.525964 458.968291,939.714409 465.183994,953.963024 L224.700811,953.963024 C100.392123,953.963024 0,1054.51756 0,1178.55788 L0,1346.63836 C0,1470.68429 100.60198,1571.23322 224.700811,1571.23322 L1570.99429,1571.23322 C1695.30298,1571.23322 1795.6951,1470.67868 1795.6951,1346.63836 L1795.6951,1178.55788 C1795.6951,1054.51195 1695.09312,953.963024 1570.99429,953.963024 L657.127663,953.963024 L657.127663,953.963024 L657.127663,953.963024 Z M112.230944,1178.55788 L112.230944,1346.63836 C112.230944,1408.68662 162.571199,1459.00227 224.700811,1459.00227 L1570.99429,1459.00227 C1633.2427,1459.00227 1683.46416,1408.77209 1683.46416,1346.63836 L1683.46416,1178.55788 C1683.46416,1116.50962 1633.12391,1066.19397 1570.99429,1066.19397 L224.700811,1066.19397 C162.452404,1066.19397 112.230944,1116.42415 112.230944,1178.55788 L112.230944,1178.55788 Z M308.635096,1178.42491 C355.122675,1178.42491 392.808304,1215.78644 392.808304,1262.59812 C392.808304,1309.0857 355.446778,1346.77133 308.635096,1346.77133 C262.147517,1346.77133 224.461888,1309.4098 224.461888,1262.59812 C224.461888,1216.11054 261.823414,1178.42491 308.635096,1178.42491 L308.635096,1178.42491 Z M1402.8868,1262.59812 C1402.8868,1216.11054 1440.24833,1178.42491 1487.06001,1178.42491 C1533.54759,1178.42491 1571.23322,1215.78644 1571.23322,1262.59812 C1571.23322,1309.0857 1533.87169,1346.77133 1487.06001,1346.77133 C1440.57243,1346.77133 1402.8868,1309.4098 1402.8868,1262.59812 L1402.8868,1262.59812 Z M505.039248,1262.59812 C505.039248,1247.10226 517.049925,1234.54038 533.359854,1234.54038 L588.949586,1234.54038 C604.590625,1234.54038 617.270192,1247.55545 617.270192,1262.59812 C617.270192,1278.09398 605.259515,1290.65586 588.949586,1290.65586 L533.359854,1290.65586 C517.718815,1290.65586 505.039248,1277.64079 505.039248,1262.59812 L505.039248,1262.59812 Z M729.501136,1262.59812 C729.501136,1247.10226 741.511813,1234.54038 757.821742,1234.54038 L813.411474,1234.54038 C829.052513,1234.54038 841.73208,1247.55545 841.73208,1262.59812 C841.73208,1278.09398 829.721403,1290.65586 813.411474,1290.65586 L757.821742,1290.65586 C742.180703,1290.65586 729.501136,1277.64079 729.501136,1262.59812 L729.501136,1262.59812 Z M953.963024,1262.59812 C953.963024,1247.10226 965.973701,1234.54038 982.28363,1234.54038 L1037.87336,1234.54038 C1053.5144,1234.54038 1066.19397,1247.55545 1066.19397,1262.59812 C1066.19397,1278.09398 1054.18329,1290.65586 1037.87336,1290.65586 L982.28363,1290.65586 C966.642591,1290.65586 953.963024,1277.64079 953.963024,1262.59812 L953.963024,1262.59812 Z M1178.42491,1262.59812 C1178.42491,1247.10226 1190.43559,1234.54038 1206.74552,1234.54038 L1262.33525,1234.54038 C1277.97629,1234.54038 1290.65586,1247.55545 1290.65586,1262.59812 C1290.65586,1278.09398 1278.64518,1290.65586 1262.33525,1290.65586 L1206.74552,1290.65586 C1191.10448,1290.65586 1178.42491,1277.64079 1178.42491,1262.59812 L1178.42491,1262.59812 Z M337.810081,639.851597 C345.375533,650.383523 353.691027,660.502574 362.756566,670.126883 C362.756566,670.126883 391.82627,688.44442 392.808304,638.222852 C393.308356,612.649995 362.756566,571.088612 362.756566,571.088612 C350.700177,546.948768 342.826512,521.071751 339.135569,494.662916 L343.017512,494.662916 C339.587119,479.624606 337.552163,464.300803 336.912646,448.923776 C337.552163,433.546749 339.587119,418.222946 343.017512,403.184636 L339.135569,403.184636 C342.826512,376.775801 350.700177,350.898784 362.756566,326.75894 C362.756566,326.75894 393.308356,285.197557 392.808304,259.624699 C391.82627,209.403132 362.756566,227.720669 362.756566,227.720669 C353.691027,237.344978 345.375533,247.464029 337.810081,257.995955 C297.540168,314.056028 278.5212,381.814085 280.753178,448.923776 C278.5212,516.033467 297.540168,583.791524 337.810081,639.851597 L337.810081,639.851597 Z M112.302376,448.923776 C110.211631,328.498219 154.01673,207.391767 243.717674,115.498332 C243.717674,115.498332 280.57736,95.7718914 280.57736,153.258951 C280.57736,160.922834 243.717674,203.571104 243.717674,203.571104 C201.725732,262.4147 177.280165,330.297879 170.380974,399.666243 L172.351646,399.666243 C170.062707,416.0022 168.754843,432.454671 168.428054,448.923776 C168.754843,465.392881 170.062707,481.845352 172.351646,498.181309 L170.380974,498.181309 C177.280165,567.549673 201.725732,635.432852 243.717674,694.276448 C243.717674,694.276448 280.57736,736.924718 280.57736,744.588601 C280.57736,802.07566 243.717674,782.34922 243.717674,782.34922 C154.01673,690.455785 110.211631,569.349333 112.302376,448.923776 L112.302376,448.923776 L112.302376,448.923776 Z M784.505431,639.851597 C776.939979,650.383523 768.624484,660.502574 759.558946,670.126883 C759.558946,670.126883 730.489242,688.44442 729.507208,638.222852 C729.007156,612.649995 759.558946,571.088612 759.558946,571.088612 C771.615335,546.948768 779.489,521.071751 783.179943,494.662916 L779.298,494.662916 C782.728393,479.624606 784.763349,464.300803 785.402866,448.923776 C784.763349,433.546749 782.728393,418.222946 779.298,403.184636 L783.179943,403.184636 C779.489,376.775801 771.615335,350.898784 759.558946,326.75894 C759.558946,326.75894 729.007156,285.197557 729.507208,259.624699 C730.489242,209.403132 759.558946,227.720669 759.558946,227.720669 C768.624484,237.344978 776.939979,247.464029 784.505431,257.995955 C824.775344,314.056028 843.794312,381.814085 841.562334,448.923776 C843.794312,516.033467 824.775344,583.791524 784.505431,639.851597 L784.505431,639.851597 Z M1010.00706,448.923776 C1012.09781,328.498219 968.29271,207.391767 878.591766,115.498332 C878.591766,115.498332 841.73208,95.7718914 841.73208,153.258951 C841.73208,160.922834 878.591766,203.571104 878.591766,203.571104 C920.583708,262.4147 945.029275,330.297879 951.928465,399.666243 L949.957794,399.666243 C952.246733,416.0022 953.554597,432.454671 953.881386,448.923776 C953.554597,465.392881 952.246733,481.845352 949.957794,498.181309 L951.928465,498.181309 C945.029275,567.549673 920.583708,635.432852 878.591766,694.276448 C878.591766,694.276448 841.73208,736.924718 841.73208,744.588601 C841.73208,802.07566 878.591766,782.34922 878.591766,782.34922 C968.29271,690.455785 1012.09781,569.349333 1010.00706,448.923776 L1010.00706,448.923776 L1010.00706,448.923776 Z M308.635096,1290.65586 C324.130956,1290.65586 336.692832,1278.09398 336.692832,1262.59812 C336.692832,1247.10226 324.130956,1234.54038 308.635096,1234.54038 C293.139236,1234.54038 280.57736,1247.10226 280.57736,1262.59812 C280.57736,1278.09398 293.139236,1290.65586 308.635096,1290.65586 L308.635096,1290.65586 Z M1487.06001,1290.65586 C1502.55587,1290.65586 1515.11774,1278.09398 1515.11774,1262.59812 C1515.11774,1247.10226 1502.55587,1234.54038 1487.06001,1234.54038 C1471.56415,1234.54038 1459.00227,1247.10226 1459.00227,1262.59812 C1459.00227,1278.09398 1471.56415,1290.65586 1487.06001,1290.65586 L1487.06001,1290.65586 Z"></path>
        </g>
    </g>
</svg>