<?xml version="1.0" encoding="UTF-8"?>
<svg width="1792px" height="1792px" viewBox="0 0 1792 1792" version="1.1" xmlns="http://www.w3.org/2000/svg" xmlns:xlink="http://www.w3.org/1999/xlink">
    <!-- Generator: sketchtool 40 (33762) - http://www.bohemiancoding.com/sketch -->
    <title>fa-iot-sun</title>
    <desc>Created with sketchtool.</desc>
    <defs></defs>
    <g id="icons" stroke="none" stroke-width="1" fill="none" fill-rule="evenodd">
        <g id="fa-iot-sun" fill="#5E676F">
            <path d="M605.362583,1603.96873 L605.362583,1603.96873 C560.007819,1585.18217 528.39315,1583.25652 465.414825,1589.72243 C401.068333,1596.32879 375.133837,1596.13505 336.406256,1581.60465 C310.130892,1571.74627 285.910424,1555.65861 262.973459,1532.72164 C240.036495,1509.78468 223.948838,1485.56421 214.090451,1459.28885 C199.560054,1420.56127 199.366309,1394.62677 205.972678,1330.28028 C212.43858,1267.30195 210.512933,1235.68728 191.726374,1190.33252 C176.856578,1154.43366 157.650377,1129.05966 128.981185,1103.33372 C122.966172,1097.93622 116.666046,1092.60385 108.114627,1085.60227 C111.91387,1088.71295 91.0132186,1071.68578 85.7632242,1067.29768 C26.9861536,1018.17009 0,973.26943 0,897.847552 C0,822.425673 26.9861536,777.525019 85.7632242,728.397426 C91.0132186,724.009327 111.91387,706.982157 108.114627,710.092833 C116.666046,703.091255 122.966172,697.758884 128.981185,692.361387 C157.650377,666.635445 176.856578,641.261446 191.726374,605.362583 C210.512933,560.007819 212.43858,528.39315 205.972678,465.414825 C199.366309,401.068333 199.560054,375.133837 214.090451,336.406256 C223.948838,310.130892 240.036495,285.910424 262.973459,262.973459 C285.910424,240.036495 310.130892,223.948838 336.406256,214.090451 C375.133837,199.560054 401.068333,199.366309 465.414825,205.972678 C528.39315,212.43858 560.007819,210.512933 605.362583,191.726374 C641.261446,176.856578 666.635445,157.650377 692.361387,128.981185 C697.758884,122.966172 703.091255,116.666046 710.092833,108.114627 C706.982157,111.91387 724.009327,91.0132186 728.397426,85.7632242 C777.525019,26.9861536 822.425673,0 897.847552,0 C973.26943,0 1018.17009,26.9861536 1067.29768,85.7632242 C1071.68578,91.0132186 1088.71295,111.91387 1085.60227,108.114627 C1092.60385,116.666046 1097.93622,122.966172 1103.33372,128.981185 C1129.05966,157.650377 1154.43366,176.856578 1190.33252,191.726374 C1235.68728,210.512933 1267.30195,212.43858 1330.28028,205.972678 C1394.62677,199.366309 1420.56127,199.560054 1459.28885,214.090451 C1485.56421,223.948838 1509.78468,240.036495 1532.72164,262.973459 C1555.65861,285.910424 1571.74627,310.130892 1581.60465,336.406256 C1596.13505,375.133837 1596.32879,401.068333 1589.72243,465.414825 C1583.25652,528.39315 1585.18217,560.007819 1603.96873,605.362583 C1618.83853,641.261446 1638.04473,666.635445 1666.71392,692.361387 C1672.72893,697.758884 1679.02906,703.091255 1687.58048,710.092833 C1683.78123,706.982157 1704.68189,724.009327 1709.93188,728.397426 C1768.70895,777.525019 1795.6951,822.425673 1795.6951,897.847552 C1795.6951,973.26943 1768.70895,1018.17009 1709.93188,1067.29768 C1704.68189,1071.68578 1683.78123,1088.71295 1687.58048,1085.60227 C1679.02906,1092.60385 1672.72893,1097.93622 1666.71392,1103.33372 C1638.04473,1129.05966 1618.83853,1154.43366 1603.96873,1190.33252 C1585.18217,1235.68728 1583.25652,1267.30195 1589.72243,1330.28028 C1596.32879,1394.62677 1596.13505,1420.56127 1581.60465,1459.28885 C1571.74627,1485.56421 1555.65861,1509.78468 1532.72164,1532.72164 C1509.78468,1555.65861 1485.56421,1571.74627 1459.28885,1581.60465 C1420.56127,1596.13505 1394.62677,1596.32879 1330.28028,1589.72243 C1267.30195,1583.25652 1235.68728,1585.18217 1190.33252,1603.96873 C1154.43366,1618.83853 1129.05966,1638.04473 1103.33372,1666.71392 C1097.93622,1672.72893 1092.60385,1679.02906 1085.60227,1687.58048 C1088.71295,1683.78123 1071.68578,1704.68189 1067.29768,1709.93188 C1018.17009,1768.70895 973.26943,1795.6951 897.847552,1795.6951 C822.425673,1795.6951 777.525019,1768.70895 728.397426,1709.93188 C724.009327,1704.68189 706.982157,1683.78123 710.092833,1687.58048 C703.091255,1679.02906 697.758884,1672.72893 692.361387,1666.71392 C666.635445,1638.04473 641.261446,1618.83853 605.362583,1603.96873 L605.362583,1603.96873 Z M626.837045,1552.12479 C775.63566,1613.7592 762.342298,1739.57963 897.847552,1739.57963 C1033.35281,1739.57963 1020.05944,1613.7592 1168.85806,1552.12479 C1317.65667,1490.49039 1397.22533,1588.8587 1493.04201,1493.04201 C1588.8587,1397.22533 1490.49039,1317.65667 1552.12479,1168.85806 C1613.7592,1020.05944 1739.57963,1033.35281 1739.57963,897.847552 C1739.57963,762.342298 1613.7592,775.63566 1552.12479,626.837045 C1490.49039,478.038429 1588.8587,398.469774 1493.04201,302.65309 C1397.22533,206.836407 1317.65667,305.204715 1168.85806,243.57031 C1020.05944,181.935906 1033.35281,56.115472 897.847552,56.115472 C762.342298,56.115472 775.63566,181.935906 626.837045,243.57031 C478.038429,305.204715 398.469774,206.836407 302.65309,302.65309 C206.836407,398.469774 305.204715,478.038429 243.57031,626.837045 C181.935906,775.63566 56.115472,762.342298 56.115472,897.847552 C56.115472,1033.35281 181.935906,1020.05944 243.57031,1168.85806 C305.204715,1317.65667 206.836407,1397.22533 302.65309,1493.04201 C398.469774,1588.8587 478.038429,1490.49039 626.837045,1552.12479 L626.837045,1552.12479 Z M897.847552,1459.00227 C587.930358,1459.00227 336.692832,1207.76475 336.692832,897.847552 C336.692832,587.930358 587.930358,336.692832 897.847552,336.692832 C1207.76475,336.692832 1459.00227,587.930358 1459.00227,897.847552 C1459.00227,1207.76475 1207.76475,1459.00227 897.847552,1459.00227 L897.847552,1459.00227 Z M897.847552,1346.77133 C1145.78131,1346.77133 1346.77133,1145.78131 1346.77133,897.847552 C1346.77133,649.913797 1145.78131,448.923776 897.847552,448.923776 C649.913797,448.923776 448.923776,649.913797 448.923776,897.847552 C448.923776,1145.78131 649.913797,1346.77133 897.847552,1346.77133 L897.847552,1346.77133 Z"></path>
        </g>
    </g>
</svg>