<?xml version="1.0" encoding="UTF-8"?>
<svg width="32px" height="32px" viewBox="0 0 32 32" version="1.1" xmlns="http://www.w3.org/2000/svg" xmlns:xlink="http://www.w3.org/1999/xlink">
    <!-- Generator: sketchtool 40 (33762) - http://www.bohemiancoding.com/sketch -->
    <title>fa-iot-temperature</title>
    <desc>Created with sketchtool.</desc>
    <defs></defs>
    <g id="icons" stroke="none" stroke-width="1" fill="none" fill-rule="evenodd">
        <g transform="translate(-152.000000, -48.000000)" id="fa-iot-temperature" fill="#5E676F">
            <path d="M162,59.7789307 C158.989791,61.7416318 157,65.1384457 157,69 C157,75.0751322 161.924868,80 168,80 C174.075132,80 179,75.0751322 179,69 C179,65.1384457 177.010209,61.7416318 174,59.7789307 L174,53.9986759 C174,50.681938 171.313708,48 168,48 C164.693034,48 162,50.6856987 162,53.9986759 L162,59.7789307 L162,59.7789307 L162,59.7789307 Z M172,60.9355196 C174.963437,62.4082222 177,65.4662787 177,69 C177,73.9705627 172.970563,78 168,78 C163.029437,78 159,73.9705627 159,69 C159,65.4662787 161.036563,62.4082222 164,60.9355196 L164,53.9986759 C164,51.7930411 165.794829,50 168,50 C170.210731,50 172,51.7880992 172,53.9986759 L172,60.9355196 L172,60.9355196 L172,60.9355196 Z M166,61.7898787 C163.108511,62.6504279 161,65.3289794 161,68.5 C161,72.3659932 164.134007,75.5 168,75.5 C171.865993,75.5 175,72.3659932 175,68.5 C175,65.3289794 172.891489,62.6504279 170,61.7898787 L170,54.0058587 C170,52.8970601 169.104569,52 168,52 C166.88773,52 166,52.8980535 166,54.0058587 L166,61.7898787 L166,61.7898787 L166,61.7898787 Z M169,62.5829584 C171.837713,63.0590365 174,65.5270037 174,68.5 C174,71.8137085 171.313708,74.5 168,74.5 C164.686292,74.5 162,71.8137085 162,68.5 C162,65.5270037 164.162287,63.0590365 167,62.5829584 L167,54.0058587 C167,53.4464166 167.443929,53 168,53 C168.552048,53 169,53.4491106 169,54.0058587 L169,62.5829584 L169,62.5829584 L169,62.5829584 Z M169,72 C169,72.5 168,72.5 168,72.5 C165.790861,72.5 164,70.709139 164,68.5 C164,68.5 164,67.5 164.5,67.5 C165,67.5 165,68.1277791 165,68.5 C165,69.5 166.5,71.5 168,71.5 C168.7078,71.5 169,71.5 169,72 L169,72 Z"></path>
        </g>
    </g>
</svg>