<?xml version="1.0" encoding="UTF-8"?>
<svg width="1792px" height="1792px" viewBox="0 0 1792 1792" version="1.1" xmlns="http://www.w3.org/2000/svg" xmlns:xlink="http://www.w3.org/1999/xlink">
    <!-- Generator: sketchtool 40 (33762) - http://www.bohemiancoding.com/sketch -->
    <title>fa-iot-key</title>
    <desc>Created with sketchtool.</desc>
    <defs></defs>
    <g id="icons" stroke="none" stroke-width="1" fill="none" fill-rule="evenodd">
        <g id="fa-iot-key" fill="#5E676F">
            <path d="M1258.01395,56.0810263 C1225.80539,23.8724645 1168.63192,0.179088092 1123.35093,0.14912858 L898.003141,3.04705944e-05 C854.106019,-0.0290134257 797.215078,20.7080177 763.310542,49.0247552 L509.06986,261.364092 C468.822351,294.978419 448.426113,357.860366 461.072004,408.578404 L502.359913,574.169093 C527.604673,675.416583 487.063932,824.972614 414.094037,899.821981 L15.9890704,1308.18086 L2.14868123e-11,1324.58176 L0.0546542774,1347.48671 L0.455395177,1515.43242 L0.510670742,1538.59775 L16.8910766,1554.97815 L241.352942,1779.44002 L257.733348,1795.82042 L280.898674,1795.8757 L448.844379,1796.27644 L472.536521,1796.33297 L489.100479,1779.39319 L887.750956,1371.69777 C961.769082,1296.00026 1112.35397,1246.9074 1217.15415,1264.51623 L1335.52532,1284.40529 C1382.07529,1292.22675 1442.48154,1275.73422 1478.86023,1245.3511 L1733.10093,1033.01179 C1769.56006,1002.56149 1796.36219,945.416788 1796.33103,898.327934 L1796.18192,672.980119 C1796.15169,627.299734 1772.72604,570.793111 1740.25002,538.317093 L1258.01395,56.0810263 Z M112.591883,1475.71315 L112.285279,1347.21892 L494.45583,978.165884 C594.556641,875.486794 645.915805,686.021273 611.256885,547.017033 L569.968975,381.426344 C567.709268,372.363484 573.825843,353.50598 581.012715,347.503574 L835.253397,135.164237 C849.013971,123.67154 880.432381,112.219374 897.928885,112.23095 L1123.27667,112.380048 C1138.82442,112.390335 1167.47993,124.265525 1178.65469,135.440288 L1660.89076,617.676355 C1672.3367,629.122296 1683.94045,657.112499 1683.951,673.054382 L1684.10011,898.402196 C1684.1092,912.142078 1672.11012,937.725266 1661.15808,946.872301 L1406.91738,1159.21161 C1395.63096,1168.63791 1368.28179,1176.10498 1354.122,1173.72581 L1235.75083,1153.83675 C1094.71346,1130.13924 907.209916,1191.26811 807.506554,1293.23364 L449.112177,1684.04581 L320.617918,1683.73921 L320.617918,1683.73921 L806.175196,1198.18193 L766.495565,1158.5023 L261.259632,1663.73823 L132.592848,1535.07145 L637.828781,1029.83552 L598.14915,990.155886 L112.591883,1475.71315 L112.591883,1475.71315 Z M1031.22111,419.957302 C1075.05002,376.128392 1145.75854,375.776209 1190.1745,420.192168 L1308.74366,538.761328 C1352.70229,582.719951 1353.11301,653.58024 1308.97853,697.714717 C1265.14962,741.543627 1194.4411,741.89581 1150.02514,697.479852 L1031.45598,578.910691 C987.497357,534.952068 987.086637,464.091779 1031.22111,419.957302 Z M1070.90074,459.636933 C1048.83632,481.701361 1048.93556,517.031014 1071.13561,539.23106 L1189.70477,657.800221 C1212.03924,680.134694 1247.21726,680.116724 1269.2989,658.035087 C1291.36333,635.970659 1291.26408,600.641006 1269.06403,578.440959 L1150.49487,459.871799 C1128.1604,437.537326 1092.98238,437.555296 1070.90074,459.636933 Z"></path>
        </g>
    </g>
</svg>