<?xml version="1.0" encoding="UTF-8"?>
<svg width="32px" height="32px" viewBox="0 0 32 32" version="1.1" xmlns="http://www.w3.org/2000/svg" xmlns:xlink="http://www.w3.org/1999/xlink">
    <!-- Generator: sketchtool 40 (33762) - http://www.bohemiancoding.com/sketch -->
    <title>fa-iot-router</title>
    <desc>Created with sketchtool.</desc>
    <defs></defs>
    <g id="icons" stroke="none" stroke-width="1" fill="none" fill-rule="evenodd">
        <g transform="translate(-100.000000, -309.000000)" id="fa-iot-router" fill="#5E676F">
            <path d="M111.710276,326 C111.821067,325.745837 111.871437,325.457247 111.845942,325.151298 L111.083539,316.002473 C111.03798,315.455761 110.552285,315 110,315 C109.443865,315 108.962598,315.448823 108.916461,316.002473 L108.154058,325.151298 C108.128533,325.457599 108.178997,325.746084 108.289764,326 L104.004258,326 C101.789028,326 100,327.791922 100,330.002369 L100,332.997631 C100,335.208178 101.792767,337 104.004258,337 L127.995742,337 C130.210972,337 132,335.208078 132,332.997631 L132,330.002369 C132,327.791822 130.207233,326 127.995742,326 L111.710276,326 L111.710276,326 L111.710276,326 Z M102,330.002369 L102,332.997631 C102,334.103355 102.897083,335 104.004258,335 L127.995742,335 C129.105034,335 130,334.104878 130,332.997631 L130,330.002369 C130,328.896645 129.102917,328 127.995742,328 L104.004258,328 C102.894966,328 102,328.895122 102,330.002369 L102,330.002369 Z M105.5,330 C106.328427,330 107,330.665797 107,331.5 C107,332.328427 106.334203,333 105.5,333 C104.671573,333 104,332.334203 104,331.5 C104,330.671573 104.665797,330 105.5,330 L105.5,330 Z M125,331.5 C125,330.671573 125.665797,330 126.5,330 C127.328427,330 128,330.665797 128,331.5 C128,332.328427 127.334203,333 126.5,333 C125.671573,333 125,332.334203 125,331.5 L125,331.5 Z M109,331.5 C109,331.223858 109.214035,331 109.504684,331 L110.495316,331 C110.774045,331 111,331.231934 111,331.5 C111,331.776142 110.785965,332 110.495316,332 L109.504684,332 C109.225955,332 109,331.768066 109,331.5 L109,331.5 Z M113,331.5 C113,331.223858 113.214035,331 113.504684,331 L114.495316,331 C114.774045,331 115,331.231934 115,331.5 C115,331.776142 114.785965,332 114.495316,332 L113.504684,332 C113.225955,332 113,331.768066 113,331.5 L113,331.5 Z M117,331.5 C117,331.223858 117.214035,331 117.504684,331 L118.495316,331 C118.774045,331 119,331.231934 119,331.5 C119,331.776142 118.785965,332 118.495316,332 L117.504684,332 C117.225955,332 117,331.768066 117,331.5 L117,331.5 Z M121,331.5 C121,331.223858 121.214035,331 121.504684,331 L122.495316,331 C122.774045,331 123,331.231934 123,331.5 C123,331.776142 122.785965,332 122.495316,332 L121.504684,332 C121.225955,332 121,331.768066 121,331.5 L121,331.5 Z M106.01991,320.40241 C106.154729,320.590093 106.302915,320.770418 106.464466,320.941927 C106.464466,320.941927 106.9825,321.268353 107,320.373385 C107.008911,319.917666 106.464466,319.177026 106.464466,319.177026 C106.249616,318.746844 106.109305,318.285706 106.043531,317.81509 L106.112708,317.81509 C106.051577,317.547101 106.015314,317.274025 106.003917,317 C106.015314,316.725975 106.051577,316.452899 106.112708,316.18491 L106.043531,316.18491 C106.109305,315.714294 106.249616,315.253156 106.464466,314.822974 C106.464466,314.822974 107.008911,314.082334 107,313.626615 C106.9825,312.731647 106.464466,313.058073 106.464466,313.058073 C106.302915,313.229582 106.154729,313.409907 106.01991,313.59759 C105.302284,314.596603 104.963358,315.804079 105.003133,317 C104.963358,318.195921 105.302284,319.403397 106.01991,320.40241 L106.01991,320.40241 Z M102.001273,317 C101.964015,314.853969 102.744639,312.695804 104.343146,311.058226 C104.343146,311.058226 105,310.706693 105,311.731135 C105,311.867709 104.343146,312.627718 104.343146,312.627718 C103.594833,313.676334 103.159203,314.886039 103.036257,316.122211 L103.071375,316.122211 C103.030585,316.413324 103.007278,316.706514 103.001455,317 C103.007278,317.293486 103.030585,317.586676 103.071375,317.877789 L103.036257,317.877789 C103.159203,319.113961 103.594833,320.323666 104.343146,321.372282 C104.343146,321.372282 105,322.132291 105,322.268865 C105,323.293307 104.343146,322.941774 104.343146,322.941774 C102.744639,321.304196 101.964015,319.146031 102.001273,317 L102.001273,317 L102.001273,317 Z M113.980198,320.40241 C113.845379,320.590093 113.697194,320.770418 113.535642,320.941927 C113.535642,320.941927 113.017608,321.268353 113.000108,320.373385 C112.991197,319.917666 113.535642,319.177026 113.535642,319.177026 C113.750492,318.746844 113.890804,318.285706 113.956578,317.81509 L113.8874,317.81509 C113.948531,317.547101 113.984795,317.274025 113.996191,317 C113.984795,316.725975 113.948531,316.452899 113.8874,316.18491 L113.956578,316.18491 C113.890804,315.714294 113.750492,315.253156 113.535642,314.822974 C113.535642,314.822974 112.991197,314.082334 113.000108,313.626615 C113.017608,312.731647 113.535642,313.058073 113.535642,313.058073 C113.697194,313.229582 113.845379,313.409907 113.980198,313.59759 C114.697824,314.596603 115.03675,315.804079 114.996975,317 C115.03675,318.195921 114.697824,319.403397 113.980198,320.40241 L113.980198,320.40241 Z M117.998727,317 C118.035985,314.853969 117.255361,312.695804 115.656854,311.058226 C115.656854,311.058226 115,310.706693 115,311.731135 C115,311.867709 115.656854,312.627718 115.656854,312.627718 C116.405167,313.676334 116.840797,314.886039 116.963743,316.122211 L116.928625,316.122211 C116.969415,316.413324 116.992722,316.706514 116.998545,317 C116.992722,317.293486 116.969415,317.586676 116.928625,317.877789 L116.963743,317.877789 C116.840797,319.113961 116.405167,320.323666 115.656854,321.372282 C115.656854,321.372282 115,322.132291 115,322.268865 C115,323.293307 115.656854,322.941774 115.656854,322.941774 C117.255361,321.304196 118.035985,319.146031 117.998727,317 L117.998727,317 L117.998727,317 Z M105.5,332 C105.776142,332 106,331.776142 106,331.5 C106,331.223858 105.776142,331 105.5,331 C105.223858,331 105,331.223858 105,331.5 C105,331.776142 105.223858,332 105.5,332 L105.5,332 Z M126.5,332 C126.776142,332 127,331.776142 127,331.5 C127,331.223858 126.776142,331 126.5,331 C126.223858,331 126,331.223858 126,331.5 C126,331.776142 126.223858,332 126.5,332 L126.5,332 Z"></path>
        </g>
    </g>
</svg>