<?xml version="1.0" encoding="UTF-8"?>
<svg width="32px" height="32px" viewBox="0 0 32 32" version="1.1" xmlns="http://www.w3.org/2000/svg" xmlns:xlink="http://www.w3.org/1999/xlink">
    <!-- Generator: sketchtool 40 (33762) - http://www.bohemiancoding.com/sketch -->
    <title>fa-iot-air-cond-out</title>
    <desc>Created with sketchtool.</desc>
    <defs></defs>
    <g id="icons" stroke="none" stroke-width="1" fill="none" fill-rule="evenodd">
        <g transform="translate(-204.000000, -308.000000)" id="fa-iot-air-cond-out" fill="#5E676F">
            <path d="M235,327.085353 L235,320.914647 L235,320.914647 C235.582596,320.708729 236,320.153109 236,319.5 C236,318.846891 235.582596,318.291271 235,318.085353 L235,314.991155 C235,313.33763 233.660102,312 232.006713,312 L206.993287,312 C205.345714,312 204,313.340888 204,314.991155 L204,333.008845 C204,334.66237 205.339898,336 206.993287,336 L232.006713,336 C233.654286,336 235,334.659112 235,333.008845 L235,329.914647 C235.582596,329.708729 236,329.153109 236,328.5 C236,327.846891 235.582596,327.291271 235,327.085353 L235,327.085353 L235,327.085353 Z M212.123993,331 C211.209368,330.492475 210.404669,329.810898 209.754629,329 L208,329 L208,328 L209.070258,328 C208.712178,327.380987 208.434658,326.709542 208.252035,326 L208,326 L208,325 L208.061894,325 L208.061894,325 C208.021043,324.672406 208,324.33866 208,324 C208,323.66134 208.021043,323.327594 208.061894,323 L208,323 L208,322 L208.252035,322 C208.434658,321.290458 208.712178,320.619013 209.070258,320 L209.070258,320 L208,320 L208,319 L209.754629,319 C210.404669,318.189102 211.209368,317.507525 212.123993,317 L208,317 L208,316 L224,316 L224,317 L219.876007,317 L219.876007,317 C220.790632,317.507525 221.595331,318.189102 222.245371,319 L224,319 L224,320 L222.929742,320 C223.287822,320.619013 223.565342,321.290458 223.747965,322 L223.747965,322 L224,322 L224,323 L223.938106,323 C223.978957,323.327594 224,323.66134 224,324 C224,324.33866 223.978957,324.672406 223.938106,325 L224,325 L224,326 L223.747965,326 C223.565342,326.709542 223.287822,327.380987 222.929742,328 L222.929742,328 L224,328 L224,329 L222.245371,329 C221.595331,329.810898 220.790632,330.492475 219.876007,331 L224,331 L224,332 L208,332 L208,331 L212.123993,331 L212.123993,331 L212.123993,331 Z M221.745311,328 C222.166619,327.395993 222.495114,326.722435 222.710121,326 L222.710121,326 L209.289879,326 C209.504886,326.722435 209.833381,327.395993 210.254689,328 L209.070258,328 L221.745311,328 L221.745311,328 Z M220.898983,329 C219.636446,330.237187 217.907305,331 216,331 C214.092695,331 212.363554,330.237187 211.101017,329 L209.754629,329 L220.898983,329 L220.898983,329 Z M222.929111,325 C222.975828,324.673397 223,324.339521 223,324 C223,323.660479 222.975828,323.326603 222.929111,323 L222.929111,323 L209.070889,323 C209.024172,323.326603 209,323.660479 209,324 C209,324.339521 209.024172,324.673397 209.070889,325 L222.929111,325 L222.929111,325 L222.929111,325 Z M222.710121,322 C222.495114,321.277565 222.166619,320.604007 221.745311,320 L221.745311,320 L210.254689,320 C209.833381,320.604007 209.504886,321.277565 209.289879,322 L222.710121,322 L222.710121,322 L222.710121,322 Z M220.898983,319 C219.636446,317.762813 217.907305,317 216,317 C214.092695,317 212.363554,317.762813 211.101017,319 L220.898983,319 L220.898983,319 Z M206,314.991155 C206,314.447069 206.448678,314 206.993287,314 L232.006713,314 C232.55629,314 233,314.442959 233,314.991155 L233,333.008845 C233,333.552931 232.551322,334 232.006713,334 L206.993287,334 C206.44371,334 206,333.557041 206,333.008845 L206,314.991155 L206,314.991155 Z M225,317.991884 C225,316.891797 225.898261,316 226.997913,316 L229.002087,316 C230.105504,316 231,316.893397 231,317.991884 L231,329.008116 C231,330.108203 230.101739,331 229.002087,331 L226.997913,331 C225.894496,331 225,330.106603 225,329.008116 L225,317.991884 L225,317.991884 Z M226,317.991884 L226,329.008116 C226,329.554318 226.446783,330 226.997913,330 L229.002087,330 C229.55172,330 230,329.553654 230,329.008116 L230,317.991884 C230,317.445682 229.553217,317 229.002087,317 L226.997913,317 C226.44828,317 226,317.446346 226,317.991884 L226,317.991884 Z"></path>
        </g>
    </g>
</svg>