<?xml version="1.0" encoding="UTF-8"?>
<svg width="1792px" height="1792px" viewBox="0 0 1792 1792" version="1.1" xmlns="http://www.w3.org/2000/svg" xmlns:xlink="http://www.w3.org/1999/xlink">
    <!-- Generator: sketchtool 40 (33762) - http://www.bohemiancoding.com/sketch -->
    <title>fa-iot-weather</title>
    <desc>Created with sketchtool.</desc>
    <defs></defs>
    <g id="icons" stroke="none" stroke-width="1" fill="none" fill-rule="evenodd">
        <g id="fa-iot-weather" fill="#5E676F">
            <path d="M1335.28928,1014.64847 C1320.5243,1011.64441 1305.59008,1010.0785 1290.65586,1010.0785 C1290.65586,971.215492 1285.71757,933.505885 1276.43428,897.542948 C1440.46782,890.306185 1571.23322,755.030268 1571.23322,589.212456 C1571.23322,418.757999 1433.05258,280.57736 1262.59812,280.57736 C1096.78031,280.57736 961.504391,411.342757 954.267624,575.376295 C918.30469,566.093002 880.595084,561.15472 841.73208,561.15472 C824.253728,561.15472 806.921659,562.190942 789.807034,564.207505 C794.016028,554.30108 801.801447,545.880706 814.933918,534.904203 C810.235355,538.831399 835.52592,518.124441 842.503873,511.862861 C866.157104,490.63793 883.210695,468.107822 895.953743,437.343382 C912.001478,398.600723 913.711251,370.53021 908.877436,323.448528 C905.904021,294.487258 905.973948,285.126963 910.136961,274.031365 C912.846956,266.80847 917.591616,259.665236 925.321258,251.935594 C933.0509,244.205952 940.194134,239.461292 947.417029,236.751297 C958.512626,232.588284 967.872922,232.518357 996.834191,235.491773 C1043.91587,240.325587 1071.98639,238.615814 1110.72905,222.568079 C1141.49349,209.825031 1164.02359,192.77144 1185.24853,169.118209 C1191.5101,162.140256 1212.21706,136.849692 1208.28987,141.548254 C1227.11432,119.026368 1238.42082,112.230944 1262.59812,112.230944 C1286.77542,112.230944 1298.08192,119.026368 1316.90637,141.548254 C1312.97918,136.849692 1333.68613,162.140256 1339.94771,169.118209 C1361.17265,192.77144 1383.70275,209.825031 1414.46719,222.568079 C1453.20985,238.615814 1481.28037,240.325587 1528.36205,235.491773 C1557.32332,232.518357 1566.68361,232.588284 1577.77921,236.751297 C1585.00211,239.461292 1592.14534,244.205952 1599.87498,251.935594 C1607.60462,259.665236 1612.34928,266.80847 1615.05928,274.031365 C1619.22229,285.126963 1619.29222,294.487258 1616.3188,323.448528 C1611.48499,370.53021 1613.19476,398.600723 1629.2425,437.343382 C1641.98554,468.107822 1659.03914,490.63793 1682.69237,511.862861 C1689.67032,518.124441 1714.96088,538.831399 1710.26232,534.904203 C1732.78421,553.728654 1739.57963,565.035155 1739.57963,589.212456 C1739.57963,613.389757 1732.78421,624.696258 1710.26232,643.520709 C1714.96088,639.593513 1689.67032,660.300471 1682.69237,666.56205 C1659.03914,687.786982 1641.98554,710.31709 1629.2425,741.081529 C1613.19476,779.824189 1611.48499,807.894702 1616.3188,854.976384 C1619.29222,883.937653 1619.22229,893.297949 1615.05928,904.393547 C1612.34928,911.616442 1607.60462,918.759675 1599.87498,926.489317 C1592.14534,934.21896 1585.00211,938.96362 1577.77921,941.673614 C1566.68361,945.836628 1557.32332,945.906554 1528.36205,942.933139 C1481.28037,938.099325 1453.20985,939.809098 1414.46719,955.856833 C1380.83267,969.78871 1359.19086,986.950473 1335.28929,1014.64847 Z M1393.82989,1034.40365 C1492.40057,1081.2968 1571.23322,1190.93736 1571.23322,1318.71359 C1571.23322,1489.16805 1433.05258,1627.34869 1262.59812,1627.34869 L392.808304,1627.34869 C175.866268,1627.34869 0,1451.48242 0,1234.54038 C0,1017.59835 224.461888,841.73208 420.86604,841.73208 C474.975414,710.746231 591.956629,611.041979 730.074262,575.39382 C733.14246,540.165619 748.629599,517.187574 778.946286,491.848 C775.227654,494.956142 799.159015,475.362049 805.026079,470.097312 C822.814114,454.135441 834.84055,438.246886 844.109807,415.868921 C855.815905,387.607899 857.021692,367.811669 853.055399,329.179702 C849.181615,291.448773 849.293651,276.451748 857.597778,254.318922 C863.221443,239.330279 872.427861,225.46973 885.641627,212.255964 C898.855394,199.042197 912.715943,189.835779 927.704586,184.212114 C949.837412,175.907987 964.834437,175.795951 1002.56537,179.669735 C1041.19733,183.636028 1060.99356,182.430242 1089.25458,170.724143 C1111.63255,161.454886 1127.5211,149.42845 1143.48298,131.640415 C1148.74771,125.773351 1168.34181,101.841991 1165.23366,105.560622 C1193.74185,71.4529579 1219.26098,56.115472 1262.59812,56.115472 C1305.93526,56.115472 1331.45439,71.4529579 1359.96258,105.560622 C1356.85443,101.841991 1376.44853,125.773351 1381.71326,131.640415 C1397.67513,149.42845 1413.56369,161.454886 1435.94165,170.724143 C1464.20268,182.430242 1483.99891,183.636028 1522.63087,179.669735 C1560.3618,175.795951 1575.35883,175.907987 1597.49165,184.212114 C1612.4803,189.835779 1626.34085,199.042197 1639.55461,212.255964 C1652.76838,225.46973 1661.9748,239.330279 1667.59846,254.318922 C1675.90259,276.451748 1676.01462,291.448773 1672.14084,329.179702 C1668.17455,367.811669 1669.38033,387.607899 1681.08643,415.868921 C1690.35569,438.246886 1702.38213,454.135441 1720.17016,470.097312 C1726.03722,475.362049 1749.96858,494.956142 1746.24995,491.848 C1780.35762,520.356183 1795.6951,545.875313 1795.6951,589.212456 C1795.6951,632.549599 1780.35762,658.068729 1746.24995,686.576911 C1749.96858,683.46877 1726.03722,703.062863 1720.17016,708.3276 C1702.38213,724.289471 1690.35569,740.178026 1681.08643,762.555991 C1669.38033,790.817013 1668.17455,810.613243 1672.14084,849.245209 C1676.01462,886.976139 1675.90259,901.973163 1667.59846,924.105989 C1661.9748,939.094633 1652.76838,952.955182 1639.55461,966.168948 C1626.34085,979.382714 1612.4803,988.589133 1597.49165,994.212798 C1575.35883,1002.51692 1560.3618,1002.62896 1522.63087,998.755176 C1483.99891,994.788883 1464.20268,995.99467 1435.94165,1007.70077 C1418.89683,1014.76097 1406.26958,1022.79516 1393.82989,1034.40365 Z M1262.59813,853.509875 C1217.19971,731.525562 1120.28501,634.610863 998.3007,589.212445 L1010.0785,589.212456 C1010.0785,449.749719 1123.13538,336.692832 1262.59812,336.692832 C1402.06086,336.692832 1515.11774,449.749719 1515.11774,589.212456 C1515.11774,728.675193 1402.06086,841.73208 1262.59812,841.73208 L1262.59812,853.509847 Z M517.170253,920.141671 C557.154776,775.476021 689.379549,673.385664 841.73208,673.385664 C1027.6824,673.385664 1178.42491,824.128179 1178.42491,1010.0785 C1178.42491,1026.92272 1177.19243,1043.59287 1174.75622,1060.00567 C1169.29538,1096.7955 1200.48539,1128.62296 1237.37816,1123.90744 C1245.68406,1122.84581 1254.10036,1122.30944 1262.59812,1122.30944 C1371.06914,1122.30944 1459.00227,1210.24257 1459.00227,1318.71359 C1459.00227,1427.18461 1371.06914,1515.11774 1262.59812,1515.11774 L392.808304,1515.11774 C237.849707,1515.11774 112.230944,1389.49898 112.230944,1234.54038 C112.230944,1079.58179 237.849707,953.963024 392.808304,953.963024 C412.718141,953.963024 432.324822,956.02791 451.427489,960.084002 C480.455761,966.247609 509.264595,948.744664 517.170253,920.141671 Z"></path>
        </g>
    </g>
</svg>