<?xml version="1.0" encoding="UTF-8"?>
<svg width="32px" height="32px" viewBox="0 0 32 32" version="1.1" xmlns="http://www.w3.org/2000/svg" xmlns:xlink="http://www.w3.org/1999/xlink">
    <!-- Generator: sketchtool 40 (33762) - http://www.bohemiancoding.com/sketch -->
    <title>fa-iot-ip-camera</title>
    <desc>Created with sketchtool.</desc>
    <defs></defs>
    <g id="icons" stroke="none" stroke-width="1" fill="none" fill-rule="evenodd">
        <g transform="translate(-152.000000, -308.000000)" id="fa-iot-ip-camera" fill="#5E676F">
            <path d="M156,315.996839 C156,313.789446 157.784293,312 159.990053,312 L176.009947,312 C178.213592,312 180,313.79412 180,315.996839 L180,336.003161 C180,338.210554 178.215707,340 176.009947,340 L159.990053,340 C157.786408,340 156,338.20588 156,336.003161 L156,315.996839 L156,315.996839 Z M158,315.996839 L158,336.003161 C158,337.104045 158.893711,338 159.990053,338 L176.009947,338 C177.109481,338 178,337.10764 178,336.003161 L178,315.996839 C178,314.895955 177.106289,314 176.009947,314 L159.990053,314 C158.890519,314 158,314.89236 158,315.996839 L158,315.996839 Z M168,329 C165.238576,329 163,326.761424 163,324 C163,321.238576 165.238576,319 168,319 C170.761424,319 173,321.238576 173,324 C173,326.761424 170.761424,329 168,329 L168,329 Z M168,328 C170.209139,328 172,326.209139 172,324 C172,321.790861 170.209139,320 168,320 C165.790861,320 164,321.790861 164,324 C164,326.209139 165.790861,328 168,328 L168,328 Z M168,326 C166.895431,326 166,325.104569 166,324 C166,322.895431 166.895431,322 168,322 C169.104569,322 170,322.895431 170,324 C170,325.104569 169.104569,326 168,326 L168,326 Z M168,325 C168.552285,325 169,324.552285 169,324 C169,323.447715 168.552285,323 168,323 C167.447715,323 167,323.447715 167,324 C167,324.552285 167.447715,325 168,325 L168,325 Z M182,314 C182,314 182,315 183,315 C184,315 184,314 184,314 L184,311.990053 C184,309.784293 181.954919,308 179.432184,308 L156.567816,308 C154.050423,308 152,309.786408 152,311.990053 L152,314 C152,314 152,315 153,315 C154,315 154,314 154,314 L154,311.990053 C154,310.957667 155.097224,310 156.567816,310 L179.432184,310 C180.906945,310 182,310.95445 182,311.990053 L182,314 L182,314 Z M174.5,319 C173.671573,319 173,318.328427 173,317.5 C173,316.671573 173.671573,316 174.5,316 C175.328427,316 176,316.671573 176,317.5 C176,318.328427 175.328427,319 174.5,319 L174.5,319 Z M162,334.5 C162,333.667234 162.679627,333 163.50965,333 L172.49035,333 C173.319508,333 174,333.675056 174,334.5 C174,335.332766 173.320373,336 172.49035,336 L163.50965,336 C162.680492,336 162,335.324944 162,334.5 L162,334.5 Z M163,334.5 C163,334.768066 163.228178,335 163.50965,335 L172.49035,335 C172.772347,335 173,334.776142 173,334.5 C173,334.231934 172.771822,334 172.49035,334 L163.50965,334 C163.227653,334 163,334.223858 163,334.5 L163,334.5 Z M174.5,318 C174.776142,318 175,317.776142 175,317.5 C175,317.223858 174.776142,317 174.5,317 C174.223858,317 174,317.223858 174,317.5 C174,317.776142 174.223858,318 174.5,318 L174.5,318 Z"></path>
        </g>
    </g>
</svg>