<?xml version="1.0" encoding="UTF-8"?>
<svg width="32px" height="32px" viewBox="0 0 32 32" version="1.1" xmlns="http://www.w3.org/2000/svg" xmlns:xlink="http://www.w3.org/1999/xlink">
    <!-- Generator: sketchtool 40 (33762) - http://www.bohemiancoding.com/sketch -->
    <title>fa-iot-tv</title>
    <desc>Created with sketchtool.</desc>
    <defs></defs>
    <g id="icons" stroke="none" stroke-width="1" fill="none" fill-rule="evenodd">
        <g transform="translate(-204.000000, -152.000000)" id="fa-iot-tv" fill="#5E676F">
            <path d="M226.259248,177 C226.731035,177.345728 226.979842,178 226.979842,178 L222.5,178 L213.020158,178 C213.020158,178 213.268965,177.345728 213.740752,177 L226.259248,177 L226.259248,177 L226.259248,177 Z M228.718642,176.999999 C229.319011,178.426718 228.974539,180 227.531236,180 L222,180 L212.468764,180 C211.025461,180 210.680989,178.426718 211.281358,176.999999 L206.9961,177 C205.3414,177 204,175.65441 204,173.991212 L204,159.008788 C204,157.34708 205.33426,156 206.9961,156 L233.0039,156 C234.6586,156 236,157.34559 236,159.008788 L236,173.991212 C236,175.65292 234.66574,177 233.0039,177 L228.718639,177 L228.718642,176.999999 L228.718642,176.999999 Z M206,159.008788 L206,173.991212 C206,174.551061 206.447199,175 206.9961,175 L233.0039,175 C233.556067,175 234,174.553452 234,173.991212 L234,159.008788 C234,158.448939 233.552801,158 233.0039,158 L206.9961,158 C206.443933,158 206,158.446548 206,159.008788 L206,159.008788 Z M207,160.991884 C207,159.891797 207.894979,159 208.997005,159 L231.002995,159 C232.105911,159 233,159.893397 233,160.991884 L233,172.008116 C233,173.108203 232.105021,174 231.002995,174 L208.997005,174 C207.894089,174 207,173.106603 207,172.008116 L207,160.991884 L207,160.991884 Z M208,160.991884 L208,172.008116 C208,172.55442 208.446478,173 208.997005,173 L231.002995,173 C231.553686,173 232,172.554967 232,172.008116 L232,160.991884 C232,160.44558 231.553522,160 231.002995,160 L208.997005,160 C208.446314,160 208,160.445033 208,160.991884 L208,160.991884 Z"></path>
        </g>
    </g>
</svg>