<?xml version="1.0" encoding="UTF-8"?>
<svg width="32px" height="32px" viewBox="0 0 32 32" version="1.1" xmlns="http://www.w3.org/2000/svg" xmlns:xlink="http://www.w3.org/1999/xlink">
    <!-- Generator: sketchtool 40 (33762) - http://www.bohemiancoding.com/sketch -->
    <title>fa-iot-key</title>
    <desc>Created with sketchtool.</desc>
    <defs></defs>
    <g id="icons" stroke="none" stroke-width="1" fill="none" fill-rule="evenodd">
        <g id="fa-iot-key" fill="#5E676F">
            <path d="M22.4183083,0.999386165 C21.844339,0.425416799 20.825485,0.00319142094 20.0185598,0.00265753053 L16.0027727,5.42998095e-07 C15.2205085,-0.00051703077 14.2066893,0.369025101 13.602497,0.87364061 L9.07182711,4.65761193 C8.35460051,5.25663259 7.99113145,6.37721387 8.21648624,7.28102944 L8.9522532,10.2319213 C9.40212485,12.0361918 8.67967273,14.7013397 7.37932022,16.0351851 L0.284931585,23.3123026 L3.83693077e-13,23.6045731 L0.000973960932,24.0127485 L0.00811532294,27.0056076 L0.00910035546,27.418423 L0.301005695,27.7103283 L4.30100529,31.7103279 L4.59291063,32.0022332 L5.00572594,32.0032183 L7.99858512,32.0103596 L8.42078849,32.0113671 L8.71596481,31.7094935 L15.8200747,24.4441991 C17.1391071,23.0952393 19.8225895,22.2203852 21.6901703,22.5341815 L23.7995917,22.8886125 C24.6291307,23.027994 25.7055939,22.7340906 26.3538767,22.1926512 L30.8845469,18.4086804 C31.5342631,17.8660439 32.0118878,16.8477027 32.0113325,16.0085606 L32.0086753,11.992773 C32.0081366,11.1787304 31.5906821,10.1717599 31.0119466,9.59302442 L22.4183083,0.999386165 Z M2.00643208,26.2977945 L2.00096827,24.0079762 L8.81139928,17.4313046 C10.5952355,15.6015224 11.5104762,12.2251716 10.8928405,9.74806081 L10.1570735,6.79716895 C10.1168046,6.63566519 10.2258044,6.29961697 10.3538774,6.19265172 L14.8845473,2.4086804 C15.1297662,2.20387596 15.6896547,1.99979381 16.0014494,2.00000011 L20.0172365,2.00265709 C20.2943034,2.00284041 20.8049561,2.21446102 21.0040948,2.41359973 L29.597733,11.007238 C29.8017042,11.2112092 30.0084877,11.7100057 30.0086757,11.9940964 L30.0113329,16.009884 C30.011495,16.2547341 29.7976665,16.7106367 29.6024968,16.8736405 L25.0718266,20.6576113 C24.8706981,20.8255918 24.3833249,20.9586578 24.130992,20.9162601 L22.0215706,20.5618291 C19.5082287,20.1395302 16.166841,21.2288709 14.3900875,23.0459371 L8.00335737,30.0103653 L5.71353864,30.0049015 L5.71353864,30.0049015 L14.3663622,21.3520779 L13.6592554,20.6449712 L4.65575041,29.6484762 L2.36285721,27.355583 L11.3663622,18.352078 L10.6592554,17.6449712 L2.00643208,26.2977945 L2.00643208,26.2977945 Z M18.3767698,7.48380593 C19.1578184,6.70275735 20.4178723,6.6964813 21.2093824,7.48799133 L23.3223319,9.60094087 C24.105692,10.384301 24.1130112,11.6470595 23.3265173,12.4335534 C22.5454687,13.214602 21.2854148,13.220878 20.4939048,12.429368 L18.3809553,10.3164185 C17.5975951,9.53305834 17.5902759,8.27029984 18.3767698,7.48380593 Z M19.0838766,8.19091271 C18.6906798,8.58410958 18.6924484,9.21369803 19.088062,9.60931168 L21.2010116,11.7222612 C21.5990207,12.1202704 22.225907,12.1199502 22.6194105,11.7264466 C23.0126074,11.3332497 23.0108388,10.7036613 22.6152251,10.3080477 L20.5022756,8.19509811 C20.1042664,7.79708894 19.4773802,7.79740917 19.0838766,8.19091271 Z"></path>
        </g>
    </g>
</svg>