<?xml version="1.0" encoding="UTF-8"?>
<svg width="32px" height="32px" viewBox="0 0 32 32" version="1.1" xmlns="http://www.w3.org/2000/svg" xmlns:xlink="http://www.w3.org/1999/xlink">
    <!-- Generator: sketchtool 40 (33762) - http://www.bohemiancoding.com/sketch -->
    <title>fa-iot-lock-b</title>
    <desc>Created with sketchtool.</desc>
    <defs></defs>
    <g id="icons" stroke="none" stroke-width="1" fill="none" fill-rule="evenodd">
        <g transform="translate(-256.000000, -360.000000)" id="fa-iot-lock-b" fill="#5E676F">
            <path d="M262,379.005859 L262,384 C262,388.412888 265.583265,392 269.99792,392 L274.00208,392 C278.417729,392 282,388.417473 282,384 L282,379.005859 C282,377.346244 280.660526,376 279.004911,376 L264.995089,376 C263.339292,376 262,377.346806 262,379.005859 Z M264,379.005859 C264,378.448878 264.446374,378 264.995089,378 L279.004911,378 C279.553693,378 280,378.448563 280,379.005859 L280,384 C280,387.312935 277.313128,390 274.00208,390 L269.99792,390 C266.688315,390 264,387.308799 264,384 L264,379.005859 Z M267,366.997062 C267,364.23987 269.242707,362 272,362 C274.760921,362 277,364.238408 277,366.997062 L277,370 C277,370 277,371 278,371 C279,371 279,370 279,370 L279,366.997062 C279,363.133704 275.865356,360 272,360 C268.138704,360 265,363.134734 265,366.997062 L265,376 L267,376 L267,366.997062 Z M272,387 C270.343146,387 269,385.656854 269,384 C269,382.343146 270.343146,381 272,381 C273.656854,381 275,382.343146 275,384 C275,385.656854 273.656854,387 272,387 Z M272,386 C273.104569,386 274,385.104569 274,384 C274,382.895431 273.104569,382 272,382 C270.895431,382 270,382.895431 270,384 C270,385.104569 270.895431,386 272,386 Z"></path>
        </g>
    </g>
</svg>