<?xml version="1.0" encoding="UTF-8"?>
<svg width="32px" height="32px" viewBox="0 0 32 32" version="1.1" xmlns="http://www.w3.org/2000/svg" xmlns:xlink="http://www.w3.org/1999/xlink">
    <!-- Generator: sketchtool 40 (33762) - http://www.bohemiancoding.com/sketch -->
    <title>fa-iot-houseplant</title>
    <desc>Created with sketchtool.</desc>
    <defs></defs>
    <g id="icons" stroke="none" stroke-width="1" fill="none" fill-rule="evenodd">
        <g transform="translate(-204.000000, -204.000000)" id="fa-iot-houseplant" fill="#5E676F">
            <path d="M214.143588,229.490518 C214.286009,230.705061 214.531254,231.970608 214.891912,233.28871 C210.259421,231.41751 207.571732,228.180341 206.397815,223.889403 C205.541901,220.760839 205.569311,217.370253 206.137245,214.178322 C206.150197,214.105529 206.176465,213.96331 206.176465,213.96331 C206.176465,213.96331 206.337703,214.020843 206.926209,214.276976 C208.60999,215.009801 210.293645,215.93187 211.85704,217.051745 C213.192143,218.008091 214.308744,219.018891 215.223018,220.089923 L215.223018,220.089923 C214.426841,222.191025 213.967977,224.529791 213.99207,227.124161 L209.43415,218.760574 C209.302036,218.51815 208.998586,218.428821 208.756376,218.561052 C208.514167,218.693284 208.424917,218.997002 208.557031,219.239426 L214.143588,229.490518 L214.143588,229.490518 Z M217.033354,233.413674 C214.991207,223.905908 215.088992,218.922477 225.5133,210.73566 C227.612701,209.086878 229.974671,208.013068 232.288145,207.035968 C233.096737,206.694457 233.318275,206.617747 233.318275,206.617747 C233.318275,206.617747 233.354367,206.807372 233.372162,206.90443 C234.15249,211.160337 234.190151,215.681119 233.014145,219.852537 C231.150847,226.461855 226.511861,231.196112 218.184155,233.413553 L229.411631,213.748069 C229.548515,213.508311 229.46529,213.202883 229.225743,213.065878 C228.986197,212.928873 228.68104,213.012172 228.544156,213.251931 L217.033354,233.413674 L217.033354,233.413674 L217.033354,233.413674 Z M217.488069,236 C242.965506,229.5 234.755735,204 234.755735,204 C234.755735,204 221.030872,207.722748 215.989397,218.5 C211.992936,213 204.873099,212 204.873099,212 C200.003554,234.5 217.488069,236 217.488069,236 Z"></path>
        </g>
    </g>
</svg>