<?xml version="1.0" encoding="UTF-8"?>
<svg width="1792px" height="1792px" viewBox="0 0 1792 1792" version="1.1" xmlns="http://www.w3.org/2000/svg" xmlns:xlink="http://www.w3.org/1999/xlink">
    <!-- Generator: sketchtool 40 (33762) - http://www.bohemiancoding.com/sketch -->
    <title>fa-iot-pool</title>
    <desc>Created with sketchtool.</desc>
    <defs></defs>
    <g id="icons" stroke="none" stroke-width="1" fill="none" fill-rule="evenodd">
        <g id="fa-iot-pool" fill="#5E676F">
            <path d="M1066.29759,503.61436 L1066.29759,390.424242 C1065.79339,359.864038 1040.8629,335.245744 1010.1825,335.245744 C979.186694,335.245744 954.059628,360.372809 954.059628,391.368616 C954.059628,391.368616 954.059628,447.491488 897.936756,447.491488 C841.813884,447.491488 841.813884,391.368616 841.813884,391.368616 C841.813884,298.381197 917.195081,223 1010.1825,223 C1103.16992,223 1178.55112,298.381197 1178.55112,391.368616 L1178.54333,391.368616 L1178.54333,391.368616 L1178.54333,1055.68947 L1178.54333,1055.68947 C1196.40709,1038.09871 1211.44108,1017.45128 1222.77372,994.37095 C1243.43996,952.281614 1303.93432,952.295207 1324.58131,994.393826 C1362.22524,1071.14871 1440.92207,1120.97569 1528.44126,1120.97569 C1618.03252,1120.97569 1695.62756,1069.12557 1732.32118,994.220378 C1754.877,952.597335 1811.48593,952.597335 1787.7466,1009.0997 C1743.97209,1107.81651 1644.34181,1177.10101 1528.44126,1177.10101 C1439.64918,1177.10101 1360.23931,1136.44181 1308.29597,1072.86025 C1273.70105,1036.93414 1273.70105,1036.93414 1239.03198,1072.85344 C1187.14043,1136.36237 1107.83402,1177.10101 1018.96084,1177.10101 C930.168765,1177.10101 850.758899,1136.44181 798.815558,1072.86025 C764.220636,1036.93414 764.220636,1036.93414 729.551562,1072.85344 C677.66001,1136.36237 598.353605,1177.10101 509.480429,1177.10101 C420.68835,1177.10101 341.278484,1136.44181 289.335143,1072.86025 C254.740221,1036.93414 254.740221,1036.93414 220.071147,1072.85344 C168.179595,1136.36237 88.8731897,1177.10101 1.38952417e-05,1177.10101 C-4.63174694e-06,1149.02738 -4.63174694e-06,1149.02738 1.38952417e-05,1120.97569 C87.502125,1120.97569 166.125132,1071.12672 203.812891,994.37095 C224.479127,952.281614 284.973487,952.295207 305.620478,994.393826 C343.264408,1071.14871 421.961236,1120.97569 509.480429,1120.97569 C572.854223,1120.97569 631.570532,1094.82769 673.451108,1051.24749 L673.451108,390.424242 C672.946911,359.864038 648.016421,335.245744 617.336021,335.245744 C586.340214,335.245744 561.213149,360.372809 561.213149,391.368616 C561.213149,391.368616 561.213149,447.491488 505.090277,447.491488 C448.967405,447.491488 448.967405,391.368616 448.967405,391.368616 C448.967405,298.381197 524.348602,223 617.336021,223 C710.32344,223 785.704636,298.381197 785.704636,391.368616 L785.696851,391.368616 L785.696851,391.368616 L785.696851,503.61436 L1066.29759,503.61436 L1066.29759,503.61436 Z M1066.29759,615.860103 L1066.29759,728.105847 L785.69685,728.105847 L785.69685,615.860103 L1066.29759,615.860103 L1066.29759,615.860103 Z M1066.29759,1116.02654 L1066.29759,1064.84308 L1066.29759,1064.84308 L869.168366,1064.84308 C909.642312,1100.21141 962.463316,1120.97569 1018.96084,1120.97569 C1035.10933,1120.97569 1050.95541,1119.27791 1066.29759,1116.02654 L1066.29759,1116.02654 L1066.29759,1116.02654 Z M1066.29759,952.597335 L1066.29759,840.351591 L1066.29759,840.351591 L785.696849,840.351591 L785.696849,952.597335 L1066.29759,952.597335 L1066.29759,952.597335 L1066.29759,952.597335 Z M774.48959,1569.96851 C863.281668,1569.96851 942.691535,1529.30931 994.634875,1465.72775 C1029.2298,1429.80164 1029.2298,1429.80164 1063.89887,1465.72094 C1115.79042,1529.22988 1195.09683,1569.96851 1283.97,1569.96851 C1372.76208,1569.96851 1452.17195,1529.30931 1504.11529,1465.72775 C1538.71021,1429.80164 1538.71021,1429.80164 1573.37929,1465.72094 C1625.27084,1529.22988 1704.57724,1569.96851 1793.45042,1569.96851 C1793.45044,1541.89489 1793.45044,1541.89489 1793.45042,1513.8432 C1705.94831,1513.8432 1627.3253,1463.99422 1589.63754,1387.23845 C1568.97131,1345.14912 1508.47695,1345.16271 1487.82996,1387.26133 C1450.18603,1464.01621 1371.4892,1513.8432 1283.97,1513.8432 C1196.46789,1513.8432 1117.84489,1463.99422 1080.15713,1387.23845 C1059.49089,1345.14912 998.996532,1345.16271 978.34954,1387.26133 C940.70561,1464.01621 862.008782,1513.8432 774.48959,1513.8432 C686.987479,1513.8432 608.364472,1463.99422 570.676712,1387.23845 C550.010476,1345.14912 489.516117,1345.16271 468.869125,1387.26133 C431.225195,1464.01621 352.528367,1513.8432 265.009175,1513.8432 C175.417914,1513.8432 97.8228717,1461.99308 61.1292525,1387.08788 C38.5734347,1345.46484 -18.0354999,1345.46484 5.70383601,1401.9672 C49.4783446,1500.68401 149.108621,1569.96851 265.009175,1569.96851 C353.801253,1569.96851 433.21112,1529.30931 485.15446,1465.72775 C519.749382,1429.80164 519.749382,1429.80164 554.418456,1465.72094 C606.310008,1529.22988 685.616414,1569.96851 774.48959,1569.96851 L774.48959,1569.96851 Z"></path>
        </g>
    </g>
</svg>