<?xml version="1.0" encoding="UTF-8"?>
<svg width="32px" height="32px" viewBox="0 0 32 32" version="1.1" xmlns="http://www.w3.org/2000/svg" xmlns:xlink="http://www.w3.org/1999/xlink">
    <!-- Generator: sketchtool 40 (33762) - http://www.bohemiancoding.com/sketch -->
    <title>fa-iot-heater</title>
    <desc>Created with sketchtool.</desc>
    <defs></defs>
    <g id="icons" stroke="none" stroke-width="1" fill="none" fill-rule="evenodd">
        <g transform="translate(-100.000000, -360.000000)" id="fa-iot-heater" fill="#5E676F">
            <path d="M115,369.95512 C114.194798,369.807196 113.521721,369.297918 113.199984,368.491453 C113.010551,368.016621 112.994277,367.774869 112.999398,367.115011 C112.999868,367.053427 112.999868,367.053427 113,367 C113,366.713025 112.542774,366.275304 112,366.08897 L112,385.91103 C112.542774,385.724696 113,385.286975 113,385 C112.999846,384.945197 112.999846,384.945197 112.999287,384.88096 C112.993463,384.223307 113.009694,383.980832 113.200478,383.504768 C113.523135,382.699644 114.195949,382.192288 115,382.044808 L115,369.95512 Z M116,369.955192 C116.804051,369.807712 117.476865,369.300356 117.799522,368.495232 C117.990306,368.019168 118.006537,367.776693 118.000713,367.11904 C118.000154,367.054803 118.000154,367.054803 118,367 C118,366.713025 118.457226,366.275304 119,366.08897 L119,385.911057 C118.457191,385.724755 118,385.287064 118,385 C118.000132,384.946598 118.000132,384.946598 118.000602,384.885032 C118.005723,384.225318 117.989445,383.983513 117.800057,383.508717 C117.478367,382.702237 116.805279,382.192838 116,382.044885 L116,369.955192 Z M108,369.955192 C108.804051,369.807712 109.476865,369.300356 109.799522,368.495232 C109.990306,368.019168 110.006537,367.776693 110.000713,367.11904 C110.000154,367.054803 110.000154,367.054803 110,367 C110,366.713025 110.457226,366.275304 111,366.08897 L111,385.91103 C110.457218,385.724687 110,385.286925 110,384.999807 C110.000132,384.946407 110.000132,384.946407 110.000602,384.884844 C110.005724,384.22507 109.989445,383.983293 109.799985,383.508451 C109.47823,382.702037 108.80517,382.192797 108,382.04488 L108,369.955192 Z M107,369.95512 C106.194798,369.807196 105.521721,369.297918 105.199984,368.491453 C105.010551,368.016621 104.994277,367.774869 104.999398,367.115011 C104.999868,367.053427 104.999868,367.053427 105,367 C105,366.713025 104.542774,366.275304 104,366.08897 L104,385.91103 C104.542774,385.724696 105,385.286975 105,385 C104.999846,384.945197 104.999846,384.945197 104.999287,384.88096 C104.993463,384.223307 105.009694,383.980832 105.200478,383.504768 C105.523135,382.699644 106.195949,382.192288 107,382.044808 L107,369.95512 Z M103,366.08897 C102.457226,366.275304 102,366.713025 102,367 L102,385 C102,385.286975 102.457226,385.724696 103,385.91103 L103,366.08897 Z M120,385.91103 C120.542774,385.724696 121,385.286975 121,385 L121,367 C121,366.713025 120.542774,366.275304 120,366.08897 L120,385.91103 Z M115,367 C115,367.556283 114.947715,368 115.5,368 C116.056135,368 116,367.552371 116,367 C116,365 118.460516,364 119.5,364 C121.156854,364 123,365.343146 123,367 L123,385 C123,386.656854 121.156854,388 119.5,388 C118.460504,388 116,387 116,385 C116,384.443909 116.052285,384 115.5,384 C114.943865,384 115,384.447629 115,385 C115,387 112.539473,388 111.5,388 C110.460523,388 108,387 108,384.999807 C108,384.443717 108.052285,384 107.5,384 C106.943865,384 107,384.447629 107,385 C107,387 104.539499,388 103.5,388 C101.843146,388 100,386.656854 100,385 L100,367 C100,365.343146 101.843146,364 103.5,364 C104.539484,364 107,365 107,367 C107,367.556283 106.947715,368 107.5,368 C108.056135,368 108,367.552371 108,367 C108,365 110.460516,364 111.5,364 C112.539484,364 115,365 115,367 Z M124,365.996839 C124,363.789446 125.795356,362 128,362 C130.209139,362 132,363.79412 132,365.996839 L132,386.003161 C132,388.210554 130.204644,390 128,390 C125.790861,390 124,388.20588 124,386.003161 L124,365.996839 Z M126,365.996839 L126,386.003161 C126,387.102932 126.897053,388 128,388 C129.102328,388 130,387.103733 130,386.003161 L130,365.996839 C130,364.897068 129.102947,364 128,364 C126.897672,364 126,364.896267 126,365.996839 Z M128,370 C128.552285,370 129,369.552285 129,369 C129,368.447715 128.552285,368 128,368 C127.447715,368 127,368.447715 127,369 C127,369.552285 127.447715,370 128,370 Z M128,376 C128.552285,376 129,375.552285 129,375 C129,374.447715 128.552285,374 128,374 C127.447715,374 127,374.447715 127,375 C127,375.552285 127.447715,376 128,376 Z M128,380 C128.552285,380 129,379.552285 129,379 C129,378.447715 128.552285,378 128,378 C127.447715,378 127,378.447715 127,379 C127,379.552285 127.447715,380 128,380 Z M128,384 C128.552285,384 129,383.552285 129,383 C129,382.447715 128.552285,382 128,382 C127.447715,382 127,382.447715 127,383 C127,383.552285 127.447715,384 128,384 Z"></path>
        </g>
    </g>
</svg>