<?xml version="1.0" encoding="UTF-8"?>
<svg width="32px" height="32px" viewBox="0 0 32 32" version="1.1" xmlns="http://www.w3.org/2000/svg" xmlns:xlink="http://www.w3.org/1999/xlink">
    <!-- Generator: sketchtool 40 (33762) - http://www.bohemiancoding.com/sketch -->
    <title>fa-iot-eye</title>
    <desc>Created with sketchtool.</desc>
    <defs></defs>
    <g id="icons" stroke="none" stroke-width="1" fill="none" fill-rule="evenodd">
        <g transform="translate(-100.000000, -204.000000)" id="fa-iot-eye" fill="#5E676F">
            <path d="M116,232 C123.934791,232 132,225.314811 132,220 C132,214.685189 123.934791,208 116,208 C108.065209,208 100,214.685189 100,220 C100,225.314811 108.065209,232 116,232 Z M116,230 C109.095526,230 102,224.118574 102,220 C102,215.881426 109.095526,210 116,210 C122.904474,210 130,215.881426 130,220 C130,224.118574 122.904474,230 116,230 Z M116,228 C111.581722,228 108,224.418278 108,220 C108,215.581722 111.581722,212 116,212 C120.418278,212 124,215.581722 124,220 C124,224.418278 120.418278,228 116,228 Z M116,227 C119.865993,227 123,223.865993 123,220 C123,216.134007 119.865993,213 116,213 C112.134007,213 109,216.134007 109,220 C109,223.865993 112.134007,227 116,227 Z M111.5,220 C111,220 111,219.711753 111,219.5 C111,217 113,215 115.5,215 C115.657769,215 116,215.187662 116,215.5 C116,215.812338 115.5,216 115.5,216 C113.5,216 112,217.5 112,219.5 C112,219.5 112,220 111.5,220 Z"></path>
        </g>
    </g>
</svg>