<?xml version="1.0" encoding="UTF-8"?>
<svg width="1792px" height="1792px" viewBox="0 0 1792 1792" version="1.1" xmlns="http://www.w3.org/2000/svg" xmlns:xlink="http://www.w3.org/1999/xlink">
    <!-- Generator: sketchtool 40 (33762) - http://www.bohemiancoding.com/sketch -->
    <title>fa-iot-solar-panel</title>
    <desc>Created with sketchtool.</desc>
    <defs></defs>
    <g id="icons" stroke="none" stroke-width="1" fill="none" fill-rule="evenodd">
        <g id="fa-iot-solar-panel" fill="#5E676F">
            <path d="M725.501136,1515.11774 L725.501136,1234.54038 L725.501136,1234.54038 L108.230944,1234.54038 L108.230944,1515.11774 L725.501136,1515.11774 L725.501136,1515.11774 Z M725.501136,1571.23322 L725.501136,1627.1938 C725.501136,1658.3452 700.409235,1683.46416 669.230778,1683.46416 L164.501302,1683.46416 C133.349906,1683.46416 108.230944,1658.37226 108.230944,1627.1938 L108.230944,1571.23322 L725.501136,1571.23322 L725.501136,1571.23322 Z M725.501136,1178.42491 L725.501136,1122.46433 C725.501136,1091.28587 700.382174,1066.19397 669.230778,1066.19397 L164.501302,1066.19397 C133.322845,1066.19397 108.230944,1091.31293 108.230944,1122.46433 L108.230944,1178.42491 L725.501136,1178.42491 L725.501136,1178.42491 L725.501136,1178.42491 Z M1679.46416,1515.11774 L1679.46416,1234.54038 L1679.46416,1234.54038 L1062.19397,1234.54038 L1062.19397,1515.11774 L1679.46416,1515.11774 L1679.46416,1515.11774 Z M1679.46416,1571.23322 L1679.46416,1627.1938 C1679.46416,1658.3452 1654.37226,1683.46416 1623.1938,1683.46416 L1118.46433,1683.46416 C1087.31293,1683.46416 1062.19397,1658.37226 1062.19397,1627.1938 L1062.19397,1571.23322 L1679.46416,1571.23322 L1679.46416,1571.23322 L1679.46416,1571.23322 Z M1679.46416,1178.42491 L1679.46416,1122.46433 C1679.46416,1091.28587 1654.3452,1066.19397 1623.1938,1066.19397 L1118.46433,1066.19397 C1087.28587,1066.19397 1062.19397,1091.31293 1062.19397,1122.46433 L1062.19397,1178.42491 L1679.46416,1178.42491 L1679.46416,1178.42491 L1679.46416,1178.42491 Z M1679.46416,561.15472 L1679.46416,280.57736 L1679.46416,280.57736 L1062.19397,280.57736 L1062.19397,561.15472 L1679.46416,561.15472 L1679.46416,561.15472 Z M1679.46416,617.270192 L1679.46416,673.230778 C1679.46416,704.382174 1654.37226,729.501136 1623.1938,729.501136 L1118.46433,729.501136 C1087.31293,729.501136 1062.19397,704.409235 1062.19397,673.230778 L1062.19397,617.270192 L1679.46416,617.270192 L1679.46416,617.270192 L1679.46416,617.270192 Z M1679.46416,224.461888 L1679.46416,168.501302 C1679.46416,137.322845 1654.3452,112.230944 1623.1938,112.230944 L1118.46433,112.230944 C1087.28587,112.230944 1062.19397,137.349906 1062.19397,168.501302 L1062.19397,224.461888 L1679.46416,224.461888 L1679.46416,224.461888 L1679.46416,224.461888 Z M725.501136,561.15472 L725.501136,280.57736 L725.501136,280.57736 L108.230944,280.57736 L108.230944,561.15472 L725.501136,561.15472 L725.501136,561.15472 Z M725.501136,617.270192 L725.501136,673.230778 C725.501136,704.382174 700.409235,729.501136 669.230778,729.501136 L164.501302,729.501136 C133.349906,729.501136 108.230944,704.409235 108.230944,673.230778 L108.230944,617.270192 L725.501136,617.270192 L725.501136,617.270192 L725.501136,617.270192 Z M725.501136,224.461888 L725.501136,168.501302 C725.501136,137.322845 700.382174,112.230944 669.230778,112.230944 L164.501302,112.230944 C133.322845,112.230944 108.230944,137.349906 108.230944,168.501302 L108.230944,224.461888 L725.501136,224.461888 L725.501136,224.461888 L725.501136,224.461888 Z M-4,168.501302 L-4,673.230778 C-4,766.419771 71.3935319,841.73208 164.501302,841.73208 L669.230778,841.73208 C762.419771,841.73208 837.73208,766.338548 837.73208,673.230778 L837.73208,168.501302 C837.73208,75.3123091 762.338548,0 669.230778,0 L164.501302,0 C71.3123091,0 -4,75.3935319 -4,168.501302 L-4,168.501302 Z M-4,1122.46433 L-4,1627.1938 C-4,1720.38279 71.3935319,1795.6951 164.501302,1795.6951 L669.230778,1795.6951 C762.419771,1795.6951 837.73208,1720.30157 837.73208,1627.1938 L837.73208,1122.46433 C837.73208,1029.27533 762.338548,953.963024 669.230778,953.963024 L164.501302,953.963024 C71.3123091,953.963024 -4,1029.35656 -4,1122.46433 L-4,1122.46433 Z M949.963024,168.501302 L949.963024,673.230778 C949.963024,766.419771 1025.35656,841.73208 1118.46433,841.73208 L1623.1938,841.73208 C1716.38279,841.73208 1791.6951,766.338548 1791.6951,673.230778 L1791.6951,168.501302 C1791.6951,75.3123091 1716.30157,0 1623.1938,0 L1118.46433,0 C1025.27533,0 949.963024,75.3935319 949.963024,168.501302 L949.963024,168.501302 Z M949.963024,1122.46433 L949.963024,1627.1938 C949.963024,1720.38279 1025.35656,1795.6951 1118.46433,1795.6951 L1623.1938,1795.6951 C1716.38279,1795.6951 1791.6951,1720.30157 1791.6951,1627.1938 L1791.6951,1122.46433 C1791.6951,1029.27533 1716.30157,953.963024 1623.1938,953.963024 L1118.46433,953.963024 C1025.27533,953.963024 949.963024,1029.35656 949.963024,1122.46433 L949.963024,1122.46433 Z"></path>
        </g>
    </g>
</svg>