<?xml version="1.0" encoding="UTF-8"?>
<svg width="32px" height="32px" viewBox="0 0 32 32" version="1.1" xmlns="http://www.w3.org/2000/svg" xmlns:xlink="http://www.w3.org/1999/xlink">
    <!-- Generator: sketchtool 40 (33762) - http://www.bohemiancoding.com/sketch -->
    <title>fa-iot-socket-g</title>
    <desc>Created with sketchtool.</desc>
    <defs></defs>
    <g id="icons" stroke="none" stroke-width="1" fill="none" fill-rule="evenodd">
        <g transform="translate(-48.000000, -256.000000)" id="fa-iot-socket-g" fill="#5E676F">
            <path d="M48,262.000176 C48,258.68637 50.6869779,256 54.0001757,256 L73.9998243,256 C77.3136299,256 80,258.686978 80,262.000176 L80,281.999824 C80,285.31363 77.3130221,288 73.9998243,288 L54.0001757,288 C50.6863701,288 48,285.313022 48,281.999824 L48,262.000176 Z M50,262.000176 L50,281.999824 C50,284.208694 51.7911809,286 54.0001757,286 L73.9998243,286 C76.2086938,286 78,284.208819 78,281.999824 L78,262.000176 C78,259.791306 76.2088191,258 73.9998243,258 L54.0001757,258 C51.7913062,258 50,259.791181 50,262.000176 Z M52,265.001973 C52,262.239459 54.23631,260 57.0019727,260 L70.9980273,260 C73.7605405,260 76,262.23631 76,265.001973 L76,278.998027 C76,281.760541 73.76369,284 70.9980273,284 L57.0019727,284 C54.2394595,284 52,281.76369 52,278.998027 L52,265.001973 Z M53,265.001973 L53,278.998027 C53,281.21022 54.7905586,283 57.0019727,283 L70.9980273,283 C73.2102201,283 75,281.209441 75,278.998027 L75,265.001973 C75,262.78978 73.2094414,261 70.9980273,261 L57.0019727,261 C54.7897799,261 53,262.790559 53,265.001973 Z M64,281 C59.0294373,281 55,276.970563 55,272 C55,267.029437 59.0294373,263 64,263 C68.9705627,263 73,267.029437 73,272 C73,276.970563 68.9705627,281 64,281 Z M64,280 C68.418278,280 72,276.418278 72,272 C72,267.581722 68.418278,264 64,264 C59.581722,264 56,267.581722 56,272 C56,276.418278 59.581722,280 64,280 Z M64,271 C63.4477153,271 63,270.556647 63,269.990631 L63,268.009369 C63,267.45191 63.4438648,267 64,267 C64.5522847,267 65,267.443353 65,268.009369 L65,269.990631 C65,270.54809 64.5561352,271 64,271 Z M65,274 C65,273.447715 65.4433532,273 66.0093689,273 L67.9906311,273 C68.5480902,273 69,273.443865 69,274 C69,274.552285 68.5566468,275 67.9906311,275 L66.0093689,275 C65.4519098,275 65,274.556135 65,274 Z M59,274 C59,273.447715 59.4433532,273 60.0093689,273 L61.9906311,273 C62.5480902,273 63,273.443865 63,274 C63,274.552285 62.5566468,275 61.9906311,275 L60.0093689,275 C59.4519098,275 59,274.556135 59,274 Z"></path>
        </g>
    </g>
</svg>