<?xml version="1.0" encoding="UTF-8"?>
<svg width="1792px" height="1792px" viewBox="0 0 1792 1792" version="1.1" xmlns="http://www.w3.org/2000/svg" xmlns:xlink="http://www.w3.org/1999/xlink">
    <!-- Generator: sketchtool 40 (33762) - http://www.bohemiancoding.com/sketch -->
    <title>fa-iot-loudspeakers</title>
    <desc>Created with sketchtool.</desc>
    <defs></defs>
    <g id="icons" stroke="none" stroke-width="1" fill="none" fill-rule="evenodd">
        <g id="fa-iot-loudspeakers" fill="#5E676F">
            <path d="M897.847552,1795.6951 C1176.77303,1795.6951 1402.8868,1569.58133 1402.8868,1290.65586 C1402.8868,1011.73038 1176.77303,785.616608 897.847552,785.616608 C618.922077,785.616608 392.808304,1011.73038 392.808304,1290.65586 C392.808304,1569.58133 618.922077,1795.6951 897.847552,1795.6951 L897.847552,1795.6951 Z M897.847552,1683.46416 C680.905516,1683.46416 505.039248,1507.59789 505.039248,1290.65586 C505.039248,1073.71382 680.905516,897.847552 897.847552,897.847552 C1114.78959,897.847552 1290.65586,1073.71382 1290.65586,1290.65586 C1290.65586,1507.59789 1114.78959,1683.46416 897.847552,1683.46416 L897.847552,1683.46416 Z M897.847552,1627.34869 C711.897235,1627.34869 561.15472,1476.60617 561.15472,1290.65586 C561.15472,1104.70554 711.897235,953.963024 897.847552,953.963024 C1083.79787,953.963024 1234.54038,1104.70554 1234.54038,1290.65586 C1234.54038,1476.60617 1083.79787,1627.34869 897.847552,1627.34869 L897.847552,1627.34869 Z M897.847552,1571.23322 C1052.80615,1571.23322 1178.42491,1445.61445 1178.42491,1290.65586 C1178.42491,1135.69726 1052.80615,1010.0785 897.847552,1010.0785 C742.888955,1010.0785 617.270192,1135.69726 617.270192,1290.65586 C617.270192,1445.61445 742.888955,1571.23322 897.847552,1571.23322 L897.847552,1571.23322 Z M897.847552,1346.77133 C866.855832,1346.77133 841.73208,1321.64758 841.73208,1290.65586 C841.73208,1259.66414 866.855832,1234.54038 897.847552,1234.54038 C928.839271,1234.54038 953.963024,1259.66414 953.963024,1290.65586 C953.963024,1321.64758 928.839271,1346.77133 897.847552,1346.77133 L897.847552,1346.77133 Z M897.847552,673.385664 C1083.79787,673.385664 1234.54038,522.643148 1234.54038,336.692832 C1234.54038,150.742515 1083.79787,0 897.847552,0 C711.897235,0 561.15472,150.742515 561.15472,336.692832 C561.15472,522.643148 711.897235,673.385664 897.847552,673.385664 L897.847552,673.385664 Z M897.847552,561.15472 C773.880674,561.15472 673.385664,460.65971 673.385664,336.692832 C673.385664,212.725954 773.880674,112.230944 897.847552,112.230944 C1021.81443,112.230944 1122.30944,212.725954 1122.30944,336.692832 C1122.30944,460.65971 1021.81443,561.15472 897.847552,561.15472 L897.847552,561.15472 Z M897.847552,505.039248 C804.872394,505.039248 729.501136,429.66799 729.501136,336.692832 C729.501136,243.717674 804.872394,168.346416 897.847552,168.346416 C990.82271,168.346416 1066.19397,243.717674 1066.19397,336.692832 C1066.19397,429.66799 990.82271,505.039248 897.847552,505.039248 L897.847552,505.039248 Z M897.847552,448.923776 C959.830991,448.923776 1010.0785,398.676271 1010.0785,336.692832 C1010.0785,274.709393 959.830991,224.461888 897.847552,224.461888 C835.864113,224.461888 785.616608,274.709393 785.616608,336.692832 C785.616608,398.676271 835.864113,448.923776 897.847552,448.923776 L897.847552,448.923776 Z"></path>
        </g>
    </g>
</svg>