<?xml version="1.0" encoding="UTF-8"?>
<svg width="1792px" height="1792px" viewBox="0 0 1792 1792" version="1.1" xmlns="http://www.w3.org/2000/svg" xmlns:xlink="http://www.w3.org/1999/xlink">
    <!-- Generator: sketchtool 40 (33762) - http://www.bohemiancoding.com/sketch -->
    <title>fa-iot-ring</title>
    <desc>Created with sketchtool.</desc>
    <defs></defs>
    <g id="icons" stroke="none" stroke-width="1" fill="none" fill-rule="evenodd">
        <g id="fa-iot-ring" fill="#5E676F">
            <path d="M1105.92608,1655.61241 C1039.65344,1673.76902 969.882708,1683.46416 897.847552,1683.46416 C825.812383,1683.46416 756.041636,1673.76902 689.76899,1655.6124 C679.001684,1629.0964 673.385664,1600.60452 673.385664,1571.23322 C673.385664,1447.26634 773.880674,1346.77133 897.847552,1346.77133 C1021.81443,1346.77133 1122.30944,1447.26634 1122.30944,1571.23322 C1122.30944,1600.60364 1116.69388,1629.09502 1105.92608,1655.61241 Z M1171.24294,1634.58605 C1470.34016,1523.55151 1683.46416,1235.58842 1683.46416,897.847552 C1683.46416,463.96348 1331.73162,112.230944 897.847552,112.230944 C463.96348,112.230944 112.230944,463.96348 112.230944,897.847552 C112.230944,1235.58842 325.354942,1523.55151 624.452168,1634.58605 C619.75338,1614.22681 617.270192,1593.02 617.270192,1571.23322 C617.270192,1416.27462 742.888955,1290.65586 897.847552,1290.65586 C1052.80615,1290.65586 1178.42491,1416.27462 1178.42491,1571.23322 C1178.42491,1593.02 1175.94172,1614.22681 1171.24294,1634.58605 Z M897.847552,1795.6951 C401.980041,1795.6951 0,1393.71506 0,897.847552 C0,401.980041 401.980041,0 897.847552,0 C1393.71506,0 1795.6951,401.980041 1795.6951,897.847552 C1795.6951,1393.71506 1393.71506,1795.6951 897.847552,1795.6951 Z M897.847552,392.808304 C1176.77303,392.808304 1402.8868,618.922077 1402.8868,897.847552 C1402.8868,897.847552 1402.8868,953.963024 1459.00227,953.963024 C1515.11774,953.963024 1515.11774,897.847552 1515.11774,897.847552 C1515.11774,556.938638 1238.75647,280.57736 897.847552,280.57736 C556.938638,280.57736 280.57736,556.938638 280.57736,897.847552 C280.57736,897.847552 280.57736,953.963024 336.692832,953.963024 C392.808304,953.963024 392.808304,897.847552 392.808304,897.847552 C392.808304,618.922077 618.922077,392.808304 897.847552,392.808304 Z M897.847552,1571.23322 C866.855832,1571.23322 841.73208,1546.10946 841.73208,1515.11774 C841.73208,1484.12602 866.855832,1459.00227 897.847552,1459.00227 C928.839271,1459.00227 953.963024,1484.12602 953.963024,1515.11774 C953.963024,1546.10946 928.839271,1571.23322 897.847552,1571.23322 Z M897.847552,1178.42491 C742.888955,1178.42491 617.270192,1052.80615 617.270192,897.847552 C617.270192,742.888955 742.888955,617.270192 897.847552,617.270192 C1052.80615,617.270192 1178.42491,742.888955 1178.42491,897.847552 C1178.42491,1052.80615 1052.80615,1178.42491 897.847552,1178.42491 Z M897.847552,1122.30944 C1021.81443,1122.30944 1122.30944,1021.81443 1122.30944,897.847552 C1122.30944,773.880674 1021.81443,673.385664 897.847552,673.385664 C773.880674,673.385664 673.385664,773.880674 673.385664,897.847552 C673.385664,1021.81443 773.880674,1122.30944 897.847552,1122.30944 Z M897.847552,1010.0785 C835.864113,1010.0785 785.616608,959.830991 785.616608,897.847552 C785.616608,835.864113 835.864113,785.616608 897.847552,785.616608 C959.830991,785.616608 1010.0785,835.864113 1010.0785,897.847552 C1010.0785,959.830991 959.830991,1010.0785 897.847552,1010.0785 Z M897.847552,953.963024 C928.839271,953.963024 953.963024,928.839271 953.963024,897.847552 C953.963024,866.855832 928.839271,841.73208 897.847552,841.73208 C866.855832,841.73208 841.73208,866.855832 841.73208,897.847552 C841.73208,928.839271 866.855832,953.963024 897.847552,953.963024 Z"></path>
        </g>
    </g>
</svg>